%TF.GenerationSoftware,KiCad,Pcbnew,(5.1.6)-1*%
%TF.CreationDate,2022-03-08T04:09:40+09:00*%
%TF.ProjectId,STM32-project,53544d33-322d-4707-926f-6a6563742e6b,rev?*%
%TF.SameCoordinates,Original*%
%TF.FileFunction,Soldermask,Top*%
%TF.FilePolarity,Negative*%
%FSLAX46Y46*%
G04 Gerber Fmt 4.6, Leading zero omitted, Abs format (unit mm)*
G04 Created by KiCad (PCBNEW (5.1.6)-1) date 2022-03-08 04:09:40*
%MOMM*%
%LPD*%
G01*
G04 APERTURE LIST*
%ADD10O,0.900000X0.900000*%
%ADD11O,1.900000X1.250000*%
%ADD12O,2.100000X1.550000*%
%ADD13R,1.400000X0.550000*%
%ADD14R,0.900000X1.100000*%
%ADD15R,1.600000X0.800000*%
%ADD16C,1.000000*%
%ADD17C,2.300000*%
%ADD18R,1.500000X1.900000*%
%ADD19R,1.600000X2.100000*%
%ADD20R,3.900000X2.100000*%
%ADD21O,1.800000X1.800000*%
%ADD22R,1.800000X1.800000*%
G04 APERTURE END LIST*
D10*
%TO.C,J1*%
X95700000Y-77000000D03*
X95700000Y-82000000D03*
D11*
X98450000Y-75625000D03*
X98450000Y-83375000D03*
D12*
X94650000Y-75775000D03*
X94650000Y-83225000D03*
D13*
X94600000Y-78200000D03*
X94600000Y-78850000D03*
X94600000Y-79500000D03*
X94600000Y-80150000D03*
X94600000Y-80800000D03*
%TD*%
D14*
%TO.C,SW1*%
X58280000Y-71350000D03*
X58280000Y-78650000D03*
X56070000Y-78650000D03*
X56070000Y-71350000D03*
D15*
X58930000Y-77250000D03*
X58930000Y-75750000D03*
X58930000Y-72750000D03*
D16*
X57170000Y-76500000D03*
X57170000Y-73500000D03*
%TD*%
D17*
%TO.C,H4*%
X97500000Y-66500000D03*
%TD*%
%TO.C,H3*%
X58000000Y-66500000D03*
%TD*%
%TO.C,H2*%
X97500000Y-94250000D03*
%TD*%
%TO.C,H1*%
X58000000Y-94250000D03*
%TD*%
D18*
%TO.C,Y1*%
X65950000Y-77300000D03*
X65950000Y-81700000D03*
X63550000Y-81700000D03*
X63550000Y-77300000D03*
%TD*%
%TO.C,U2*%
G36*
G01*
X73550000Y-77025000D02*
X73550000Y-75650000D01*
G75*
G02*
X73650000Y-75550000I100000J0D01*
G01*
X73850000Y-75550000D01*
G75*
G02*
X73950000Y-75650000I0J-100000D01*
G01*
X73950000Y-77025000D01*
G75*
G02*
X73850000Y-77125000I-100000J0D01*
G01*
X73650000Y-77125000D01*
G75*
G02*
X73550000Y-77025000I0J100000D01*
G01*
G37*
G36*
G01*
X74050000Y-77025000D02*
X74050000Y-75650000D01*
G75*
G02*
X74150000Y-75550000I100000J0D01*
G01*
X74350000Y-75550000D01*
G75*
G02*
X74450000Y-75650000I0J-100000D01*
G01*
X74450000Y-77025000D01*
G75*
G02*
X74350000Y-77125000I-100000J0D01*
G01*
X74150000Y-77125000D01*
G75*
G02*
X74050000Y-77025000I0J100000D01*
G01*
G37*
G36*
G01*
X74550000Y-77025000D02*
X74550000Y-75650000D01*
G75*
G02*
X74650000Y-75550000I100000J0D01*
G01*
X74850000Y-75550000D01*
G75*
G02*
X74950000Y-75650000I0J-100000D01*
G01*
X74950000Y-77025000D01*
G75*
G02*
X74850000Y-77125000I-100000J0D01*
G01*
X74650000Y-77125000D01*
G75*
G02*
X74550000Y-77025000I0J100000D01*
G01*
G37*
G36*
G01*
X75050000Y-77025000D02*
X75050000Y-75650000D01*
G75*
G02*
X75150000Y-75550000I100000J0D01*
G01*
X75350000Y-75550000D01*
G75*
G02*
X75450000Y-75650000I0J-100000D01*
G01*
X75450000Y-77025000D01*
G75*
G02*
X75350000Y-77125000I-100000J0D01*
G01*
X75150000Y-77125000D01*
G75*
G02*
X75050000Y-77025000I0J100000D01*
G01*
G37*
G36*
G01*
X75550000Y-77025000D02*
X75550000Y-75650000D01*
G75*
G02*
X75650000Y-75550000I100000J0D01*
G01*
X75850000Y-75550000D01*
G75*
G02*
X75950000Y-75650000I0J-100000D01*
G01*
X75950000Y-77025000D01*
G75*
G02*
X75850000Y-77125000I-100000J0D01*
G01*
X75650000Y-77125000D01*
G75*
G02*
X75550000Y-77025000I0J100000D01*
G01*
G37*
G36*
G01*
X76050000Y-77025000D02*
X76050000Y-75650000D01*
G75*
G02*
X76150000Y-75550000I100000J0D01*
G01*
X76350000Y-75550000D01*
G75*
G02*
X76450000Y-75650000I0J-100000D01*
G01*
X76450000Y-77025000D01*
G75*
G02*
X76350000Y-77125000I-100000J0D01*
G01*
X76150000Y-77125000D01*
G75*
G02*
X76050000Y-77025000I0J100000D01*
G01*
G37*
G36*
G01*
X76550000Y-77025000D02*
X76550000Y-75650000D01*
G75*
G02*
X76650000Y-75550000I100000J0D01*
G01*
X76850000Y-75550000D01*
G75*
G02*
X76950000Y-75650000I0J-100000D01*
G01*
X76950000Y-77025000D01*
G75*
G02*
X76850000Y-77125000I-100000J0D01*
G01*
X76650000Y-77125000D01*
G75*
G02*
X76550000Y-77025000I0J100000D01*
G01*
G37*
G36*
G01*
X77050000Y-77025000D02*
X77050000Y-75650000D01*
G75*
G02*
X77150000Y-75550000I100000J0D01*
G01*
X77350000Y-75550000D01*
G75*
G02*
X77450000Y-75650000I0J-100000D01*
G01*
X77450000Y-77025000D01*
G75*
G02*
X77350000Y-77125000I-100000J0D01*
G01*
X77150000Y-77125000D01*
G75*
G02*
X77050000Y-77025000I0J100000D01*
G01*
G37*
G36*
G01*
X77550000Y-77025000D02*
X77550000Y-75650000D01*
G75*
G02*
X77650000Y-75550000I100000J0D01*
G01*
X77850000Y-75550000D01*
G75*
G02*
X77950000Y-75650000I0J-100000D01*
G01*
X77950000Y-77025000D01*
G75*
G02*
X77850000Y-77125000I-100000J0D01*
G01*
X77650000Y-77125000D01*
G75*
G02*
X77550000Y-77025000I0J100000D01*
G01*
G37*
G36*
G01*
X78050000Y-77025000D02*
X78050000Y-75650000D01*
G75*
G02*
X78150000Y-75550000I100000J0D01*
G01*
X78350000Y-75550000D01*
G75*
G02*
X78450000Y-75650000I0J-100000D01*
G01*
X78450000Y-77025000D01*
G75*
G02*
X78350000Y-77125000I-100000J0D01*
G01*
X78150000Y-77125000D01*
G75*
G02*
X78050000Y-77025000I0J100000D01*
G01*
G37*
G36*
G01*
X78550000Y-77025000D02*
X78550000Y-75650000D01*
G75*
G02*
X78650000Y-75550000I100000J0D01*
G01*
X78850000Y-75550000D01*
G75*
G02*
X78950000Y-75650000I0J-100000D01*
G01*
X78950000Y-77025000D01*
G75*
G02*
X78850000Y-77125000I-100000J0D01*
G01*
X78650000Y-77125000D01*
G75*
G02*
X78550000Y-77025000I0J100000D01*
G01*
G37*
G36*
G01*
X79050000Y-77025000D02*
X79050000Y-75650000D01*
G75*
G02*
X79150000Y-75550000I100000J0D01*
G01*
X79350000Y-75550000D01*
G75*
G02*
X79450000Y-75650000I0J-100000D01*
G01*
X79450000Y-77025000D01*
G75*
G02*
X79350000Y-77125000I-100000J0D01*
G01*
X79150000Y-77125000D01*
G75*
G02*
X79050000Y-77025000I0J100000D01*
G01*
G37*
G36*
G01*
X79875000Y-77850000D02*
X79875000Y-77650000D01*
G75*
G02*
X79975000Y-77550000I100000J0D01*
G01*
X81350000Y-77550000D01*
G75*
G02*
X81450000Y-77650000I0J-100000D01*
G01*
X81450000Y-77850000D01*
G75*
G02*
X81350000Y-77950000I-100000J0D01*
G01*
X79975000Y-77950000D01*
G75*
G02*
X79875000Y-77850000I0J100000D01*
G01*
G37*
G36*
G01*
X79875000Y-78350000D02*
X79875000Y-78150000D01*
G75*
G02*
X79975000Y-78050000I100000J0D01*
G01*
X81350000Y-78050000D01*
G75*
G02*
X81450000Y-78150000I0J-100000D01*
G01*
X81450000Y-78350000D01*
G75*
G02*
X81350000Y-78450000I-100000J0D01*
G01*
X79975000Y-78450000D01*
G75*
G02*
X79875000Y-78350000I0J100000D01*
G01*
G37*
G36*
G01*
X79875000Y-78850000D02*
X79875000Y-78650000D01*
G75*
G02*
X79975000Y-78550000I100000J0D01*
G01*
X81350000Y-78550000D01*
G75*
G02*
X81450000Y-78650000I0J-100000D01*
G01*
X81450000Y-78850000D01*
G75*
G02*
X81350000Y-78950000I-100000J0D01*
G01*
X79975000Y-78950000D01*
G75*
G02*
X79875000Y-78850000I0J100000D01*
G01*
G37*
G36*
G01*
X79875000Y-79350000D02*
X79875000Y-79150000D01*
G75*
G02*
X79975000Y-79050000I100000J0D01*
G01*
X81350000Y-79050000D01*
G75*
G02*
X81450000Y-79150000I0J-100000D01*
G01*
X81450000Y-79350000D01*
G75*
G02*
X81350000Y-79450000I-100000J0D01*
G01*
X79975000Y-79450000D01*
G75*
G02*
X79875000Y-79350000I0J100000D01*
G01*
G37*
G36*
G01*
X79875000Y-79850000D02*
X79875000Y-79650000D01*
G75*
G02*
X79975000Y-79550000I100000J0D01*
G01*
X81350000Y-79550000D01*
G75*
G02*
X81450000Y-79650000I0J-100000D01*
G01*
X81450000Y-79850000D01*
G75*
G02*
X81350000Y-79950000I-100000J0D01*
G01*
X79975000Y-79950000D01*
G75*
G02*
X79875000Y-79850000I0J100000D01*
G01*
G37*
G36*
G01*
X79875000Y-80350000D02*
X79875000Y-80150000D01*
G75*
G02*
X79975000Y-80050000I100000J0D01*
G01*
X81350000Y-80050000D01*
G75*
G02*
X81450000Y-80150000I0J-100000D01*
G01*
X81450000Y-80350000D01*
G75*
G02*
X81350000Y-80450000I-100000J0D01*
G01*
X79975000Y-80450000D01*
G75*
G02*
X79875000Y-80350000I0J100000D01*
G01*
G37*
G36*
G01*
X79875000Y-80850000D02*
X79875000Y-80650000D01*
G75*
G02*
X79975000Y-80550000I100000J0D01*
G01*
X81350000Y-80550000D01*
G75*
G02*
X81450000Y-80650000I0J-100000D01*
G01*
X81450000Y-80850000D01*
G75*
G02*
X81350000Y-80950000I-100000J0D01*
G01*
X79975000Y-80950000D01*
G75*
G02*
X79875000Y-80850000I0J100000D01*
G01*
G37*
G36*
G01*
X79875000Y-81350000D02*
X79875000Y-81150000D01*
G75*
G02*
X79975000Y-81050000I100000J0D01*
G01*
X81350000Y-81050000D01*
G75*
G02*
X81450000Y-81150000I0J-100000D01*
G01*
X81450000Y-81350000D01*
G75*
G02*
X81350000Y-81450000I-100000J0D01*
G01*
X79975000Y-81450000D01*
G75*
G02*
X79875000Y-81350000I0J100000D01*
G01*
G37*
G36*
G01*
X79875000Y-81850000D02*
X79875000Y-81650000D01*
G75*
G02*
X79975000Y-81550000I100000J0D01*
G01*
X81350000Y-81550000D01*
G75*
G02*
X81450000Y-81650000I0J-100000D01*
G01*
X81450000Y-81850000D01*
G75*
G02*
X81350000Y-81950000I-100000J0D01*
G01*
X79975000Y-81950000D01*
G75*
G02*
X79875000Y-81850000I0J100000D01*
G01*
G37*
G36*
G01*
X79875000Y-82350000D02*
X79875000Y-82150000D01*
G75*
G02*
X79975000Y-82050000I100000J0D01*
G01*
X81350000Y-82050000D01*
G75*
G02*
X81450000Y-82150000I0J-100000D01*
G01*
X81450000Y-82350000D01*
G75*
G02*
X81350000Y-82450000I-100000J0D01*
G01*
X79975000Y-82450000D01*
G75*
G02*
X79875000Y-82350000I0J100000D01*
G01*
G37*
G36*
G01*
X79875000Y-82850000D02*
X79875000Y-82650000D01*
G75*
G02*
X79975000Y-82550000I100000J0D01*
G01*
X81350000Y-82550000D01*
G75*
G02*
X81450000Y-82650000I0J-100000D01*
G01*
X81450000Y-82850000D01*
G75*
G02*
X81350000Y-82950000I-100000J0D01*
G01*
X79975000Y-82950000D01*
G75*
G02*
X79875000Y-82850000I0J100000D01*
G01*
G37*
G36*
G01*
X79875000Y-83350000D02*
X79875000Y-83150000D01*
G75*
G02*
X79975000Y-83050000I100000J0D01*
G01*
X81350000Y-83050000D01*
G75*
G02*
X81450000Y-83150000I0J-100000D01*
G01*
X81450000Y-83350000D01*
G75*
G02*
X81350000Y-83450000I-100000J0D01*
G01*
X79975000Y-83450000D01*
G75*
G02*
X79875000Y-83350000I0J100000D01*
G01*
G37*
G36*
G01*
X79050000Y-85350000D02*
X79050000Y-83975000D01*
G75*
G02*
X79150000Y-83875000I100000J0D01*
G01*
X79350000Y-83875000D01*
G75*
G02*
X79450000Y-83975000I0J-100000D01*
G01*
X79450000Y-85350000D01*
G75*
G02*
X79350000Y-85450000I-100000J0D01*
G01*
X79150000Y-85450000D01*
G75*
G02*
X79050000Y-85350000I0J100000D01*
G01*
G37*
G36*
G01*
X78550000Y-85350000D02*
X78550000Y-83975000D01*
G75*
G02*
X78650000Y-83875000I100000J0D01*
G01*
X78850000Y-83875000D01*
G75*
G02*
X78950000Y-83975000I0J-100000D01*
G01*
X78950000Y-85350000D01*
G75*
G02*
X78850000Y-85450000I-100000J0D01*
G01*
X78650000Y-85450000D01*
G75*
G02*
X78550000Y-85350000I0J100000D01*
G01*
G37*
G36*
G01*
X78050000Y-85350000D02*
X78050000Y-83975000D01*
G75*
G02*
X78150000Y-83875000I100000J0D01*
G01*
X78350000Y-83875000D01*
G75*
G02*
X78450000Y-83975000I0J-100000D01*
G01*
X78450000Y-85350000D01*
G75*
G02*
X78350000Y-85450000I-100000J0D01*
G01*
X78150000Y-85450000D01*
G75*
G02*
X78050000Y-85350000I0J100000D01*
G01*
G37*
G36*
G01*
X77550000Y-85350000D02*
X77550000Y-83975000D01*
G75*
G02*
X77650000Y-83875000I100000J0D01*
G01*
X77850000Y-83875000D01*
G75*
G02*
X77950000Y-83975000I0J-100000D01*
G01*
X77950000Y-85350000D01*
G75*
G02*
X77850000Y-85450000I-100000J0D01*
G01*
X77650000Y-85450000D01*
G75*
G02*
X77550000Y-85350000I0J100000D01*
G01*
G37*
G36*
G01*
X77050000Y-85350000D02*
X77050000Y-83975000D01*
G75*
G02*
X77150000Y-83875000I100000J0D01*
G01*
X77350000Y-83875000D01*
G75*
G02*
X77450000Y-83975000I0J-100000D01*
G01*
X77450000Y-85350000D01*
G75*
G02*
X77350000Y-85450000I-100000J0D01*
G01*
X77150000Y-85450000D01*
G75*
G02*
X77050000Y-85350000I0J100000D01*
G01*
G37*
G36*
G01*
X76550000Y-85350000D02*
X76550000Y-83975000D01*
G75*
G02*
X76650000Y-83875000I100000J0D01*
G01*
X76850000Y-83875000D01*
G75*
G02*
X76950000Y-83975000I0J-100000D01*
G01*
X76950000Y-85350000D01*
G75*
G02*
X76850000Y-85450000I-100000J0D01*
G01*
X76650000Y-85450000D01*
G75*
G02*
X76550000Y-85350000I0J100000D01*
G01*
G37*
G36*
G01*
X76050000Y-85350000D02*
X76050000Y-83975000D01*
G75*
G02*
X76150000Y-83875000I100000J0D01*
G01*
X76350000Y-83875000D01*
G75*
G02*
X76450000Y-83975000I0J-100000D01*
G01*
X76450000Y-85350000D01*
G75*
G02*
X76350000Y-85450000I-100000J0D01*
G01*
X76150000Y-85450000D01*
G75*
G02*
X76050000Y-85350000I0J100000D01*
G01*
G37*
G36*
G01*
X75550000Y-85350000D02*
X75550000Y-83975000D01*
G75*
G02*
X75650000Y-83875000I100000J0D01*
G01*
X75850000Y-83875000D01*
G75*
G02*
X75950000Y-83975000I0J-100000D01*
G01*
X75950000Y-85350000D01*
G75*
G02*
X75850000Y-85450000I-100000J0D01*
G01*
X75650000Y-85450000D01*
G75*
G02*
X75550000Y-85350000I0J100000D01*
G01*
G37*
G36*
G01*
X75050000Y-85350000D02*
X75050000Y-83975000D01*
G75*
G02*
X75150000Y-83875000I100000J0D01*
G01*
X75350000Y-83875000D01*
G75*
G02*
X75450000Y-83975000I0J-100000D01*
G01*
X75450000Y-85350000D01*
G75*
G02*
X75350000Y-85450000I-100000J0D01*
G01*
X75150000Y-85450000D01*
G75*
G02*
X75050000Y-85350000I0J100000D01*
G01*
G37*
G36*
G01*
X74550000Y-85350000D02*
X74550000Y-83975000D01*
G75*
G02*
X74650000Y-83875000I100000J0D01*
G01*
X74850000Y-83875000D01*
G75*
G02*
X74950000Y-83975000I0J-100000D01*
G01*
X74950000Y-85350000D01*
G75*
G02*
X74850000Y-85450000I-100000J0D01*
G01*
X74650000Y-85450000D01*
G75*
G02*
X74550000Y-85350000I0J100000D01*
G01*
G37*
G36*
G01*
X74050000Y-85350000D02*
X74050000Y-83975000D01*
G75*
G02*
X74150000Y-83875000I100000J0D01*
G01*
X74350000Y-83875000D01*
G75*
G02*
X74450000Y-83975000I0J-100000D01*
G01*
X74450000Y-85350000D01*
G75*
G02*
X74350000Y-85450000I-100000J0D01*
G01*
X74150000Y-85450000D01*
G75*
G02*
X74050000Y-85350000I0J100000D01*
G01*
G37*
G36*
G01*
X73550000Y-85350000D02*
X73550000Y-83975000D01*
G75*
G02*
X73650000Y-83875000I100000J0D01*
G01*
X73850000Y-83875000D01*
G75*
G02*
X73950000Y-83975000I0J-100000D01*
G01*
X73950000Y-85350000D01*
G75*
G02*
X73850000Y-85450000I-100000J0D01*
G01*
X73650000Y-85450000D01*
G75*
G02*
X73550000Y-85350000I0J100000D01*
G01*
G37*
G36*
G01*
X71550000Y-83350000D02*
X71550000Y-83150000D01*
G75*
G02*
X71650000Y-83050000I100000J0D01*
G01*
X73025000Y-83050000D01*
G75*
G02*
X73125000Y-83150000I0J-100000D01*
G01*
X73125000Y-83350000D01*
G75*
G02*
X73025000Y-83450000I-100000J0D01*
G01*
X71650000Y-83450000D01*
G75*
G02*
X71550000Y-83350000I0J100000D01*
G01*
G37*
G36*
G01*
X71550000Y-82850000D02*
X71550000Y-82650000D01*
G75*
G02*
X71650000Y-82550000I100000J0D01*
G01*
X73025000Y-82550000D01*
G75*
G02*
X73125000Y-82650000I0J-100000D01*
G01*
X73125000Y-82850000D01*
G75*
G02*
X73025000Y-82950000I-100000J0D01*
G01*
X71650000Y-82950000D01*
G75*
G02*
X71550000Y-82850000I0J100000D01*
G01*
G37*
G36*
G01*
X71550000Y-82350000D02*
X71550000Y-82150000D01*
G75*
G02*
X71650000Y-82050000I100000J0D01*
G01*
X73025000Y-82050000D01*
G75*
G02*
X73125000Y-82150000I0J-100000D01*
G01*
X73125000Y-82350000D01*
G75*
G02*
X73025000Y-82450000I-100000J0D01*
G01*
X71650000Y-82450000D01*
G75*
G02*
X71550000Y-82350000I0J100000D01*
G01*
G37*
G36*
G01*
X71550000Y-81850000D02*
X71550000Y-81650000D01*
G75*
G02*
X71650000Y-81550000I100000J0D01*
G01*
X73025000Y-81550000D01*
G75*
G02*
X73125000Y-81650000I0J-100000D01*
G01*
X73125000Y-81850000D01*
G75*
G02*
X73025000Y-81950000I-100000J0D01*
G01*
X71650000Y-81950000D01*
G75*
G02*
X71550000Y-81850000I0J100000D01*
G01*
G37*
G36*
G01*
X71550000Y-81350000D02*
X71550000Y-81150000D01*
G75*
G02*
X71650000Y-81050000I100000J0D01*
G01*
X73025000Y-81050000D01*
G75*
G02*
X73125000Y-81150000I0J-100000D01*
G01*
X73125000Y-81350000D01*
G75*
G02*
X73025000Y-81450000I-100000J0D01*
G01*
X71650000Y-81450000D01*
G75*
G02*
X71550000Y-81350000I0J100000D01*
G01*
G37*
G36*
G01*
X71550000Y-80850000D02*
X71550000Y-80650000D01*
G75*
G02*
X71650000Y-80550000I100000J0D01*
G01*
X73025000Y-80550000D01*
G75*
G02*
X73125000Y-80650000I0J-100000D01*
G01*
X73125000Y-80850000D01*
G75*
G02*
X73025000Y-80950000I-100000J0D01*
G01*
X71650000Y-80950000D01*
G75*
G02*
X71550000Y-80850000I0J100000D01*
G01*
G37*
G36*
G01*
X71550000Y-80350000D02*
X71550000Y-80150000D01*
G75*
G02*
X71650000Y-80050000I100000J0D01*
G01*
X73025000Y-80050000D01*
G75*
G02*
X73125000Y-80150000I0J-100000D01*
G01*
X73125000Y-80350000D01*
G75*
G02*
X73025000Y-80450000I-100000J0D01*
G01*
X71650000Y-80450000D01*
G75*
G02*
X71550000Y-80350000I0J100000D01*
G01*
G37*
G36*
G01*
X71550000Y-79850000D02*
X71550000Y-79650000D01*
G75*
G02*
X71650000Y-79550000I100000J0D01*
G01*
X73025000Y-79550000D01*
G75*
G02*
X73125000Y-79650000I0J-100000D01*
G01*
X73125000Y-79850000D01*
G75*
G02*
X73025000Y-79950000I-100000J0D01*
G01*
X71650000Y-79950000D01*
G75*
G02*
X71550000Y-79850000I0J100000D01*
G01*
G37*
G36*
G01*
X71550000Y-79350000D02*
X71550000Y-79150000D01*
G75*
G02*
X71650000Y-79050000I100000J0D01*
G01*
X73025000Y-79050000D01*
G75*
G02*
X73125000Y-79150000I0J-100000D01*
G01*
X73125000Y-79350000D01*
G75*
G02*
X73025000Y-79450000I-100000J0D01*
G01*
X71650000Y-79450000D01*
G75*
G02*
X71550000Y-79350000I0J100000D01*
G01*
G37*
G36*
G01*
X71550000Y-78850000D02*
X71550000Y-78650000D01*
G75*
G02*
X71650000Y-78550000I100000J0D01*
G01*
X73025000Y-78550000D01*
G75*
G02*
X73125000Y-78650000I0J-100000D01*
G01*
X73125000Y-78850000D01*
G75*
G02*
X73025000Y-78950000I-100000J0D01*
G01*
X71650000Y-78950000D01*
G75*
G02*
X71550000Y-78850000I0J100000D01*
G01*
G37*
G36*
G01*
X71550000Y-78350000D02*
X71550000Y-78150000D01*
G75*
G02*
X71650000Y-78050000I100000J0D01*
G01*
X73025000Y-78050000D01*
G75*
G02*
X73125000Y-78150000I0J-100000D01*
G01*
X73125000Y-78350000D01*
G75*
G02*
X73025000Y-78450000I-100000J0D01*
G01*
X71650000Y-78450000D01*
G75*
G02*
X71550000Y-78350000I0J100000D01*
G01*
G37*
G36*
G01*
X71550000Y-77850000D02*
X71550000Y-77650000D01*
G75*
G02*
X71650000Y-77550000I100000J0D01*
G01*
X73025000Y-77550000D01*
G75*
G02*
X73125000Y-77650000I0J-100000D01*
G01*
X73125000Y-77850000D01*
G75*
G02*
X73025000Y-77950000I-100000J0D01*
G01*
X71650000Y-77950000D01*
G75*
G02*
X71550000Y-77850000I0J100000D01*
G01*
G37*
%TD*%
D19*
%TO.C,U1*%
X88800000Y-85850000D03*
X84200000Y-85850000D03*
X86500000Y-85850000D03*
D20*
X86500000Y-92150000D03*
%TD*%
%TO.C,R5*%
G36*
G01*
X71140000Y-91197500D02*
X71140000Y-90802500D01*
G75*
G02*
X71312500Y-90630000I172500J0D01*
G01*
X71657500Y-90630000D01*
G75*
G02*
X71830000Y-90802500I0J-172500D01*
G01*
X71830000Y-91197500D01*
G75*
G02*
X71657500Y-91370000I-172500J0D01*
G01*
X71312500Y-91370000D01*
G75*
G02*
X71140000Y-91197500I0J172500D01*
G01*
G37*
G36*
G01*
X70170000Y-91197500D02*
X70170000Y-90802500D01*
G75*
G02*
X70342500Y-90630000I172500J0D01*
G01*
X70687500Y-90630000D01*
G75*
G02*
X70860000Y-90802500I0J-172500D01*
G01*
X70860000Y-91197500D01*
G75*
G02*
X70687500Y-91370000I-172500J0D01*
G01*
X70342500Y-91370000D01*
G75*
G02*
X70170000Y-91197500I0J172500D01*
G01*
G37*
%TD*%
%TO.C,R4*%
G36*
G01*
X68360000Y-90802500D02*
X68360000Y-91197500D01*
G75*
G02*
X68187500Y-91370000I-172500J0D01*
G01*
X67842500Y-91370000D01*
G75*
G02*
X67670000Y-91197500I0J172500D01*
G01*
X67670000Y-90802500D01*
G75*
G02*
X67842500Y-90630000I172500J0D01*
G01*
X68187500Y-90630000D01*
G75*
G02*
X68360000Y-90802500I0J-172500D01*
G01*
G37*
G36*
G01*
X69330000Y-90802500D02*
X69330000Y-91197500D01*
G75*
G02*
X69157500Y-91370000I-172500J0D01*
G01*
X68812500Y-91370000D01*
G75*
G02*
X68640000Y-91197500I0J172500D01*
G01*
X68640000Y-90802500D01*
G75*
G02*
X68812500Y-90630000I172500J0D01*
G01*
X69157500Y-90630000D01*
G75*
G02*
X69330000Y-90802500I0J-172500D01*
G01*
G37*
%TD*%
%TO.C,R3*%
G36*
G01*
X86552500Y-78890000D02*
X86947500Y-78890000D01*
G75*
G02*
X87120000Y-79062500I0J-172500D01*
G01*
X87120000Y-79407500D01*
G75*
G02*
X86947500Y-79580000I-172500J0D01*
G01*
X86552500Y-79580000D01*
G75*
G02*
X86380000Y-79407500I0J172500D01*
G01*
X86380000Y-79062500D01*
G75*
G02*
X86552500Y-78890000I172500J0D01*
G01*
G37*
G36*
G01*
X86552500Y-77920000D02*
X86947500Y-77920000D01*
G75*
G02*
X87120000Y-78092500I0J-172500D01*
G01*
X87120000Y-78437500D01*
G75*
G02*
X86947500Y-78610000I-172500J0D01*
G01*
X86552500Y-78610000D01*
G75*
G02*
X86380000Y-78437500I0J172500D01*
G01*
X86380000Y-78092500D01*
G75*
G02*
X86552500Y-77920000I172500J0D01*
G01*
G37*
%TD*%
%TO.C,R2*%
G36*
G01*
X61052500Y-75140000D02*
X61447500Y-75140000D01*
G75*
G02*
X61620000Y-75312500I0J-172500D01*
G01*
X61620000Y-75657500D01*
G75*
G02*
X61447500Y-75830000I-172500J0D01*
G01*
X61052500Y-75830000D01*
G75*
G02*
X60880000Y-75657500I0J172500D01*
G01*
X60880000Y-75312500D01*
G75*
G02*
X61052500Y-75140000I172500J0D01*
G01*
G37*
G36*
G01*
X61052500Y-74170000D02*
X61447500Y-74170000D01*
G75*
G02*
X61620000Y-74342500I0J-172500D01*
G01*
X61620000Y-74687500D01*
G75*
G02*
X61447500Y-74860000I-172500J0D01*
G01*
X61052500Y-74860000D01*
G75*
G02*
X60880000Y-74687500I0J172500D01*
G01*
X60880000Y-74342500D01*
G75*
G02*
X61052500Y-74170000I172500J0D01*
G01*
G37*
%TD*%
%TO.C,R1*%
G36*
G01*
X95640000Y-85697500D02*
X95640000Y-85302500D01*
G75*
G02*
X95812500Y-85130000I172500J0D01*
G01*
X96157500Y-85130000D01*
G75*
G02*
X96330000Y-85302500I0J-172500D01*
G01*
X96330000Y-85697500D01*
G75*
G02*
X96157500Y-85870000I-172500J0D01*
G01*
X95812500Y-85870000D01*
G75*
G02*
X95640000Y-85697500I0J172500D01*
G01*
G37*
G36*
G01*
X94670000Y-85697500D02*
X94670000Y-85302500D01*
G75*
G02*
X94842500Y-85130000I172500J0D01*
G01*
X95187500Y-85130000D01*
G75*
G02*
X95360000Y-85302500I0J-172500D01*
G01*
X95360000Y-85697500D01*
G75*
G02*
X95187500Y-85870000I-172500J0D01*
G01*
X94842500Y-85870000D01*
G75*
G02*
X94670000Y-85697500I0J172500D01*
G01*
G37*
%TD*%
D21*
%TO.C,J4*%
X80120000Y-95000000D03*
X77580000Y-95000000D03*
X75040000Y-95000000D03*
D22*
X72500000Y-95000000D03*
%TD*%
D21*
%TO.C,J3*%
X79380000Y-65750000D03*
X81920000Y-65750000D03*
X84460000Y-65750000D03*
D22*
X87000000Y-65750000D03*
%TD*%
D21*
%TO.C,J2*%
X72370000Y-65750000D03*
X69830000Y-65750000D03*
X67290000Y-65750000D03*
D22*
X64750000Y-65750000D03*
%TD*%
%TO.C,FB1*%
G36*
G01*
X72281250Y-86200000D02*
X71718750Y-86200000D01*
G75*
G02*
X71475000Y-85956250I0J243750D01*
G01*
X71475000Y-85468750D01*
G75*
G02*
X71718750Y-85225000I243750J0D01*
G01*
X72281250Y-85225000D01*
G75*
G02*
X72525000Y-85468750I0J-243750D01*
G01*
X72525000Y-85956250D01*
G75*
G02*
X72281250Y-86200000I-243750J0D01*
G01*
G37*
G36*
G01*
X72281250Y-87775000D02*
X71718750Y-87775000D01*
G75*
G02*
X71475000Y-87531250I0J243750D01*
G01*
X71475000Y-87043750D01*
G75*
G02*
X71718750Y-86800000I243750J0D01*
G01*
X72281250Y-86800000D01*
G75*
G02*
X72525000Y-87043750I0J-243750D01*
G01*
X72525000Y-87531250D01*
G75*
G02*
X72281250Y-87775000I-243750J0D01*
G01*
G37*
%TD*%
%TO.C,D1*%
G36*
G01*
X94718750Y-88300000D02*
X95281250Y-88300000D01*
G75*
G02*
X95525000Y-88543750I0J-243750D01*
G01*
X95525000Y-89031250D01*
G75*
G02*
X95281250Y-89275000I-243750J0D01*
G01*
X94718750Y-89275000D01*
G75*
G02*
X94475000Y-89031250I0J243750D01*
G01*
X94475000Y-88543750D01*
G75*
G02*
X94718750Y-88300000I243750J0D01*
G01*
G37*
G36*
G01*
X94718750Y-86725000D02*
X95281250Y-86725000D01*
G75*
G02*
X95525000Y-86968750I0J-243750D01*
G01*
X95525000Y-87456250D01*
G75*
G02*
X95281250Y-87700000I-243750J0D01*
G01*
X94718750Y-87700000D01*
G75*
G02*
X94475000Y-87456250I0J243750D01*
G01*
X94475000Y-86968750D01*
G75*
G02*
X94718750Y-86725000I243750J0D01*
G01*
G37*
%TD*%
%TO.C,C13*%
G36*
G01*
X67697500Y-81860000D02*
X67302500Y-81860000D01*
G75*
G02*
X67130000Y-81687500I0J172500D01*
G01*
X67130000Y-81342500D01*
G75*
G02*
X67302500Y-81170000I172500J0D01*
G01*
X67697500Y-81170000D01*
G75*
G02*
X67870000Y-81342500I0J-172500D01*
G01*
X67870000Y-81687500D01*
G75*
G02*
X67697500Y-81860000I-172500J0D01*
G01*
G37*
G36*
G01*
X67697500Y-82830000D02*
X67302500Y-82830000D01*
G75*
G02*
X67130000Y-82657500I0J172500D01*
G01*
X67130000Y-82312500D01*
G75*
G02*
X67302500Y-82140000I172500J0D01*
G01*
X67697500Y-82140000D01*
G75*
G02*
X67870000Y-82312500I0J-172500D01*
G01*
X67870000Y-82657500D01*
G75*
G02*
X67697500Y-82830000I-172500J0D01*
G01*
G37*
%TD*%
%TO.C,C12*%
G36*
G01*
X67947500Y-77360000D02*
X67552500Y-77360000D01*
G75*
G02*
X67380000Y-77187500I0J172500D01*
G01*
X67380000Y-76842500D01*
G75*
G02*
X67552500Y-76670000I172500J0D01*
G01*
X67947500Y-76670000D01*
G75*
G02*
X68120000Y-76842500I0J-172500D01*
G01*
X68120000Y-77187500D01*
G75*
G02*
X67947500Y-77360000I-172500J0D01*
G01*
G37*
G36*
G01*
X67947500Y-78330000D02*
X67552500Y-78330000D01*
G75*
G02*
X67380000Y-78157500I0J172500D01*
G01*
X67380000Y-77812500D01*
G75*
G02*
X67552500Y-77640000I172500J0D01*
G01*
X67947500Y-77640000D01*
G75*
G02*
X68120000Y-77812500I0J-172500D01*
G01*
X68120000Y-78157500D01*
G75*
G02*
X67947500Y-78330000I-172500J0D01*
G01*
G37*
%TD*%
%TO.C,C11*%
G36*
G01*
X75140000Y-86697500D02*
X75140000Y-86302500D01*
G75*
G02*
X75312500Y-86130000I172500J0D01*
G01*
X75657500Y-86130000D01*
G75*
G02*
X75830000Y-86302500I0J-172500D01*
G01*
X75830000Y-86697500D01*
G75*
G02*
X75657500Y-86870000I-172500J0D01*
G01*
X75312500Y-86870000D01*
G75*
G02*
X75140000Y-86697500I0J172500D01*
G01*
G37*
G36*
G01*
X74170000Y-86697500D02*
X74170000Y-86302500D01*
G75*
G02*
X74342500Y-86130000I172500J0D01*
G01*
X74687500Y-86130000D01*
G75*
G02*
X74860000Y-86302500I0J-172500D01*
G01*
X74860000Y-86697500D01*
G75*
G02*
X74687500Y-86870000I-172500J0D01*
G01*
X74342500Y-86870000D01*
G75*
G02*
X74170000Y-86697500I0J172500D01*
G01*
G37*
%TD*%
%TO.C,C10*%
G36*
G01*
X69860000Y-86802500D02*
X69860000Y-87197500D01*
G75*
G02*
X69687500Y-87370000I-172500J0D01*
G01*
X69342500Y-87370000D01*
G75*
G02*
X69170000Y-87197500I0J172500D01*
G01*
X69170000Y-86802500D01*
G75*
G02*
X69342500Y-86630000I172500J0D01*
G01*
X69687500Y-86630000D01*
G75*
G02*
X69860000Y-86802500I0J-172500D01*
G01*
G37*
G36*
G01*
X70830000Y-86802500D02*
X70830000Y-87197500D01*
G75*
G02*
X70657500Y-87370000I-172500J0D01*
G01*
X70312500Y-87370000D01*
G75*
G02*
X70140000Y-87197500I0J172500D01*
G01*
X70140000Y-86802500D01*
G75*
G02*
X70312500Y-86630000I172500J0D01*
G01*
X70657500Y-86630000D01*
G75*
G02*
X70830000Y-86802500I0J-172500D01*
G01*
G37*
%TD*%
%TO.C,C9*%
G36*
G01*
X69860000Y-85302500D02*
X69860000Y-85697500D01*
G75*
G02*
X69687500Y-85870000I-172500J0D01*
G01*
X69342500Y-85870000D01*
G75*
G02*
X69170000Y-85697500I0J172500D01*
G01*
X69170000Y-85302500D01*
G75*
G02*
X69342500Y-85130000I172500J0D01*
G01*
X69687500Y-85130000D01*
G75*
G02*
X69860000Y-85302500I0J-172500D01*
G01*
G37*
G36*
G01*
X70830000Y-85302500D02*
X70830000Y-85697500D01*
G75*
G02*
X70657500Y-85870000I-172500J0D01*
G01*
X70312500Y-85870000D01*
G75*
G02*
X70140000Y-85697500I0J172500D01*
G01*
X70140000Y-85302500D01*
G75*
G02*
X70312500Y-85130000I172500J0D01*
G01*
X70657500Y-85130000D01*
G75*
G02*
X70830000Y-85302500I0J-172500D01*
G01*
G37*
%TD*%
%TO.C,C8*%
G36*
G01*
X70697500Y-81360000D02*
X70302500Y-81360000D01*
G75*
G02*
X70130000Y-81187500I0J172500D01*
G01*
X70130000Y-80842500D01*
G75*
G02*
X70302500Y-80670000I172500J0D01*
G01*
X70697500Y-80670000D01*
G75*
G02*
X70870000Y-80842500I0J-172500D01*
G01*
X70870000Y-81187500D01*
G75*
G02*
X70697500Y-81360000I-172500J0D01*
G01*
G37*
G36*
G01*
X70697500Y-82330000D02*
X70302500Y-82330000D01*
G75*
G02*
X70130000Y-82157500I0J172500D01*
G01*
X70130000Y-81812500D01*
G75*
G02*
X70302500Y-81640000I172500J0D01*
G01*
X70697500Y-81640000D01*
G75*
G02*
X70870000Y-81812500I0J-172500D01*
G01*
X70870000Y-82157500D01*
G75*
G02*
X70697500Y-82330000I-172500J0D01*
G01*
G37*
%TD*%
%TO.C,C7*%
G36*
G01*
X74140000Y-74697500D02*
X74140000Y-74302500D01*
G75*
G02*
X74312500Y-74130000I172500J0D01*
G01*
X74657500Y-74130000D01*
G75*
G02*
X74830000Y-74302500I0J-172500D01*
G01*
X74830000Y-74697500D01*
G75*
G02*
X74657500Y-74870000I-172500J0D01*
G01*
X74312500Y-74870000D01*
G75*
G02*
X74140000Y-74697500I0J172500D01*
G01*
G37*
G36*
G01*
X73170000Y-74697500D02*
X73170000Y-74302500D01*
G75*
G02*
X73342500Y-74130000I172500J0D01*
G01*
X73687500Y-74130000D01*
G75*
G02*
X73860000Y-74302500I0J-172500D01*
G01*
X73860000Y-74697500D01*
G75*
G02*
X73687500Y-74870000I-172500J0D01*
G01*
X73342500Y-74870000D01*
G75*
G02*
X73170000Y-74697500I0J172500D01*
G01*
G37*
%TD*%
%TO.C,C6*%
G36*
G01*
X82302500Y-78140000D02*
X82697500Y-78140000D01*
G75*
G02*
X82870000Y-78312500I0J-172500D01*
G01*
X82870000Y-78657500D01*
G75*
G02*
X82697500Y-78830000I-172500J0D01*
G01*
X82302500Y-78830000D01*
G75*
G02*
X82130000Y-78657500I0J172500D01*
G01*
X82130000Y-78312500D01*
G75*
G02*
X82302500Y-78140000I172500J0D01*
G01*
G37*
G36*
G01*
X82302500Y-77170000D02*
X82697500Y-77170000D01*
G75*
G02*
X82870000Y-77342500I0J-172500D01*
G01*
X82870000Y-77687500D01*
G75*
G02*
X82697500Y-77860000I-172500J0D01*
G01*
X82302500Y-77860000D01*
G75*
G02*
X82130000Y-77687500I0J172500D01*
G01*
X82130000Y-77342500D01*
G75*
G02*
X82302500Y-77170000I172500J0D01*
G01*
G37*
%TD*%
%TO.C,C5*%
G36*
G01*
X79610000Y-86302500D02*
X79610000Y-86697500D01*
G75*
G02*
X79437500Y-86870000I-172500J0D01*
G01*
X79092500Y-86870000D01*
G75*
G02*
X78920000Y-86697500I0J172500D01*
G01*
X78920000Y-86302500D01*
G75*
G02*
X79092500Y-86130000I172500J0D01*
G01*
X79437500Y-86130000D01*
G75*
G02*
X79610000Y-86302500I0J-172500D01*
G01*
G37*
G36*
G01*
X80580000Y-86302500D02*
X80580000Y-86697500D01*
G75*
G02*
X80407500Y-86870000I-172500J0D01*
G01*
X80062500Y-86870000D01*
G75*
G02*
X79890000Y-86697500I0J172500D01*
G01*
X79890000Y-86302500D01*
G75*
G02*
X80062500Y-86130000I172500J0D01*
G01*
X80407500Y-86130000D01*
G75*
G02*
X80580000Y-86302500I0J-172500D01*
G01*
G37*
%TD*%
%TO.C,C4*%
G36*
G01*
X70697500Y-77110000D02*
X70302500Y-77110000D01*
G75*
G02*
X70130000Y-76937500I0J172500D01*
G01*
X70130000Y-76592500D01*
G75*
G02*
X70302500Y-76420000I172500J0D01*
G01*
X70697500Y-76420000D01*
G75*
G02*
X70870000Y-76592500I0J-172500D01*
G01*
X70870000Y-76937500D01*
G75*
G02*
X70697500Y-77110000I-172500J0D01*
G01*
G37*
G36*
G01*
X70697500Y-78080000D02*
X70302500Y-78080000D01*
G75*
G02*
X70130000Y-77907500I0J172500D01*
G01*
X70130000Y-77562500D01*
G75*
G02*
X70302500Y-77390000I172500J0D01*
G01*
X70697500Y-77390000D01*
G75*
G02*
X70870000Y-77562500I0J-172500D01*
G01*
X70870000Y-77907500D01*
G75*
G02*
X70697500Y-78080000I-172500J0D01*
G01*
G37*
%TD*%
%TO.C,C3*%
G36*
G01*
X74800000Y-73031250D02*
X74800000Y-72468750D01*
G75*
G02*
X75043750Y-72225000I243750J0D01*
G01*
X75531250Y-72225000D01*
G75*
G02*
X75775000Y-72468750I0J-243750D01*
G01*
X75775000Y-73031250D01*
G75*
G02*
X75531250Y-73275000I-243750J0D01*
G01*
X75043750Y-73275000D01*
G75*
G02*
X74800000Y-73031250I0J243750D01*
G01*
G37*
G36*
G01*
X73225000Y-73031250D02*
X73225000Y-72468750D01*
G75*
G02*
X73468750Y-72225000I243750J0D01*
G01*
X73956250Y-72225000D01*
G75*
G02*
X74200000Y-72468750I0J-243750D01*
G01*
X74200000Y-73031250D01*
G75*
G02*
X73956250Y-73275000I-243750J0D01*
G01*
X73468750Y-73275000D01*
G75*
G02*
X73225000Y-73031250I0J243750D01*
G01*
G37*
%TD*%
%TO.C,C2*%
G36*
G01*
X91981250Y-88600000D02*
X91018750Y-88600000D01*
G75*
G02*
X90750000Y-88331250I0J268750D01*
G01*
X90750000Y-87793750D01*
G75*
G02*
X91018750Y-87525000I268750J0D01*
G01*
X91981250Y-87525000D01*
G75*
G02*
X92250000Y-87793750I0J-268750D01*
G01*
X92250000Y-88331250D01*
G75*
G02*
X91981250Y-88600000I-268750J0D01*
G01*
G37*
G36*
G01*
X91981250Y-90475000D02*
X91018750Y-90475000D01*
G75*
G02*
X90750000Y-90206250I0J268750D01*
G01*
X90750000Y-89668750D01*
G75*
G02*
X91018750Y-89400000I268750J0D01*
G01*
X91981250Y-89400000D01*
G75*
G02*
X92250000Y-89668750I0J-268750D01*
G01*
X92250000Y-90206250D01*
G75*
G02*
X91981250Y-90475000I-268750J0D01*
G01*
G37*
%TD*%
%TO.C,C1*%
G36*
G01*
X86400000Y-83981250D02*
X86400000Y-83018750D01*
G75*
G02*
X86668750Y-82750000I268750J0D01*
G01*
X87206250Y-82750000D01*
G75*
G02*
X87475000Y-83018750I0J-268750D01*
G01*
X87475000Y-83981250D01*
G75*
G02*
X87206250Y-84250000I-268750J0D01*
G01*
X86668750Y-84250000D01*
G75*
G02*
X86400000Y-83981250I0J268750D01*
G01*
G37*
G36*
G01*
X84525000Y-83981250D02*
X84525000Y-83018750D01*
G75*
G02*
X84793750Y-82750000I268750J0D01*
G01*
X85331250Y-82750000D01*
G75*
G02*
X85600000Y-83018750I0J-268750D01*
G01*
X85600000Y-83981250D01*
G75*
G02*
X85331250Y-84250000I-268750J0D01*
G01*
X84793750Y-84250000D01*
G75*
G02*
X84525000Y-83981250I0J268750D01*
G01*
G37*
%TD*%
M02*
