%TF.GenerationSoftware,KiCad,Pcbnew,(5.1.6)-1*%
%TF.CreationDate,2022-03-08T04:09:40+09:00*%
%TF.ProjectId,STM32-project,53544d33-322d-4707-926f-6a6563742e6b,rev?*%
%TF.SameCoordinates,Original*%
%TF.FileFunction,Copper,L2,Bot*%
%TF.FilePolarity,Positive*%
%FSLAX46Y46*%
G04 Gerber Fmt 4.6, Leading zero omitted, Abs format (unit mm)*
G04 Created by KiCad (PCBNEW (5.1.6)-1) date 2022-03-08 04:09:40*
%MOMM*%
%LPD*%
G01*
G04 APERTURE LIST*
%TA.AperFunction,ComponentPad*%
%ADD10O,1.800000X1.150000*%
%TD*%
%TA.AperFunction,ComponentPad*%
%ADD11O,2.000000X1.450000*%
%TD*%
%TA.AperFunction,ComponentPad*%
%ADD12O,1.700000X1.700000*%
%TD*%
%TA.AperFunction,ComponentPad*%
%ADD13R,1.700000X1.700000*%
%TD*%
%TA.AperFunction,ViaPad*%
%ADD14C,0.700000*%
%TD*%
%TA.AperFunction,Conductor*%
%ADD15C,0.500000*%
%TD*%
%TA.AperFunction,Conductor*%
%ADD16C,0.250000*%
%TD*%
G04 APERTURE END LIST*
D10*
%TO.P,J1,6*%
%TO.N,Net-(J1-Pad6)*%
X98450000Y-75625000D03*
X98450000Y-83375000D03*
D11*
X94650000Y-75775000D03*
X94650000Y-83225000D03*
%TD*%
D12*
%TO.P,J4,4*%
%TO.N,GND*%
X80120000Y-95000000D03*
%TO.P,J4,3*%
%TO.N,/I2C2_SDA*%
X77580000Y-95000000D03*
%TO.P,J4,2*%
%TO.N,/I2C2_SCL*%
X75040000Y-95000000D03*
D13*
%TO.P,J4,1*%
%TO.N,+3V3*%
X72500000Y-95000000D03*
%TD*%
D12*
%TO.P,J3,4*%
%TO.N,GND*%
X79380000Y-65750000D03*
%TO.P,J3,3*%
%TO.N,/SWCLK*%
X81920000Y-65750000D03*
%TO.P,J3,2*%
%TO.N,/SWDI0*%
X84460000Y-65750000D03*
D13*
%TO.P,J3,1*%
%TO.N,+3V3*%
X87000000Y-65750000D03*
%TD*%
D12*
%TO.P,J2,4*%
%TO.N,+3V3*%
X72370000Y-65750000D03*
%TO.P,J2,3*%
%TO.N,/USART1_TX*%
X69830000Y-65750000D03*
%TO.P,J2,2*%
%TO.N,/USART1_RX*%
X67290000Y-65750000D03*
D13*
%TO.P,J2,1*%
%TO.N,GND*%
X64750000Y-65750000D03*
%TD*%
D14*
%TO.N,GND*%
X70500000Y-76000000D03*
X78750000Y-83250000D03*
X73750000Y-81250000D03*
X76250000Y-86500000D03*
X69515000Y-87985000D03*
X59250000Y-71750000D03*
X93550000Y-78200000D03*
X83250000Y-78625000D03*
X96750000Y-85500000D03*
X65950000Y-75800000D03*
X68750000Y-85500000D03*
X68235000Y-81515000D03*
X67750000Y-76250000D03*
X92750000Y-88000000D03*
X89250000Y-87500000D03*
X88250000Y-87500000D03*
X88500000Y-83000000D03*
X88500000Y-84000000D03*
X63550000Y-83450000D03*
X75000000Y-71750000D03*
%TO.N,+3V3*%
X75500000Y-91750000D03*
X73250000Y-91750000D03*
X69717475Y-92032525D03*
X69717475Y-92032525D03*
X67760050Y-92055000D03*
X70000000Y-75000000D03*
X71000000Y-74000000D03*
%TD*%
D15*
%TO.N,+3V3*%
X74750000Y-91750000D02*
X75500000Y-91750000D01*
X74750000Y-91750000D02*
X73250000Y-91750000D01*
X69717475Y-92032525D02*
X67782525Y-92032525D01*
X67782525Y-92032525D02*
X67760050Y-92055000D01*
X70000000Y-75000000D02*
X71000000Y-74000000D01*
%TD*%
D16*
%TO.N,GND*%
G36*
X97994876Y-64000681D02*
G01*
X98470906Y-64144403D01*
X98909957Y-64377850D01*
X99295296Y-64692125D01*
X99612258Y-65075266D01*
X99848761Y-65512670D01*
X99995803Y-65987684D01*
X100050001Y-66503344D01*
X100050000Y-94227995D01*
X99999319Y-94744876D01*
X99855596Y-95220910D01*
X99622152Y-95659954D01*
X99307875Y-96045296D01*
X98924735Y-96362257D01*
X98487329Y-96598761D01*
X98012316Y-96745803D01*
X97496664Y-96800000D01*
X58022005Y-96800000D01*
X57505124Y-96749319D01*
X57029090Y-96605596D01*
X56590046Y-96372152D01*
X56204704Y-96057875D01*
X55887743Y-95674735D01*
X55651239Y-95237329D01*
X55504197Y-94762316D01*
X55450000Y-94246664D01*
X55450000Y-94099801D01*
X56475000Y-94099801D01*
X56475000Y-94400199D01*
X56533605Y-94694826D01*
X56648562Y-94972358D01*
X56815455Y-95222131D01*
X57027869Y-95434545D01*
X57277642Y-95601438D01*
X57555174Y-95716395D01*
X57849801Y-95775000D01*
X58150199Y-95775000D01*
X58444826Y-95716395D01*
X58722358Y-95601438D01*
X58972131Y-95434545D01*
X59184545Y-95222131D01*
X59351438Y-94972358D01*
X59466395Y-94694826D01*
X59525000Y-94400199D01*
X59525000Y-94150000D01*
X71222944Y-94150000D01*
X71222944Y-95850000D01*
X71231150Y-95933314D01*
X71255452Y-96013427D01*
X71294916Y-96087260D01*
X71348026Y-96151974D01*
X71412740Y-96205084D01*
X71486573Y-96244548D01*
X71566686Y-96268850D01*
X71650000Y-96277056D01*
X73350000Y-96277056D01*
X73433314Y-96268850D01*
X73513427Y-96244548D01*
X73587260Y-96205084D01*
X73651974Y-96151974D01*
X73705084Y-96087260D01*
X73744548Y-96013427D01*
X73768850Y-95933314D01*
X73777056Y-95850000D01*
X73777056Y-95186186D01*
X73813998Y-95371904D01*
X73910110Y-95603939D01*
X74049643Y-95812765D01*
X74227235Y-95990357D01*
X74436061Y-96129890D01*
X74668096Y-96226002D01*
X74914423Y-96275000D01*
X75165577Y-96275000D01*
X75411904Y-96226002D01*
X75643939Y-96129890D01*
X75852765Y-95990357D01*
X76030357Y-95812765D01*
X76169890Y-95603939D01*
X76266002Y-95371904D01*
X76310000Y-95150713D01*
X76353998Y-95371904D01*
X76450110Y-95603939D01*
X76589643Y-95812765D01*
X76767235Y-95990357D01*
X76976061Y-96129890D01*
X77208096Y-96226002D01*
X77454423Y-96275000D01*
X77705577Y-96275000D01*
X77951904Y-96226002D01*
X78183939Y-96129890D01*
X78392765Y-95990357D01*
X78570357Y-95812765D01*
X78709890Y-95603939D01*
X78745873Y-95517067D01*
X78784406Y-95625962D01*
X78932188Y-95874496D01*
X79125617Y-96089423D01*
X79357260Y-96262485D01*
X79618214Y-96387030D01*
X79766628Y-96432045D01*
X79995000Y-96312812D01*
X79995000Y-95125000D01*
X80245000Y-95125000D01*
X80245000Y-96312812D01*
X80473372Y-96432045D01*
X80621786Y-96387030D01*
X80882740Y-96262485D01*
X81114383Y-96089423D01*
X81307812Y-95874496D01*
X81455594Y-95625962D01*
X81552050Y-95353373D01*
X81433449Y-95125000D01*
X80245000Y-95125000D01*
X79995000Y-95125000D01*
X79975000Y-95125000D01*
X79975000Y-94875000D01*
X79995000Y-94875000D01*
X79995000Y-93687188D01*
X80245000Y-93687188D01*
X80245000Y-94875000D01*
X81433449Y-94875000D01*
X81552050Y-94646627D01*
X81455594Y-94374038D01*
X81307812Y-94125504D01*
X81284680Y-94099801D01*
X95975000Y-94099801D01*
X95975000Y-94400199D01*
X96033605Y-94694826D01*
X96148562Y-94972358D01*
X96315455Y-95222131D01*
X96527869Y-95434545D01*
X96777642Y-95601438D01*
X97055174Y-95716395D01*
X97349801Y-95775000D01*
X97650199Y-95775000D01*
X97944826Y-95716395D01*
X98222358Y-95601438D01*
X98472131Y-95434545D01*
X98684545Y-95222131D01*
X98851438Y-94972358D01*
X98966395Y-94694826D01*
X99025000Y-94400199D01*
X99025000Y-94099801D01*
X98966395Y-93805174D01*
X98851438Y-93527642D01*
X98684545Y-93277869D01*
X98472131Y-93065455D01*
X98222358Y-92898562D01*
X97944826Y-92783605D01*
X97650199Y-92725000D01*
X97349801Y-92725000D01*
X97055174Y-92783605D01*
X96777642Y-92898562D01*
X96527869Y-93065455D01*
X96315455Y-93277869D01*
X96148562Y-93527642D01*
X96033605Y-93805174D01*
X95975000Y-94099801D01*
X81284680Y-94099801D01*
X81114383Y-93910577D01*
X80882740Y-93737515D01*
X80621786Y-93612970D01*
X80473372Y-93567955D01*
X80245000Y-93687188D01*
X79995000Y-93687188D01*
X79766628Y-93567955D01*
X79618214Y-93612970D01*
X79357260Y-93737515D01*
X79125617Y-93910577D01*
X78932188Y-94125504D01*
X78784406Y-94374038D01*
X78745873Y-94482933D01*
X78709890Y-94396061D01*
X78570357Y-94187235D01*
X78392765Y-94009643D01*
X78183939Y-93870110D01*
X77951904Y-93773998D01*
X77705577Y-93725000D01*
X77454423Y-93725000D01*
X77208096Y-93773998D01*
X76976061Y-93870110D01*
X76767235Y-94009643D01*
X76589643Y-94187235D01*
X76450110Y-94396061D01*
X76353998Y-94628096D01*
X76310000Y-94849287D01*
X76266002Y-94628096D01*
X76169890Y-94396061D01*
X76030357Y-94187235D01*
X75852765Y-94009643D01*
X75643939Y-93870110D01*
X75411904Y-93773998D01*
X75165577Y-93725000D01*
X74914423Y-93725000D01*
X74668096Y-93773998D01*
X74436061Y-93870110D01*
X74227235Y-94009643D01*
X74049643Y-94187235D01*
X73910110Y-94396061D01*
X73813998Y-94628096D01*
X73777056Y-94813814D01*
X73777056Y-94150000D01*
X73768850Y-94066686D01*
X73744548Y-93986573D01*
X73705084Y-93912740D01*
X73651974Y-93848026D01*
X73587260Y-93794916D01*
X73513427Y-93755452D01*
X73433314Y-93731150D01*
X73350000Y-93722944D01*
X71650000Y-93722944D01*
X71566686Y-93731150D01*
X71486573Y-93755452D01*
X71412740Y-93794916D01*
X71348026Y-93848026D01*
X71294916Y-93912740D01*
X71255452Y-93986573D01*
X71231150Y-94066686D01*
X71222944Y-94150000D01*
X59525000Y-94150000D01*
X59525000Y-94099801D01*
X59466395Y-93805174D01*
X59351438Y-93527642D01*
X59184545Y-93277869D01*
X58972131Y-93065455D01*
X58722358Y-92898562D01*
X58444826Y-92783605D01*
X58150199Y-92725000D01*
X57849801Y-92725000D01*
X57555174Y-92783605D01*
X57277642Y-92898562D01*
X57027869Y-93065455D01*
X56815455Y-93277869D01*
X56648562Y-93527642D01*
X56533605Y-93805174D01*
X56475000Y-94099801D01*
X55450000Y-94099801D01*
X55450000Y-91978669D01*
X66985050Y-91978669D01*
X66985050Y-92131331D01*
X67014833Y-92281059D01*
X67073254Y-92422100D01*
X67158068Y-92549034D01*
X67266016Y-92656982D01*
X67392950Y-92741796D01*
X67533991Y-92800217D01*
X67683719Y-92830000D01*
X67836381Y-92830000D01*
X67986109Y-92800217D01*
X68127150Y-92741796D01*
X68178441Y-92707525D01*
X69332721Y-92707525D01*
X69350375Y-92719321D01*
X69491416Y-92777742D01*
X69641144Y-92807525D01*
X69793806Y-92807525D01*
X69943534Y-92777742D01*
X70084575Y-92719321D01*
X70211509Y-92634507D01*
X70319457Y-92526559D01*
X70404271Y-92399625D01*
X70462692Y-92258584D01*
X70492475Y-92108856D01*
X70492475Y-91956194D01*
X70462692Y-91806466D01*
X70407686Y-91673669D01*
X72475000Y-91673669D01*
X72475000Y-91826331D01*
X72504783Y-91976059D01*
X72563204Y-92117100D01*
X72648018Y-92244034D01*
X72755966Y-92351982D01*
X72882900Y-92436796D01*
X73023941Y-92495217D01*
X73173669Y-92525000D01*
X73326331Y-92525000D01*
X73476059Y-92495217D01*
X73617100Y-92436796D01*
X73634754Y-92425000D01*
X75115246Y-92425000D01*
X75132900Y-92436796D01*
X75273941Y-92495217D01*
X75423669Y-92525000D01*
X75576331Y-92525000D01*
X75726059Y-92495217D01*
X75867100Y-92436796D01*
X75994034Y-92351982D01*
X76101982Y-92244034D01*
X76186796Y-92117100D01*
X76245217Y-91976059D01*
X76275000Y-91826331D01*
X76275000Y-91673669D01*
X76245217Y-91523941D01*
X76186796Y-91382900D01*
X76101982Y-91255966D01*
X75994034Y-91148018D01*
X75867100Y-91063204D01*
X75726059Y-91004783D01*
X75576331Y-90975000D01*
X75423669Y-90975000D01*
X75273941Y-91004783D01*
X75132900Y-91063204D01*
X75115246Y-91075000D01*
X73634754Y-91075000D01*
X73617100Y-91063204D01*
X73476059Y-91004783D01*
X73326331Y-90975000D01*
X73173669Y-90975000D01*
X73023941Y-91004783D01*
X72882900Y-91063204D01*
X72755966Y-91148018D01*
X72648018Y-91255966D01*
X72563204Y-91382900D01*
X72504783Y-91523941D01*
X72475000Y-91673669D01*
X70407686Y-91673669D01*
X70404271Y-91665425D01*
X70319457Y-91538491D01*
X70211509Y-91430543D01*
X70084575Y-91345729D01*
X69943534Y-91287308D01*
X69793806Y-91257525D01*
X69641144Y-91257525D01*
X69491416Y-91287308D01*
X69350375Y-91345729D01*
X69332721Y-91357525D01*
X68101369Y-91357525D01*
X67986109Y-91309783D01*
X67836381Y-91280000D01*
X67683719Y-91280000D01*
X67533991Y-91309783D01*
X67392950Y-91368204D01*
X67266016Y-91453018D01*
X67158068Y-91560966D01*
X67073254Y-91687900D01*
X67014833Y-91828941D01*
X66985050Y-91978669D01*
X55450000Y-91978669D01*
X55450000Y-83225000D01*
X93219436Y-83225000D01*
X93241640Y-83450439D01*
X93307398Y-83667215D01*
X93414184Y-83866997D01*
X93557893Y-84042107D01*
X93733003Y-84185816D01*
X93932785Y-84292602D01*
X94149561Y-84358360D01*
X94318508Y-84375000D01*
X94981492Y-84375000D01*
X95150439Y-84358360D01*
X95367215Y-84292602D01*
X95566997Y-84185816D01*
X95742107Y-84042107D01*
X95885816Y-83866997D01*
X95992602Y-83667215D01*
X96058360Y-83450439D01*
X96065790Y-83375000D01*
X97120162Y-83375000D01*
X97139470Y-83571034D01*
X97196651Y-83759535D01*
X97289508Y-83933258D01*
X97414472Y-84085528D01*
X97566742Y-84210492D01*
X97740465Y-84303349D01*
X97928966Y-84360530D01*
X98075880Y-84375000D01*
X98824120Y-84375000D01*
X98971034Y-84360530D01*
X99159535Y-84303349D01*
X99333258Y-84210492D01*
X99485528Y-84085528D01*
X99610492Y-83933258D01*
X99703349Y-83759535D01*
X99760530Y-83571034D01*
X99779838Y-83375000D01*
X99760530Y-83178966D01*
X99703349Y-82990465D01*
X99610492Y-82816742D01*
X99485528Y-82664472D01*
X99333258Y-82539508D01*
X99159535Y-82446651D01*
X98971034Y-82389470D01*
X98824120Y-82375000D01*
X98075880Y-82375000D01*
X97928966Y-82389470D01*
X97740465Y-82446651D01*
X97566742Y-82539508D01*
X97414472Y-82664472D01*
X97289508Y-82816742D01*
X97196651Y-82990465D01*
X97139470Y-83178966D01*
X97120162Y-83375000D01*
X96065790Y-83375000D01*
X96080564Y-83225000D01*
X96058360Y-82999561D01*
X95992602Y-82782785D01*
X95987783Y-82773770D01*
X96090784Y-82731106D01*
X96225907Y-82640819D01*
X96340819Y-82525907D01*
X96431106Y-82390784D01*
X96493296Y-82240644D01*
X96525000Y-82081255D01*
X96525000Y-81918745D01*
X96493296Y-81759356D01*
X96431106Y-81609216D01*
X96340819Y-81474093D01*
X96225907Y-81359181D01*
X96090784Y-81268894D01*
X95940644Y-81206704D01*
X95781255Y-81175000D01*
X95618745Y-81175000D01*
X95459356Y-81206704D01*
X95309216Y-81268894D01*
X95174093Y-81359181D01*
X95059181Y-81474093D01*
X94968894Y-81609216D01*
X94906704Y-81759356D01*
X94875000Y-81918745D01*
X94875000Y-82075000D01*
X94318508Y-82075000D01*
X94149561Y-82091640D01*
X93932785Y-82157398D01*
X93733003Y-82264184D01*
X93557893Y-82407893D01*
X93414184Y-82583003D01*
X93307398Y-82782785D01*
X93241640Y-82999561D01*
X93219436Y-83225000D01*
X55450000Y-83225000D01*
X55450000Y-76413820D01*
X56295000Y-76413820D01*
X56295000Y-76586180D01*
X56328626Y-76755228D01*
X56394585Y-76914468D01*
X56490343Y-77057780D01*
X56612220Y-77179657D01*
X56755532Y-77275415D01*
X56914772Y-77341374D01*
X57083820Y-77375000D01*
X57256180Y-77375000D01*
X57425228Y-77341374D01*
X57584468Y-77275415D01*
X57727780Y-77179657D01*
X57849657Y-77057780D01*
X57945415Y-76914468D01*
X58011374Y-76755228D01*
X58045000Y-76586180D01*
X58045000Y-76413820D01*
X58011374Y-76244772D01*
X57945415Y-76085532D01*
X57849657Y-75942220D01*
X57727780Y-75820343D01*
X57584468Y-75724585D01*
X57425228Y-75658626D01*
X57256180Y-75625000D01*
X57083820Y-75625000D01*
X56914772Y-75658626D01*
X56755532Y-75724585D01*
X56612220Y-75820343D01*
X56490343Y-75942220D01*
X56394585Y-76085532D01*
X56328626Y-76244772D01*
X56295000Y-76413820D01*
X55450000Y-76413820D01*
X55450000Y-74923669D01*
X69225000Y-74923669D01*
X69225000Y-75076331D01*
X69254783Y-75226059D01*
X69313204Y-75367100D01*
X69398018Y-75494034D01*
X69505966Y-75601982D01*
X69632900Y-75686796D01*
X69773941Y-75745217D01*
X69923669Y-75775000D01*
X70076331Y-75775000D01*
X93219436Y-75775000D01*
X93241640Y-76000439D01*
X93307398Y-76217215D01*
X93414184Y-76416997D01*
X93557893Y-76592107D01*
X93733003Y-76735816D01*
X93932785Y-76842602D01*
X94149561Y-76908360D01*
X94318508Y-76925000D01*
X94875000Y-76925000D01*
X94875000Y-77081255D01*
X94906704Y-77240644D01*
X94968894Y-77390784D01*
X95059181Y-77525907D01*
X95174093Y-77640819D01*
X95309216Y-77731106D01*
X95459356Y-77793296D01*
X95618745Y-77825000D01*
X95781255Y-77825000D01*
X95940644Y-77793296D01*
X96090784Y-77731106D01*
X96225907Y-77640819D01*
X96340819Y-77525907D01*
X96431106Y-77390784D01*
X96493296Y-77240644D01*
X96525000Y-77081255D01*
X96525000Y-76918745D01*
X96493296Y-76759356D01*
X96431106Y-76609216D01*
X96340819Y-76474093D01*
X96225907Y-76359181D01*
X96090784Y-76268894D01*
X95987783Y-76226230D01*
X95992602Y-76217215D01*
X96058360Y-76000439D01*
X96080564Y-75775000D01*
X96065791Y-75625000D01*
X97120162Y-75625000D01*
X97139470Y-75821034D01*
X97196651Y-76009535D01*
X97289508Y-76183258D01*
X97414472Y-76335528D01*
X97566742Y-76460492D01*
X97740465Y-76553349D01*
X97928966Y-76610530D01*
X98075880Y-76625000D01*
X98824120Y-76625000D01*
X98971034Y-76610530D01*
X99159535Y-76553349D01*
X99333258Y-76460492D01*
X99485528Y-76335528D01*
X99610492Y-76183258D01*
X99703349Y-76009535D01*
X99760530Y-75821034D01*
X99779838Y-75625000D01*
X99760530Y-75428966D01*
X99703349Y-75240465D01*
X99610492Y-75066742D01*
X99485528Y-74914472D01*
X99333258Y-74789508D01*
X99159535Y-74696651D01*
X98971034Y-74639470D01*
X98824120Y-74625000D01*
X98075880Y-74625000D01*
X97928966Y-74639470D01*
X97740465Y-74696651D01*
X97566742Y-74789508D01*
X97414472Y-74914472D01*
X97289508Y-75066742D01*
X97196651Y-75240465D01*
X97139470Y-75428966D01*
X97120162Y-75625000D01*
X96065791Y-75625000D01*
X96058360Y-75549561D01*
X95992602Y-75332785D01*
X95885816Y-75133003D01*
X95742107Y-74957893D01*
X95566997Y-74814184D01*
X95367215Y-74707398D01*
X95150439Y-74641640D01*
X94981492Y-74625000D01*
X94318508Y-74625000D01*
X94149561Y-74641640D01*
X93932785Y-74707398D01*
X93733003Y-74814184D01*
X93557893Y-74957893D01*
X93414184Y-75133003D01*
X93307398Y-75332785D01*
X93241640Y-75549561D01*
X93219436Y-75775000D01*
X70076331Y-75775000D01*
X70226059Y-75745217D01*
X70367100Y-75686796D01*
X70494034Y-75601982D01*
X70601982Y-75494034D01*
X70686796Y-75367100D01*
X70745217Y-75226059D01*
X70749359Y-75205235D01*
X71205235Y-74749359D01*
X71226059Y-74745217D01*
X71367100Y-74686796D01*
X71494034Y-74601982D01*
X71601982Y-74494034D01*
X71686796Y-74367100D01*
X71745217Y-74226059D01*
X71775000Y-74076331D01*
X71775000Y-73923669D01*
X71745217Y-73773941D01*
X71686796Y-73632900D01*
X71601982Y-73505966D01*
X71494034Y-73398018D01*
X71367100Y-73313204D01*
X71226059Y-73254783D01*
X71076331Y-73225000D01*
X70923669Y-73225000D01*
X70773941Y-73254783D01*
X70632900Y-73313204D01*
X70505966Y-73398018D01*
X70398018Y-73505966D01*
X70313204Y-73632900D01*
X70254783Y-73773941D01*
X70250641Y-73794765D01*
X69794765Y-74250641D01*
X69773941Y-74254783D01*
X69632900Y-74313204D01*
X69505966Y-74398018D01*
X69398018Y-74505966D01*
X69313204Y-74632900D01*
X69254783Y-74773941D01*
X69225000Y-74923669D01*
X55450000Y-74923669D01*
X55450000Y-73413820D01*
X56295000Y-73413820D01*
X56295000Y-73586180D01*
X56328626Y-73755228D01*
X56394585Y-73914468D01*
X56490343Y-74057780D01*
X56612220Y-74179657D01*
X56755532Y-74275415D01*
X56914772Y-74341374D01*
X57083820Y-74375000D01*
X57256180Y-74375000D01*
X57425228Y-74341374D01*
X57584468Y-74275415D01*
X57727780Y-74179657D01*
X57849657Y-74057780D01*
X57945415Y-73914468D01*
X58011374Y-73755228D01*
X58045000Y-73586180D01*
X58045000Y-73413820D01*
X58011374Y-73244772D01*
X57945415Y-73085532D01*
X57849657Y-72942220D01*
X57727780Y-72820343D01*
X57584468Y-72724585D01*
X57425228Y-72658626D01*
X57256180Y-72625000D01*
X57083820Y-72625000D01*
X56914772Y-72658626D01*
X56755532Y-72724585D01*
X56612220Y-72820343D01*
X56490343Y-72942220D01*
X56394585Y-73085532D01*
X56328626Y-73244772D01*
X56295000Y-73413820D01*
X55450000Y-73413820D01*
X55450000Y-66522006D01*
X55466884Y-66349801D01*
X56475000Y-66349801D01*
X56475000Y-66650199D01*
X56533605Y-66944826D01*
X56648562Y-67222358D01*
X56815455Y-67472131D01*
X57027869Y-67684545D01*
X57277642Y-67851438D01*
X57555174Y-67966395D01*
X57849801Y-68025000D01*
X58150199Y-68025000D01*
X58444826Y-67966395D01*
X58722358Y-67851438D01*
X58972131Y-67684545D01*
X59184545Y-67472131D01*
X59351438Y-67222358D01*
X59466395Y-66944826D01*
X59525000Y-66650199D01*
X59525000Y-66600000D01*
X63271976Y-66600000D01*
X63284043Y-66722521D01*
X63319781Y-66840334D01*
X63377817Y-66948911D01*
X63455920Y-67044080D01*
X63551089Y-67122183D01*
X63659666Y-67180219D01*
X63777479Y-67215957D01*
X63900000Y-67228024D01*
X64468750Y-67225000D01*
X64625000Y-67068750D01*
X64625000Y-65875000D01*
X63431250Y-65875000D01*
X63275000Y-66031250D01*
X63271976Y-66600000D01*
X59525000Y-66600000D01*
X59525000Y-66349801D01*
X59466395Y-66055174D01*
X59351438Y-65777642D01*
X59184545Y-65527869D01*
X58972131Y-65315455D01*
X58722358Y-65148562D01*
X58444826Y-65033605D01*
X58150199Y-64975000D01*
X57849801Y-64975000D01*
X57555174Y-65033605D01*
X57277642Y-65148562D01*
X57027869Y-65315455D01*
X56815455Y-65527869D01*
X56648562Y-65777642D01*
X56533605Y-66055174D01*
X56475000Y-66349801D01*
X55466884Y-66349801D01*
X55500681Y-66005124D01*
X55644403Y-65529094D01*
X55877850Y-65090043D01*
X56032845Y-64900000D01*
X63271976Y-64900000D01*
X63275000Y-65468750D01*
X63431250Y-65625000D01*
X64625000Y-65625000D01*
X64625000Y-64431250D01*
X64875000Y-64431250D01*
X64875000Y-65625000D01*
X64895000Y-65625000D01*
X64895000Y-65875000D01*
X64875000Y-65875000D01*
X64875000Y-67068750D01*
X65031250Y-67225000D01*
X65600000Y-67228024D01*
X65722521Y-67215957D01*
X65840334Y-67180219D01*
X65948911Y-67122183D01*
X66044080Y-67044080D01*
X66122183Y-66948911D01*
X66180219Y-66840334D01*
X66215957Y-66722521D01*
X66228024Y-66600000D01*
X66227250Y-66454421D01*
X66299643Y-66562765D01*
X66477235Y-66740357D01*
X66686061Y-66879890D01*
X66918096Y-66976002D01*
X67164423Y-67025000D01*
X67415577Y-67025000D01*
X67661904Y-66976002D01*
X67893939Y-66879890D01*
X68102765Y-66740357D01*
X68280357Y-66562765D01*
X68419890Y-66353939D01*
X68516002Y-66121904D01*
X68560000Y-65900713D01*
X68603998Y-66121904D01*
X68700110Y-66353939D01*
X68839643Y-66562765D01*
X69017235Y-66740357D01*
X69226061Y-66879890D01*
X69458096Y-66976002D01*
X69704423Y-67025000D01*
X69955577Y-67025000D01*
X70201904Y-66976002D01*
X70433939Y-66879890D01*
X70642765Y-66740357D01*
X70820357Y-66562765D01*
X70959890Y-66353939D01*
X71056002Y-66121904D01*
X71100000Y-65900713D01*
X71143998Y-66121904D01*
X71240110Y-66353939D01*
X71379643Y-66562765D01*
X71557235Y-66740357D01*
X71766061Y-66879890D01*
X71998096Y-66976002D01*
X72244423Y-67025000D01*
X72495577Y-67025000D01*
X72741904Y-66976002D01*
X72973939Y-66879890D01*
X73182765Y-66740357D01*
X73360357Y-66562765D01*
X73499890Y-66353939D01*
X73596002Y-66121904D01*
X73599688Y-66103373D01*
X77947950Y-66103373D01*
X78044406Y-66375962D01*
X78192188Y-66624496D01*
X78385617Y-66839423D01*
X78617260Y-67012485D01*
X78878214Y-67137030D01*
X79026628Y-67182045D01*
X79255000Y-67062812D01*
X79255000Y-65875000D01*
X78066551Y-65875000D01*
X77947950Y-66103373D01*
X73599688Y-66103373D01*
X73645000Y-65875577D01*
X73645000Y-65624423D01*
X73599689Y-65396627D01*
X77947950Y-65396627D01*
X78066551Y-65625000D01*
X79255000Y-65625000D01*
X79255000Y-64437188D01*
X79505000Y-64437188D01*
X79505000Y-65625000D01*
X79525000Y-65625000D01*
X79525000Y-65875000D01*
X79505000Y-65875000D01*
X79505000Y-67062812D01*
X79733372Y-67182045D01*
X79881786Y-67137030D01*
X80142740Y-67012485D01*
X80374383Y-66839423D01*
X80567812Y-66624496D01*
X80715594Y-66375962D01*
X80754127Y-66267067D01*
X80790110Y-66353939D01*
X80929643Y-66562765D01*
X81107235Y-66740357D01*
X81316061Y-66879890D01*
X81548096Y-66976002D01*
X81794423Y-67025000D01*
X82045577Y-67025000D01*
X82291904Y-66976002D01*
X82523939Y-66879890D01*
X82732765Y-66740357D01*
X82910357Y-66562765D01*
X83049890Y-66353939D01*
X83146002Y-66121904D01*
X83190000Y-65900713D01*
X83233998Y-66121904D01*
X83330110Y-66353939D01*
X83469643Y-66562765D01*
X83647235Y-66740357D01*
X83856061Y-66879890D01*
X84088096Y-66976002D01*
X84334423Y-67025000D01*
X84585577Y-67025000D01*
X84831904Y-66976002D01*
X85063939Y-66879890D01*
X85272765Y-66740357D01*
X85450357Y-66562765D01*
X85589890Y-66353939D01*
X85686002Y-66121904D01*
X85722944Y-65936186D01*
X85722944Y-66600000D01*
X85731150Y-66683314D01*
X85755452Y-66763427D01*
X85794916Y-66837260D01*
X85848026Y-66901974D01*
X85912740Y-66955084D01*
X85986573Y-66994548D01*
X86066686Y-67018850D01*
X86150000Y-67027056D01*
X87850000Y-67027056D01*
X87933314Y-67018850D01*
X88013427Y-66994548D01*
X88087260Y-66955084D01*
X88151974Y-66901974D01*
X88205084Y-66837260D01*
X88244548Y-66763427D01*
X88268850Y-66683314D01*
X88277056Y-66600000D01*
X88277056Y-66349801D01*
X95975000Y-66349801D01*
X95975000Y-66650199D01*
X96033605Y-66944826D01*
X96148562Y-67222358D01*
X96315455Y-67472131D01*
X96527869Y-67684545D01*
X96777642Y-67851438D01*
X97055174Y-67966395D01*
X97349801Y-68025000D01*
X97650199Y-68025000D01*
X97944826Y-67966395D01*
X98222358Y-67851438D01*
X98472131Y-67684545D01*
X98684545Y-67472131D01*
X98851438Y-67222358D01*
X98966395Y-66944826D01*
X99025000Y-66650199D01*
X99025000Y-66349801D01*
X98966395Y-66055174D01*
X98851438Y-65777642D01*
X98684545Y-65527869D01*
X98472131Y-65315455D01*
X98222358Y-65148562D01*
X97944826Y-65033605D01*
X97650199Y-64975000D01*
X97349801Y-64975000D01*
X97055174Y-65033605D01*
X96777642Y-65148562D01*
X96527869Y-65315455D01*
X96315455Y-65527869D01*
X96148562Y-65777642D01*
X96033605Y-66055174D01*
X95975000Y-66349801D01*
X88277056Y-66349801D01*
X88277056Y-64900000D01*
X88268850Y-64816686D01*
X88244548Y-64736573D01*
X88205084Y-64662740D01*
X88151974Y-64598026D01*
X88087260Y-64544916D01*
X88013427Y-64505452D01*
X87933314Y-64481150D01*
X87850000Y-64472944D01*
X86150000Y-64472944D01*
X86066686Y-64481150D01*
X85986573Y-64505452D01*
X85912740Y-64544916D01*
X85848026Y-64598026D01*
X85794916Y-64662740D01*
X85755452Y-64736573D01*
X85731150Y-64816686D01*
X85722944Y-64900000D01*
X85722944Y-65563814D01*
X85686002Y-65378096D01*
X85589890Y-65146061D01*
X85450357Y-64937235D01*
X85272765Y-64759643D01*
X85063939Y-64620110D01*
X84831904Y-64523998D01*
X84585577Y-64475000D01*
X84334423Y-64475000D01*
X84088096Y-64523998D01*
X83856061Y-64620110D01*
X83647235Y-64759643D01*
X83469643Y-64937235D01*
X83330110Y-65146061D01*
X83233998Y-65378096D01*
X83190000Y-65599287D01*
X83146002Y-65378096D01*
X83049890Y-65146061D01*
X82910357Y-64937235D01*
X82732765Y-64759643D01*
X82523939Y-64620110D01*
X82291904Y-64523998D01*
X82045577Y-64475000D01*
X81794423Y-64475000D01*
X81548096Y-64523998D01*
X81316061Y-64620110D01*
X81107235Y-64759643D01*
X80929643Y-64937235D01*
X80790110Y-65146061D01*
X80754127Y-65232933D01*
X80715594Y-65124038D01*
X80567812Y-64875504D01*
X80374383Y-64660577D01*
X80142740Y-64487515D01*
X79881786Y-64362970D01*
X79733372Y-64317955D01*
X79505000Y-64437188D01*
X79255000Y-64437188D01*
X79026628Y-64317955D01*
X78878214Y-64362970D01*
X78617260Y-64487515D01*
X78385617Y-64660577D01*
X78192188Y-64875504D01*
X78044406Y-65124038D01*
X77947950Y-65396627D01*
X73599689Y-65396627D01*
X73596002Y-65378096D01*
X73499890Y-65146061D01*
X73360357Y-64937235D01*
X73182765Y-64759643D01*
X72973939Y-64620110D01*
X72741904Y-64523998D01*
X72495577Y-64475000D01*
X72244423Y-64475000D01*
X71998096Y-64523998D01*
X71766061Y-64620110D01*
X71557235Y-64759643D01*
X71379643Y-64937235D01*
X71240110Y-65146061D01*
X71143998Y-65378096D01*
X71100000Y-65599287D01*
X71056002Y-65378096D01*
X70959890Y-65146061D01*
X70820357Y-64937235D01*
X70642765Y-64759643D01*
X70433939Y-64620110D01*
X70201904Y-64523998D01*
X69955577Y-64475000D01*
X69704423Y-64475000D01*
X69458096Y-64523998D01*
X69226061Y-64620110D01*
X69017235Y-64759643D01*
X68839643Y-64937235D01*
X68700110Y-65146061D01*
X68603998Y-65378096D01*
X68560000Y-65599287D01*
X68516002Y-65378096D01*
X68419890Y-65146061D01*
X68280357Y-64937235D01*
X68102765Y-64759643D01*
X67893939Y-64620110D01*
X67661904Y-64523998D01*
X67415577Y-64475000D01*
X67164423Y-64475000D01*
X66918096Y-64523998D01*
X66686061Y-64620110D01*
X66477235Y-64759643D01*
X66299643Y-64937235D01*
X66227250Y-65045579D01*
X66228024Y-64900000D01*
X66215957Y-64777479D01*
X66180219Y-64659666D01*
X66122183Y-64551089D01*
X66044080Y-64455920D01*
X65948911Y-64377817D01*
X65840334Y-64319781D01*
X65722521Y-64284043D01*
X65600000Y-64271976D01*
X65031250Y-64275000D01*
X64875000Y-64431250D01*
X64625000Y-64431250D01*
X64468750Y-64275000D01*
X63900000Y-64271976D01*
X63777479Y-64284043D01*
X63659666Y-64319781D01*
X63551089Y-64377817D01*
X63455920Y-64455920D01*
X63377817Y-64551089D01*
X63319781Y-64659666D01*
X63284043Y-64777479D01*
X63271976Y-64900000D01*
X56032845Y-64900000D01*
X56192125Y-64704704D01*
X56575266Y-64387742D01*
X57012670Y-64151239D01*
X57487684Y-64004197D01*
X58003335Y-63950000D01*
X97477994Y-63950000D01*
X97994876Y-64000681D01*
G37*
X97994876Y-64000681D02*
X98470906Y-64144403D01*
X98909957Y-64377850D01*
X99295296Y-64692125D01*
X99612258Y-65075266D01*
X99848761Y-65512670D01*
X99995803Y-65987684D01*
X100050001Y-66503344D01*
X100050000Y-94227995D01*
X99999319Y-94744876D01*
X99855596Y-95220910D01*
X99622152Y-95659954D01*
X99307875Y-96045296D01*
X98924735Y-96362257D01*
X98487329Y-96598761D01*
X98012316Y-96745803D01*
X97496664Y-96800000D01*
X58022005Y-96800000D01*
X57505124Y-96749319D01*
X57029090Y-96605596D01*
X56590046Y-96372152D01*
X56204704Y-96057875D01*
X55887743Y-95674735D01*
X55651239Y-95237329D01*
X55504197Y-94762316D01*
X55450000Y-94246664D01*
X55450000Y-94099801D01*
X56475000Y-94099801D01*
X56475000Y-94400199D01*
X56533605Y-94694826D01*
X56648562Y-94972358D01*
X56815455Y-95222131D01*
X57027869Y-95434545D01*
X57277642Y-95601438D01*
X57555174Y-95716395D01*
X57849801Y-95775000D01*
X58150199Y-95775000D01*
X58444826Y-95716395D01*
X58722358Y-95601438D01*
X58972131Y-95434545D01*
X59184545Y-95222131D01*
X59351438Y-94972358D01*
X59466395Y-94694826D01*
X59525000Y-94400199D01*
X59525000Y-94150000D01*
X71222944Y-94150000D01*
X71222944Y-95850000D01*
X71231150Y-95933314D01*
X71255452Y-96013427D01*
X71294916Y-96087260D01*
X71348026Y-96151974D01*
X71412740Y-96205084D01*
X71486573Y-96244548D01*
X71566686Y-96268850D01*
X71650000Y-96277056D01*
X73350000Y-96277056D01*
X73433314Y-96268850D01*
X73513427Y-96244548D01*
X73587260Y-96205084D01*
X73651974Y-96151974D01*
X73705084Y-96087260D01*
X73744548Y-96013427D01*
X73768850Y-95933314D01*
X73777056Y-95850000D01*
X73777056Y-95186186D01*
X73813998Y-95371904D01*
X73910110Y-95603939D01*
X74049643Y-95812765D01*
X74227235Y-95990357D01*
X74436061Y-96129890D01*
X74668096Y-96226002D01*
X74914423Y-96275000D01*
X75165577Y-96275000D01*
X75411904Y-96226002D01*
X75643939Y-96129890D01*
X75852765Y-95990357D01*
X76030357Y-95812765D01*
X76169890Y-95603939D01*
X76266002Y-95371904D01*
X76310000Y-95150713D01*
X76353998Y-95371904D01*
X76450110Y-95603939D01*
X76589643Y-95812765D01*
X76767235Y-95990357D01*
X76976061Y-96129890D01*
X77208096Y-96226002D01*
X77454423Y-96275000D01*
X77705577Y-96275000D01*
X77951904Y-96226002D01*
X78183939Y-96129890D01*
X78392765Y-95990357D01*
X78570357Y-95812765D01*
X78709890Y-95603939D01*
X78745873Y-95517067D01*
X78784406Y-95625962D01*
X78932188Y-95874496D01*
X79125617Y-96089423D01*
X79357260Y-96262485D01*
X79618214Y-96387030D01*
X79766628Y-96432045D01*
X79995000Y-96312812D01*
X79995000Y-95125000D01*
X80245000Y-95125000D01*
X80245000Y-96312812D01*
X80473372Y-96432045D01*
X80621786Y-96387030D01*
X80882740Y-96262485D01*
X81114383Y-96089423D01*
X81307812Y-95874496D01*
X81455594Y-95625962D01*
X81552050Y-95353373D01*
X81433449Y-95125000D01*
X80245000Y-95125000D01*
X79995000Y-95125000D01*
X79975000Y-95125000D01*
X79975000Y-94875000D01*
X79995000Y-94875000D01*
X79995000Y-93687188D01*
X80245000Y-93687188D01*
X80245000Y-94875000D01*
X81433449Y-94875000D01*
X81552050Y-94646627D01*
X81455594Y-94374038D01*
X81307812Y-94125504D01*
X81284680Y-94099801D01*
X95975000Y-94099801D01*
X95975000Y-94400199D01*
X96033605Y-94694826D01*
X96148562Y-94972358D01*
X96315455Y-95222131D01*
X96527869Y-95434545D01*
X96777642Y-95601438D01*
X97055174Y-95716395D01*
X97349801Y-95775000D01*
X97650199Y-95775000D01*
X97944826Y-95716395D01*
X98222358Y-95601438D01*
X98472131Y-95434545D01*
X98684545Y-95222131D01*
X98851438Y-94972358D01*
X98966395Y-94694826D01*
X99025000Y-94400199D01*
X99025000Y-94099801D01*
X98966395Y-93805174D01*
X98851438Y-93527642D01*
X98684545Y-93277869D01*
X98472131Y-93065455D01*
X98222358Y-92898562D01*
X97944826Y-92783605D01*
X97650199Y-92725000D01*
X97349801Y-92725000D01*
X97055174Y-92783605D01*
X96777642Y-92898562D01*
X96527869Y-93065455D01*
X96315455Y-93277869D01*
X96148562Y-93527642D01*
X96033605Y-93805174D01*
X95975000Y-94099801D01*
X81284680Y-94099801D01*
X81114383Y-93910577D01*
X80882740Y-93737515D01*
X80621786Y-93612970D01*
X80473372Y-93567955D01*
X80245000Y-93687188D01*
X79995000Y-93687188D01*
X79766628Y-93567955D01*
X79618214Y-93612970D01*
X79357260Y-93737515D01*
X79125617Y-93910577D01*
X78932188Y-94125504D01*
X78784406Y-94374038D01*
X78745873Y-94482933D01*
X78709890Y-94396061D01*
X78570357Y-94187235D01*
X78392765Y-94009643D01*
X78183939Y-93870110D01*
X77951904Y-93773998D01*
X77705577Y-93725000D01*
X77454423Y-93725000D01*
X77208096Y-93773998D01*
X76976061Y-93870110D01*
X76767235Y-94009643D01*
X76589643Y-94187235D01*
X76450110Y-94396061D01*
X76353998Y-94628096D01*
X76310000Y-94849287D01*
X76266002Y-94628096D01*
X76169890Y-94396061D01*
X76030357Y-94187235D01*
X75852765Y-94009643D01*
X75643939Y-93870110D01*
X75411904Y-93773998D01*
X75165577Y-93725000D01*
X74914423Y-93725000D01*
X74668096Y-93773998D01*
X74436061Y-93870110D01*
X74227235Y-94009643D01*
X74049643Y-94187235D01*
X73910110Y-94396061D01*
X73813998Y-94628096D01*
X73777056Y-94813814D01*
X73777056Y-94150000D01*
X73768850Y-94066686D01*
X73744548Y-93986573D01*
X73705084Y-93912740D01*
X73651974Y-93848026D01*
X73587260Y-93794916D01*
X73513427Y-93755452D01*
X73433314Y-93731150D01*
X73350000Y-93722944D01*
X71650000Y-93722944D01*
X71566686Y-93731150D01*
X71486573Y-93755452D01*
X71412740Y-93794916D01*
X71348026Y-93848026D01*
X71294916Y-93912740D01*
X71255452Y-93986573D01*
X71231150Y-94066686D01*
X71222944Y-94150000D01*
X59525000Y-94150000D01*
X59525000Y-94099801D01*
X59466395Y-93805174D01*
X59351438Y-93527642D01*
X59184545Y-93277869D01*
X58972131Y-93065455D01*
X58722358Y-92898562D01*
X58444826Y-92783605D01*
X58150199Y-92725000D01*
X57849801Y-92725000D01*
X57555174Y-92783605D01*
X57277642Y-92898562D01*
X57027869Y-93065455D01*
X56815455Y-93277869D01*
X56648562Y-93527642D01*
X56533605Y-93805174D01*
X56475000Y-94099801D01*
X55450000Y-94099801D01*
X55450000Y-91978669D01*
X66985050Y-91978669D01*
X66985050Y-92131331D01*
X67014833Y-92281059D01*
X67073254Y-92422100D01*
X67158068Y-92549034D01*
X67266016Y-92656982D01*
X67392950Y-92741796D01*
X67533991Y-92800217D01*
X67683719Y-92830000D01*
X67836381Y-92830000D01*
X67986109Y-92800217D01*
X68127150Y-92741796D01*
X68178441Y-92707525D01*
X69332721Y-92707525D01*
X69350375Y-92719321D01*
X69491416Y-92777742D01*
X69641144Y-92807525D01*
X69793806Y-92807525D01*
X69943534Y-92777742D01*
X70084575Y-92719321D01*
X70211509Y-92634507D01*
X70319457Y-92526559D01*
X70404271Y-92399625D01*
X70462692Y-92258584D01*
X70492475Y-92108856D01*
X70492475Y-91956194D01*
X70462692Y-91806466D01*
X70407686Y-91673669D01*
X72475000Y-91673669D01*
X72475000Y-91826331D01*
X72504783Y-91976059D01*
X72563204Y-92117100D01*
X72648018Y-92244034D01*
X72755966Y-92351982D01*
X72882900Y-92436796D01*
X73023941Y-92495217D01*
X73173669Y-92525000D01*
X73326331Y-92525000D01*
X73476059Y-92495217D01*
X73617100Y-92436796D01*
X73634754Y-92425000D01*
X75115246Y-92425000D01*
X75132900Y-92436796D01*
X75273941Y-92495217D01*
X75423669Y-92525000D01*
X75576331Y-92525000D01*
X75726059Y-92495217D01*
X75867100Y-92436796D01*
X75994034Y-92351982D01*
X76101982Y-92244034D01*
X76186796Y-92117100D01*
X76245217Y-91976059D01*
X76275000Y-91826331D01*
X76275000Y-91673669D01*
X76245217Y-91523941D01*
X76186796Y-91382900D01*
X76101982Y-91255966D01*
X75994034Y-91148018D01*
X75867100Y-91063204D01*
X75726059Y-91004783D01*
X75576331Y-90975000D01*
X75423669Y-90975000D01*
X75273941Y-91004783D01*
X75132900Y-91063204D01*
X75115246Y-91075000D01*
X73634754Y-91075000D01*
X73617100Y-91063204D01*
X73476059Y-91004783D01*
X73326331Y-90975000D01*
X73173669Y-90975000D01*
X73023941Y-91004783D01*
X72882900Y-91063204D01*
X72755966Y-91148018D01*
X72648018Y-91255966D01*
X72563204Y-91382900D01*
X72504783Y-91523941D01*
X72475000Y-91673669D01*
X70407686Y-91673669D01*
X70404271Y-91665425D01*
X70319457Y-91538491D01*
X70211509Y-91430543D01*
X70084575Y-91345729D01*
X69943534Y-91287308D01*
X69793806Y-91257525D01*
X69641144Y-91257525D01*
X69491416Y-91287308D01*
X69350375Y-91345729D01*
X69332721Y-91357525D01*
X68101369Y-91357525D01*
X67986109Y-91309783D01*
X67836381Y-91280000D01*
X67683719Y-91280000D01*
X67533991Y-91309783D01*
X67392950Y-91368204D01*
X67266016Y-91453018D01*
X67158068Y-91560966D01*
X67073254Y-91687900D01*
X67014833Y-91828941D01*
X66985050Y-91978669D01*
X55450000Y-91978669D01*
X55450000Y-83225000D01*
X93219436Y-83225000D01*
X93241640Y-83450439D01*
X93307398Y-83667215D01*
X93414184Y-83866997D01*
X93557893Y-84042107D01*
X93733003Y-84185816D01*
X93932785Y-84292602D01*
X94149561Y-84358360D01*
X94318508Y-84375000D01*
X94981492Y-84375000D01*
X95150439Y-84358360D01*
X95367215Y-84292602D01*
X95566997Y-84185816D01*
X95742107Y-84042107D01*
X95885816Y-83866997D01*
X95992602Y-83667215D01*
X96058360Y-83450439D01*
X96065790Y-83375000D01*
X97120162Y-83375000D01*
X97139470Y-83571034D01*
X97196651Y-83759535D01*
X97289508Y-83933258D01*
X97414472Y-84085528D01*
X97566742Y-84210492D01*
X97740465Y-84303349D01*
X97928966Y-84360530D01*
X98075880Y-84375000D01*
X98824120Y-84375000D01*
X98971034Y-84360530D01*
X99159535Y-84303349D01*
X99333258Y-84210492D01*
X99485528Y-84085528D01*
X99610492Y-83933258D01*
X99703349Y-83759535D01*
X99760530Y-83571034D01*
X99779838Y-83375000D01*
X99760530Y-83178966D01*
X99703349Y-82990465D01*
X99610492Y-82816742D01*
X99485528Y-82664472D01*
X99333258Y-82539508D01*
X99159535Y-82446651D01*
X98971034Y-82389470D01*
X98824120Y-82375000D01*
X98075880Y-82375000D01*
X97928966Y-82389470D01*
X97740465Y-82446651D01*
X97566742Y-82539508D01*
X97414472Y-82664472D01*
X97289508Y-82816742D01*
X97196651Y-82990465D01*
X97139470Y-83178966D01*
X97120162Y-83375000D01*
X96065790Y-83375000D01*
X96080564Y-83225000D01*
X96058360Y-82999561D01*
X95992602Y-82782785D01*
X95987783Y-82773770D01*
X96090784Y-82731106D01*
X96225907Y-82640819D01*
X96340819Y-82525907D01*
X96431106Y-82390784D01*
X96493296Y-82240644D01*
X96525000Y-82081255D01*
X96525000Y-81918745D01*
X96493296Y-81759356D01*
X96431106Y-81609216D01*
X96340819Y-81474093D01*
X96225907Y-81359181D01*
X96090784Y-81268894D01*
X95940644Y-81206704D01*
X95781255Y-81175000D01*
X95618745Y-81175000D01*
X95459356Y-81206704D01*
X95309216Y-81268894D01*
X95174093Y-81359181D01*
X95059181Y-81474093D01*
X94968894Y-81609216D01*
X94906704Y-81759356D01*
X94875000Y-81918745D01*
X94875000Y-82075000D01*
X94318508Y-82075000D01*
X94149561Y-82091640D01*
X93932785Y-82157398D01*
X93733003Y-82264184D01*
X93557893Y-82407893D01*
X93414184Y-82583003D01*
X93307398Y-82782785D01*
X93241640Y-82999561D01*
X93219436Y-83225000D01*
X55450000Y-83225000D01*
X55450000Y-76413820D01*
X56295000Y-76413820D01*
X56295000Y-76586180D01*
X56328626Y-76755228D01*
X56394585Y-76914468D01*
X56490343Y-77057780D01*
X56612220Y-77179657D01*
X56755532Y-77275415D01*
X56914772Y-77341374D01*
X57083820Y-77375000D01*
X57256180Y-77375000D01*
X57425228Y-77341374D01*
X57584468Y-77275415D01*
X57727780Y-77179657D01*
X57849657Y-77057780D01*
X57945415Y-76914468D01*
X58011374Y-76755228D01*
X58045000Y-76586180D01*
X58045000Y-76413820D01*
X58011374Y-76244772D01*
X57945415Y-76085532D01*
X57849657Y-75942220D01*
X57727780Y-75820343D01*
X57584468Y-75724585D01*
X57425228Y-75658626D01*
X57256180Y-75625000D01*
X57083820Y-75625000D01*
X56914772Y-75658626D01*
X56755532Y-75724585D01*
X56612220Y-75820343D01*
X56490343Y-75942220D01*
X56394585Y-76085532D01*
X56328626Y-76244772D01*
X56295000Y-76413820D01*
X55450000Y-76413820D01*
X55450000Y-74923669D01*
X69225000Y-74923669D01*
X69225000Y-75076331D01*
X69254783Y-75226059D01*
X69313204Y-75367100D01*
X69398018Y-75494034D01*
X69505966Y-75601982D01*
X69632900Y-75686796D01*
X69773941Y-75745217D01*
X69923669Y-75775000D01*
X70076331Y-75775000D01*
X93219436Y-75775000D01*
X93241640Y-76000439D01*
X93307398Y-76217215D01*
X93414184Y-76416997D01*
X93557893Y-76592107D01*
X93733003Y-76735816D01*
X93932785Y-76842602D01*
X94149561Y-76908360D01*
X94318508Y-76925000D01*
X94875000Y-76925000D01*
X94875000Y-77081255D01*
X94906704Y-77240644D01*
X94968894Y-77390784D01*
X95059181Y-77525907D01*
X95174093Y-77640819D01*
X95309216Y-77731106D01*
X95459356Y-77793296D01*
X95618745Y-77825000D01*
X95781255Y-77825000D01*
X95940644Y-77793296D01*
X96090784Y-77731106D01*
X96225907Y-77640819D01*
X96340819Y-77525907D01*
X96431106Y-77390784D01*
X96493296Y-77240644D01*
X96525000Y-77081255D01*
X96525000Y-76918745D01*
X96493296Y-76759356D01*
X96431106Y-76609216D01*
X96340819Y-76474093D01*
X96225907Y-76359181D01*
X96090784Y-76268894D01*
X95987783Y-76226230D01*
X95992602Y-76217215D01*
X96058360Y-76000439D01*
X96080564Y-75775000D01*
X96065791Y-75625000D01*
X97120162Y-75625000D01*
X97139470Y-75821034D01*
X97196651Y-76009535D01*
X97289508Y-76183258D01*
X97414472Y-76335528D01*
X97566742Y-76460492D01*
X97740465Y-76553349D01*
X97928966Y-76610530D01*
X98075880Y-76625000D01*
X98824120Y-76625000D01*
X98971034Y-76610530D01*
X99159535Y-76553349D01*
X99333258Y-76460492D01*
X99485528Y-76335528D01*
X99610492Y-76183258D01*
X99703349Y-76009535D01*
X99760530Y-75821034D01*
X99779838Y-75625000D01*
X99760530Y-75428966D01*
X99703349Y-75240465D01*
X99610492Y-75066742D01*
X99485528Y-74914472D01*
X99333258Y-74789508D01*
X99159535Y-74696651D01*
X98971034Y-74639470D01*
X98824120Y-74625000D01*
X98075880Y-74625000D01*
X97928966Y-74639470D01*
X97740465Y-74696651D01*
X97566742Y-74789508D01*
X97414472Y-74914472D01*
X97289508Y-75066742D01*
X97196651Y-75240465D01*
X97139470Y-75428966D01*
X97120162Y-75625000D01*
X96065791Y-75625000D01*
X96058360Y-75549561D01*
X95992602Y-75332785D01*
X95885816Y-75133003D01*
X95742107Y-74957893D01*
X95566997Y-74814184D01*
X95367215Y-74707398D01*
X95150439Y-74641640D01*
X94981492Y-74625000D01*
X94318508Y-74625000D01*
X94149561Y-74641640D01*
X93932785Y-74707398D01*
X93733003Y-74814184D01*
X93557893Y-74957893D01*
X93414184Y-75133003D01*
X93307398Y-75332785D01*
X93241640Y-75549561D01*
X93219436Y-75775000D01*
X70076331Y-75775000D01*
X70226059Y-75745217D01*
X70367100Y-75686796D01*
X70494034Y-75601982D01*
X70601982Y-75494034D01*
X70686796Y-75367100D01*
X70745217Y-75226059D01*
X70749359Y-75205235D01*
X71205235Y-74749359D01*
X71226059Y-74745217D01*
X71367100Y-74686796D01*
X71494034Y-74601982D01*
X71601982Y-74494034D01*
X71686796Y-74367100D01*
X71745217Y-74226059D01*
X71775000Y-74076331D01*
X71775000Y-73923669D01*
X71745217Y-73773941D01*
X71686796Y-73632900D01*
X71601982Y-73505966D01*
X71494034Y-73398018D01*
X71367100Y-73313204D01*
X71226059Y-73254783D01*
X71076331Y-73225000D01*
X70923669Y-73225000D01*
X70773941Y-73254783D01*
X70632900Y-73313204D01*
X70505966Y-73398018D01*
X70398018Y-73505966D01*
X70313204Y-73632900D01*
X70254783Y-73773941D01*
X70250641Y-73794765D01*
X69794765Y-74250641D01*
X69773941Y-74254783D01*
X69632900Y-74313204D01*
X69505966Y-74398018D01*
X69398018Y-74505966D01*
X69313204Y-74632900D01*
X69254783Y-74773941D01*
X69225000Y-74923669D01*
X55450000Y-74923669D01*
X55450000Y-73413820D01*
X56295000Y-73413820D01*
X56295000Y-73586180D01*
X56328626Y-73755228D01*
X56394585Y-73914468D01*
X56490343Y-74057780D01*
X56612220Y-74179657D01*
X56755532Y-74275415D01*
X56914772Y-74341374D01*
X57083820Y-74375000D01*
X57256180Y-74375000D01*
X57425228Y-74341374D01*
X57584468Y-74275415D01*
X57727780Y-74179657D01*
X57849657Y-74057780D01*
X57945415Y-73914468D01*
X58011374Y-73755228D01*
X58045000Y-73586180D01*
X58045000Y-73413820D01*
X58011374Y-73244772D01*
X57945415Y-73085532D01*
X57849657Y-72942220D01*
X57727780Y-72820343D01*
X57584468Y-72724585D01*
X57425228Y-72658626D01*
X57256180Y-72625000D01*
X57083820Y-72625000D01*
X56914772Y-72658626D01*
X56755532Y-72724585D01*
X56612220Y-72820343D01*
X56490343Y-72942220D01*
X56394585Y-73085532D01*
X56328626Y-73244772D01*
X56295000Y-73413820D01*
X55450000Y-73413820D01*
X55450000Y-66522006D01*
X55466884Y-66349801D01*
X56475000Y-66349801D01*
X56475000Y-66650199D01*
X56533605Y-66944826D01*
X56648562Y-67222358D01*
X56815455Y-67472131D01*
X57027869Y-67684545D01*
X57277642Y-67851438D01*
X57555174Y-67966395D01*
X57849801Y-68025000D01*
X58150199Y-68025000D01*
X58444826Y-67966395D01*
X58722358Y-67851438D01*
X58972131Y-67684545D01*
X59184545Y-67472131D01*
X59351438Y-67222358D01*
X59466395Y-66944826D01*
X59525000Y-66650199D01*
X59525000Y-66600000D01*
X63271976Y-66600000D01*
X63284043Y-66722521D01*
X63319781Y-66840334D01*
X63377817Y-66948911D01*
X63455920Y-67044080D01*
X63551089Y-67122183D01*
X63659666Y-67180219D01*
X63777479Y-67215957D01*
X63900000Y-67228024D01*
X64468750Y-67225000D01*
X64625000Y-67068750D01*
X64625000Y-65875000D01*
X63431250Y-65875000D01*
X63275000Y-66031250D01*
X63271976Y-66600000D01*
X59525000Y-66600000D01*
X59525000Y-66349801D01*
X59466395Y-66055174D01*
X59351438Y-65777642D01*
X59184545Y-65527869D01*
X58972131Y-65315455D01*
X58722358Y-65148562D01*
X58444826Y-65033605D01*
X58150199Y-64975000D01*
X57849801Y-64975000D01*
X57555174Y-65033605D01*
X57277642Y-65148562D01*
X57027869Y-65315455D01*
X56815455Y-65527869D01*
X56648562Y-65777642D01*
X56533605Y-66055174D01*
X56475000Y-66349801D01*
X55466884Y-66349801D01*
X55500681Y-66005124D01*
X55644403Y-65529094D01*
X55877850Y-65090043D01*
X56032845Y-64900000D01*
X63271976Y-64900000D01*
X63275000Y-65468750D01*
X63431250Y-65625000D01*
X64625000Y-65625000D01*
X64625000Y-64431250D01*
X64875000Y-64431250D01*
X64875000Y-65625000D01*
X64895000Y-65625000D01*
X64895000Y-65875000D01*
X64875000Y-65875000D01*
X64875000Y-67068750D01*
X65031250Y-67225000D01*
X65600000Y-67228024D01*
X65722521Y-67215957D01*
X65840334Y-67180219D01*
X65948911Y-67122183D01*
X66044080Y-67044080D01*
X66122183Y-66948911D01*
X66180219Y-66840334D01*
X66215957Y-66722521D01*
X66228024Y-66600000D01*
X66227250Y-66454421D01*
X66299643Y-66562765D01*
X66477235Y-66740357D01*
X66686061Y-66879890D01*
X66918096Y-66976002D01*
X67164423Y-67025000D01*
X67415577Y-67025000D01*
X67661904Y-66976002D01*
X67893939Y-66879890D01*
X68102765Y-66740357D01*
X68280357Y-66562765D01*
X68419890Y-66353939D01*
X68516002Y-66121904D01*
X68560000Y-65900713D01*
X68603998Y-66121904D01*
X68700110Y-66353939D01*
X68839643Y-66562765D01*
X69017235Y-66740357D01*
X69226061Y-66879890D01*
X69458096Y-66976002D01*
X69704423Y-67025000D01*
X69955577Y-67025000D01*
X70201904Y-66976002D01*
X70433939Y-66879890D01*
X70642765Y-66740357D01*
X70820357Y-66562765D01*
X70959890Y-66353939D01*
X71056002Y-66121904D01*
X71100000Y-65900713D01*
X71143998Y-66121904D01*
X71240110Y-66353939D01*
X71379643Y-66562765D01*
X71557235Y-66740357D01*
X71766061Y-66879890D01*
X71998096Y-66976002D01*
X72244423Y-67025000D01*
X72495577Y-67025000D01*
X72741904Y-66976002D01*
X72973939Y-66879890D01*
X73182765Y-66740357D01*
X73360357Y-66562765D01*
X73499890Y-66353939D01*
X73596002Y-66121904D01*
X73599688Y-66103373D01*
X77947950Y-66103373D01*
X78044406Y-66375962D01*
X78192188Y-66624496D01*
X78385617Y-66839423D01*
X78617260Y-67012485D01*
X78878214Y-67137030D01*
X79026628Y-67182045D01*
X79255000Y-67062812D01*
X79255000Y-65875000D01*
X78066551Y-65875000D01*
X77947950Y-66103373D01*
X73599688Y-66103373D01*
X73645000Y-65875577D01*
X73645000Y-65624423D01*
X73599689Y-65396627D01*
X77947950Y-65396627D01*
X78066551Y-65625000D01*
X79255000Y-65625000D01*
X79255000Y-64437188D01*
X79505000Y-64437188D01*
X79505000Y-65625000D01*
X79525000Y-65625000D01*
X79525000Y-65875000D01*
X79505000Y-65875000D01*
X79505000Y-67062812D01*
X79733372Y-67182045D01*
X79881786Y-67137030D01*
X80142740Y-67012485D01*
X80374383Y-66839423D01*
X80567812Y-66624496D01*
X80715594Y-66375962D01*
X80754127Y-66267067D01*
X80790110Y-66353939D01*
X80929643Y-66562765D01*
X81107235Y-66740357D01*
X81316061Y-66879890D01*
X81548096Y-66976002D01*
X81794423Y-67025000D01*
X82045577Y-67025000D01*
X82291904Y-66976002D01*
X82523939Y-66879890D01*
X82732765Y-66740357D01*
X82910357Y-66562765D01*
X83049890Y-66353939D01*
X83146002Y-66121904D01*
X83190000Y-65900713D01*
X83233998Y-66121904D01*
X83330110Y-66353939D01*
X83469643Y-66562765D01*
X83647235Y-66740357D01*
X83856061Y-66879890D01*
X84088096Y-66976002D01*
X84334423Y-67025000D01*
X84585577Y-67025000D01*
X84831904Y-66976002D01*
X85063939Y-66879890D01*
X85272765Y-66740357D01*
X85450357Y-66562765D01*
X85589890Y-66353939D01*
X85686002Y-66121904D01*
X85722944Y-65936186D01*
X85722944Y-66600000D01*
X85731150Y-66683314D01*
X85755452Y-66763427D01*
X85794916Y-66837260D01*
X85848026Y-66901974D01*
X85912740Y-66955084D01*
X85986573Y-66994548D01*
X86066686Y-67018850D01*
X86150000Y-67027056D01*
X87850000Y-67027056D01*
X87933314Y-67018850D01*
X88013427Y-66994548D01*
X88087260Y-66955084D01*
X88151974Y-66901974D01*
X88205084Y-66837260D01*
X88244548Y-66763427D01*
X88268850Y-66683314D01*
X88277056Y-66600000D01*
X88277056Y-66349801D01*
X95975000Y-66349801D01*
X95975000Y-66650199D01*
X96033605Y-66944826D01*
X96148562Y-67222358D01*
X96315455Y-67472131D01*
X96527869Y-67684545D01*
X96777642Y-67851438D01*
X97055174Y-67966395D01*
X97349801Y-68025000D01*
X97650199Y-68025000D01*
X97944826Y-67966395D01*
X98222358Y-67851438D01*
X98472131Y-67684545D01*
X98684545Y-67472131D01*
X98851438Y-67222358D01*
X98966395Y-66944826D01*
X99025000Y-66650199D01*
X99025000Y-66349801D01*
X98966395Y-66055174D01*
X98851438Y-65777642D01*
X98684545Y-65527869D01*
X98472131Y-65315455D01*
X98222358Y-65148562D01*
X97944826Y-65033605D01*
X97650199Y-64975000D01*
X97349801Y-64975000D01*
X97055174Y-65033605D01*
X96777642Y-65148562D01*
X96527869Y-65315455D01*
X96315455Y-65527869D01*
X96148562Y-65777642D01*
X96033605Y-66055174D01*
X95975000Y-66349801D01*
X88277056Y-66349801D01*
X88277056Y-64900000D01*
X88268850Y-64816686D01*
X88244548Y-64736573D01*
X88205084Y-64662740D01*
X88151974Y-64598026D01*
X88087260Y-64544916D01*
X88013427Y-64505452D01*
X87933314Y-64481150D01*
X87850000Y-64472944D01*
X86150000Y-64472944D01*
X86066686Y-64481150D01*
X85986573Y-64505452D01*
X85912740Y-64544916D01*
X85848026Y-64598026D01*
X85794916Y-64662740D01*
X85755452Y-64736573D01*
X85731150Y-64816686D01*
X85722944Y-64900000D01*
X85722944Y-65563814D01*
X85686002Y-65378096D01*
X85589890Y-65146061D01*
X85450357Y-64937235D01*
X85272765Y-64759643D01*
X85063939Y-64620110D01*
X84831904Y-64523998D01*
X84585577Y-64475000D01*
X84334423Y-64475000D01*
X84088096Y-64523998D01*
X83856061Y-64620110D01*
X83647235Y-64759643D01*
X83469643Y-64937235D01*
X83330110Y-65146061D01*
X83233998Y-65378096D01*
X83190000Y-65599287D01*
X83146002Y-65378096D01*
X83049890Y-65146061D01*
X82910357Y-64937235D01*
X82732765Y-64759643D01*
X82523939Y-64620110D01*
X82291904Y-64523998D01*
X82045577Y-64475000D01*
X81794423Y-64475000D01*
X81548096Y-64523998D01*
X81316061Y-64620110D01*
X81107235Y-64759643D01*
X80929643Y-64937235D01*
X80790110Y-65146061D01*
X80754127Y-65232933D01*
X80715594Y-65124038D01*
X80567812Y-64875504D01*
X80374383Y-64660577D01*
X80142740Y-64487515D01*
X79881786Y-64362970D01*
X79733372Y-64317955D01*
X79505000Y-64437188D01*
X79255000Y-64437188D01*
X79026628Y-64317955D01*
X78878214Y-64362970D01*
X78617260Y-64487515D01*
X78385617Y-64660577D01*
X78192188Y-64875504D01*
X78044406Y-65124038D01*
X77947950Y-65396627D01*
X73599689Y-65396627D01*
X73596002Y-65378096D01*
X73499890Y-65146061D01*
X73360357Y-64937235D01*
X73182765Y-64759643D01*
X72973939Y-64620110D01*
X72741904Y-64523998D01*
X72495577Y-64475000D01*
X72244423Y-64475000D01*
X71998096Y-64523998D01*
X71766061Y-64620110D01*
X71557235Y-64759643D01*
X71379643Y-64937235D01*
X71240110Y-65146061D01*
X71143998Y-65378096D01*
X71100000Y-65599287D01*
X71056002Y-65378096D01*
X70959890Y-65146061D01*
X70820357Y-64937235D01*
X70642765Y-64759643D01*
X70433939Y-64620110D01*
X70201904Y-64523998D01*
X69955577Y-64475000D01*
X69704423Y-64475000D01*
X69458096Y-64523998D01*
X69226061Y-64620110D01*
X69017235Y-64759643D01*
X68839643Y-64937235D01*
X68700110Y-65146061D01*
X68603998Y-65378096D01*
X68560000Y-65599287D01*
X68516002Y-65378096D01*
X68419890Y-65146061D01*
X68280357Y-64937235D01*
X68102765Y-64759643D01*
X67893939Y-64620110D01*
X67661904Y-64523998D01*
X67415577Y-64475000D01*
X67164423Y-64475000D01*
X66918096Y-64523998D01*
X66686061Y-64620110D01*
X66477235Y-64759643D01*
X66299643Y-64937235D01*
X66227250Y-65045579D01*
X66228024Y-64900000D01*
X66215957Y-64777479D01*
X66180219Y-64659666D01*
X66122183Y-64551089D01*
X66044080Y-64455920D01*
X65948911Y-64377817D01*
X65840334Y-64319781D01*
X65722521Y-64284043D01*
X65600000Y-64271976D01*
X65031250Y-64275000D01*
X64875000Y-64431250D01*
X64625000Y-64431250D01*
X64468750Y-64275000D01*
X63900000Y-64271976D01*
X63777479Y-64284043D01*
X63659666Y-64319781D01*
X63551089Y-64377817D01*
X63455920Y-64455920D01*
X63377817Y-64551089D01*
X63319781Y-64659666D01*
X63284043Y-64777479D01*
X63271976Y-64900000D01*
X56032845Y-64900000D01*
X56192125Y-64704704D01*
X56575266Y-64387742D01*
X57012670Y-64151239D01*
X57487684Y-64004197D01*
X58003335Y-63950000D01*
X97477994Y-63950000D01*
X97994876Y-64000681D01*
%TD*%
M02*
