%TF.GenerationSoftware,KiCad,Pcbnew,(5.1.6)-1*%
%TF.CreationDate,2022-03-08T04:09:40+09:00*%
%TF.ProjectId,STM32-project,53544d33-322d-4707-926f-6a6563742e6b,rev?*%
%TF.SameCoordinates,Original*%
%TF.FileFunction,Legend,Bot*%
%TF.FilePolarity,Positive*%
%FSLAX46Y46*%
G04 Gerber Fmt 4.6, Leading zero omitted, Abs format (unit mm)*
G04 Created by KiCad (PCBNEW (5.1.6)-1) date 2022-03-08 04:09:40*
%MOMM*%
%LPD*%
G01*
G04 APERTURE LIST*
%ADD10C,0.150000*%
G04 APERTURE END LIST*
D10*
X99559523Y-78377380D02*
X98940476Y-78377380D01*
X99273809Y-78758333D01*
X99130952Y-78758333D01*
X99035714Y-78805952D01*
X98988095Y-78853571D01*
X98940476Y-78948809D01*
X98940476Y-79186904D01*
X98988095Y-79282142D01*
X99035714Y-79329761D01*
X99130952Y-79377380D01*
X99416666Y-79377380D01*
X99511904Y-79329761D01*
X99559523Y-79282142D01*
X97797619Y-78329761D02*
X98654761Y-79615476D01*
X97511904Y-78472619D02*
X97464285Y-78425000D01*
X97369047Y-78377380D01*
X97130952Y-78377380D01*
X97035714Y-78425000D01*
X96988095Y-78472619D01*
X96940476Y-78567857D01*
X96940476Y-78663095D01*
X96988095Y-78805952D01*
X97559523Y-79377380D01*
X96940476Y-79377380D01*
X96559523Y-78472619D02*
X96511904Y-78425000D01*
X96416666Y-78377380D01*
X96178571Y-78377380D01*
X96083333Y-78425000D01*
X96035714Y-78472619D01*
X95988095Y-78567857D01*
X95988095Y-78663095D01*
X96035714Y-78805952D01*
X96607142Y-79377380D01*
X95988095Y-79377380D01*
X99321428Y-80027380D02*
X98988095Y-81027380D01*
X98654761Y-80027380D01*
X98130952Y-80027380D02*
X97940476Y-80027380D01*
X97845238Y-80075000D01*
X97750000Y-80170238D01*
X97702380Y-80360714D01*
X97702380Y-80694047D01*
X97750000Y-80884523D01*
X97845238Y-80979761D01*
X97940476Y-81027380D01*
X98130952Y-81027380D01*
X98226190Y-80979761D01*
X98321428Y-80884523D01*
X98369047Y-80694047D01*
X98369047Y-80360714D01*
X98321428Y-80170238D01*
X98226190Y-80075000D01*
X98130952Y-80027380D01*
X97273809Y-80932142D02*
X97226190Y-80979761D01*
X97273809Y-81027380D01*
X97321428Y-80979761D01*
X97273809Y-80932142D01*
X97273809Y-81027380D01*
X96273809Y-81027380D02*
X96845238Y-81027380D01*
X96559523Y-81027380D02*
X96559523Y-80027380D01*
X96654761Y-80170238D01*
X96750000Y-80265476D01*
X96845238Y-80313095D01*
M02*
