M48
; DRILL file {KiCad (5.1.6)-1} date 03/08/22 04:09:27
; FORMAT={-:-/ absolute / metric / decimal}
; #@! TF.CreationDate,2022-03-08T04:09:27+09:00
; #@! TF.GenerationSoftware,Kicad,Pcbnew,(5.1.6)-1
FMAT,2
METRIC
T1C0.300
T2C0.550
T3C0.850
T4C1.000
T5C0.800
T6C0.900
T7C2.200
%
G90
G05
T1
X59.25Y-71.75
X63.55Y-83.45
X65.95Y-75.8
X67.75Y-76.25
X67.76Y-92.055
X68.235Y-81.515
X68.75Y-85.5
X69.515Y-87.985
X69.717Y-92.033
X69.717Y-92.033
X70.0Y-75.0
X70.5Y-76.0
X71.0Y-74.0
X73.25Y-91.75
X73.75Y-81.25
X75.0Y-71.75
X75.5Y-91.75
X76.25Y-86.5
X78.75Y-83.25
X83.25Y-78.625
X88.25Y-87.5
X88.5Y-83.0
X88.5Y-84.0
X89.25Y-87.5
X92.75Y-88.0
X93.55Y-78.2
X96.75Y-85.5
T4
X79.38Y-65.75
X81.92Y-65.75
X84.46Y-65.75
X87.0Y-65.75
X64.75Y-65.75
X67.29Y-65.75
X69.83Y-65.75
X72.37Y-65.75
X72.5Y-95.0
X75.04Y-95.0
X77.58Y-95.0
X80.12Y-95.0
T5
X95.7Y-77.0
X95.7Y-82.0
T6
X57.17Y-73.5
X57.17Y-76.5
T7
X97.5Y-94.25
X97.5Y-66.5
X58.0Y-94.25
X58.0Y-66.5
T2
G00X98.125Y-75.625
M15
G01X98.775Y-75.625
M16
G05
G00X98.125Y-83.375
M15
G01X98.775Y-83.375
M16
G05
T3
G00X94.375Y-75.775
M15
G01X94.925Y-75.775
M16
G05
G00X94.375Y-83.225
M15
G01X94.925Y-83.225
M16
G05
T0
M30
