%TF.GenerationSoftware,KiCad,Pcbnew,(5.1.6)-1*%
%TF.CreationDate,2022-03-08T04:09:40+09:00*%
%TF.ProjectId,STM32-project,53544d33-322d-4707-926f-6a6563742e6b,rev?*%
%TF.SameCoordinates,Original*%
%TF.FileFunction,Copper,L1,Top*%
%TF.FilePolarity,Positive*%
%FSLAX46Y46*%
G04 Gerber Fmt 4.6, Leading zero omitted, Abs format (unit mm)*
G04 Created by KiCad (PCBNEW (5.1.6)-1) date 2022-03-08 04:09:40*
%MOMM*%
%LPD*%
G01*
G04 APERTURE LIST*
%TA.AperFunction,ComponentPad*%
%ADD10O,1.800000X1.150000*%
%TD*%
%TA.AperFunction,ComponentPad*%
%ADD11O,2.000000X1.450000*%
%TD*%
%TA.AperFunction,SMDPad,CuDef*%
%ADD12R,1.300000X0.450000*%
%TD*%
%TA.AperFunction,SMDPad,CuDef*%
%ADD13R,0.800000X1.000000*%
%TD*%
%TA.AperFunction,SMDPad,CuDef*%
%ADD14R,1.500000X0.700000*%
%TD*%
%TA.AperFunction,SMDPad,CuDef*%
%ADD15R,1.400000X1.800000*%
%TD*%
%TA.AperFunction,SMDPad,CuDef*%
%ADD16R,1.500000X2.000000*%
%TD*%
%TA.AperFunction,SMDPad,CuDef*%
%ADD17R,3.800000X2.000000*%
%TD*%
%TA.AperFunction,ComponentPad*%
%ADD18O,1.700000X1.700000*%
%TD*%
%TA.AperFunction,ComponentPad*%
%ADD19R,1.700000X1.700000*%
%TD*%
%TA.AperFunction,ViaPad*%
%ADD20C,0.700000*%
%TD*%
%TA.AperFunction,Conductor*%
%ADD21C,0.300000*%
%TD*%
%TA.AperFunction,Conductor*%
%ADD22C,0.500000*%
%TD*%
%TA.AperFunction,Conductor*%
%ADD23C,0.250000*%
%TD*%
G04 APERTURE END LIST*
D10*
%TO.P,J1,6*%
%TO.N,Net-(J1-Pad6)*%
X98450000Y-75625000D03*
X98450000Y-83375000D03*
D11*
X94650000Y-75775000D03*
X94650000Y-83225000D03*
D12*
%TO.P,J1,5*%
%TO.N,GND*%
X94600000Y-78200000D03*
%TO.P,J1,4*%
%TO.N,Net-(J1-Pad4)*%
X94600000Y-78850000D03*
%TO.P,J1,3*%
%TO.N,/USB_D+*%
X94600000Y-79500000D03*
%TO.P,J1,2*%
%TO.N,/USB_D-*%
X94600000Y-80150000D03*
%TO.P,J1,1*%
%TO.N,VBUS*%
X94600000Y-80800000D03*
%TD*%
D13*
%TO.P,SW1,*%
%TO.N,*%
X58280000Y-71350000D03*
X58280000Y-78650000D03*
X56070000Y-78650000D03*
X56070000Y-71350000D03*
D14*
%TO.P,SW1,3*%
%TO.N,+3V3*%
X58930000Y-77250000D03*
%TO.P,SW1,2*%
%TO.N,Net-(R2-Pad2)*%
X58930000Y-75750000D03*
%TO.P,SW1,1*%
%TO.N,GND*%
X58930000Y-72750000D03*
%TD*%
D15*
%TO.P,Y1,4*%
%TO.N,GND*%
X65950000Y-77300000D03*
%TO.P,Y1,3*%
%TO.N,/HSE_OUT*%
X65950000Y-81700000D03*
%TO.P,Y1,2*%
%TO.N,GND*%
X63550000Y-81700000D03*
%TO.P,Y1,1*%
%TO.N,/HSE_IN*%
X63550000Y-77300000D03*
%TD*%
%TO.P,U2,48*%
%TO.N,+3V3*%
%TA.AperFunction,SMDPad,CuDef*%
G36*
G01*
X73600000Y-77000000D02*
X73600000Y-75675000D01*
G75*
G02*
X73675000Y-75600000I75000J0D01*
G01*
X73825000Y-75600000D01*
G75*
G02*
X73900000Y-75675000I0J-75000D01*
G01*
X73900000Y-77000000D01*
G75*
G02*
X73825000Y-77075000I-75000J0D01*
G01*
X73675000Y-77075000D01*
G75*
G02*
X73600000Y-77000000I0J75000D01*
G01*
G37*
%TD.AperFunction*%
%TO.P,U2,47*%
%TO.N,GND*%
%TA.AperFunction,SMDPad,CuDef*%
G36*
G01*
X74100000Y-77000000D02*
X74100000Y-75675000D01*
G75*
G02*
X74175000Y-75600000I75000J0D01*
G01*
X74325000Y-75600000D01*
G75*
G02*
X74400000Y-75675000I0J-75000D01*
G01*
X74400000Y-77000000D01*
G75*
G02*
X74325000Y-77075000I-75000J0D01*
G01*
X74175000Y-77075000D01*
G75*
G02*
X74100000Y-77000000I0J75000D01*
G01*
G37*
%TD.AperFunction*%
%TO.P,U2,46*%
%TO.N,Net-(U2-Pad46)*%
%TA.AperFunction,SMDPad,CuDef*%
G36*
G01*
X74600000Y-77000000D02*
X74600000Y-75675000D01*
G75*
G02*
X74675000Y-75600000I75000J0D01*
G01*
X74825000Y-75600000D01*
G75*
G02*
X74900000Y-75675000I0J-75000D01*
G01*
X74900000Y-77000000D01*
G75*
G02*
X74825000Y-77075000I-75000J0D01*
G01*
X74675000Y-77075000D01*
G75*
G02*
X74600000Y-77000000I0J75000D01*
G01*
G37*
%TD.AperFunction*%
%TO.P,U2,45*%
%TO.N,Net-(U2-Pad45)*%
%TA.AperFunction,SMDPad,CuDef*%
G36*
G01*
X75100000Y-77000000D02*
X75100000Y-75675000D01*
G75*
G02*
X75175000Y-75600000I75000J0D01*
G01*
X75325000Y-75600000D01*
G75*
G02*
X75400000Y-75675000I0J-75000D01*
G01*
X75400000Y-77000000D01*
G75*
G02*
X75325000Y-77075000I-75000J0D01*
G01*
X75175000Y-77075000D01*
G75*
G02*
X75100000Y-77000000I0J75000D01*
G01*
G37*
%TD.AperFunction*%
%TO.P,U2,44*%
%TO.N,Net-(R2-Pad1)*%
%TA.AperFunction,SMDPad,CuDef*%
G36*
G01*
X75600000Y-77000000D02*
X75600000Y-75675000D01*
G75*
G02*
X75675000Y-75600000I75000J0D01*
G01*
X75825000Y-75600000D01*
G75*
G02*
X75900000Y-75675000I0J-75000D01*
G01*
X75900000Y-77000000D01*
G75*
G02*
X75825000Y-77075000I-75000J0D01*
G01*
X75675000Y-77075000D01*
G75*
G02*
X75600000Y-77000000I0J75000D01*
G01*
G37*
%TD.AperFunction*%
%TO.P,U2,43*%
%TO.N,/USART1_RX*%
%TA.AperFunction,SMDPad,CuDef*%
G36*
G01*
X76100000Y-77000000D02*
X76100000Y-75675000D01*
G75*
G02*
X76175000Y-75600000I75000J0D01*
G01*
X76325000Y-75600000D01*
G75*
G02*
X76400000Y-75675000I0J-75000D01*
G01*
X76400000Y-77000000D01*
G75*
G02*
X76325000Y-77075000I-75000J0D01*
G01*
X76175000Y-77075000D01*
G75*
G02*
X76100000Y-77000000I0J75000D01*
G01*
G37*
%TD.AperFunction*%
%TO.P,U2,42*%
%TO.N,/USART1_TX*%
%TA.AperFunction,SMDPad,CuDef*%
G36*
G01*
X76600000Y-77000000D02*
X76600000Y-75675000D01*
G75*
G02*
X76675000Y-75600000I75000J0D01*
G01*
X76825000Y-75600000D01*
G75*
G02*
X76900000Y-75675000I0J-75000D01*
G01*
X76900000Y-77000000D01*
G75*
G02*
X76825000Y-77075000I-75000J0D01*
G01*
X76675000Y-77075000D01*
G75*
G02*
X76600000Y-77000000I0J75000D01*
G01*
G37*
%TD.AperFunction*%
%TO.P,U2,41*%
%TO.N,Net-(U2-Pad41)*%
%TA.AperFunction,SMDPad,CuDef*%
G36*
G01*
X77100000Y-77000000D02*
X77100000Y-75675000D01*
G75*
G02*
X77175000Y-75600000I75000J0D01*
G01*
X77325000Y-75600000D01*
G75*
G02*
X77400000Y-75675000I0J-75000D01*
G01*
X77400000Y-77000000D01*
G75*
G02*
X77325000Y-77075000I-75000J0D01*
G01*
X77175000Y-77075000D01*
G75*
G02*
X77100000Y-77000000I0J75000D01*
G01*
G37*
%TD.AperFunction*%
%TO.P,U2,40*%
%TO.N,Net-(U2-Pad40)*%
%TA.AperFunction,SMDPad,CuDef*%
G36*
G01*
X77600000Y-77000000D02*
X77600000Y-75675000D01*
G75*
G02*
X77675000Y-75600000I75000J0D01*
G01*
X77825000Y-75600000D01*
G75*
G02*
X77900000Y-75675000I0J-75000D01*
G01*
X77900000Y-77000000D01*
G75*
G02*
X77825000Y-77075000I-75000J0D01*
G01*
X77675000Y-77075000D01*
G75*
G02*
X77600000Y-77000000I0J75000D01*
G01*
G37*
%TD.AperFunction*%
%TO.P,U2,39*%
%TO.N,Net-(U2-Pad39)*%
%TA.AperFunction,SMDPad,CuDef*%
G36*
G01*
X78100000Y-77000000D02*
X78100000Y-75675000D01*
G75*
G02*
X78175000Y-75600000I75000J0D01*
G01*
X78325000Y-75600000D01*
G75*
G02*
X78400000Y-75675000I0J-75000D01*
G01*
X78400000Y-77000000D01*
G75*
G02*
X78325000Y-77075000I-75000J0D01*
G01*
X78175000Y-77075000D01*
G75*
G02*
X78100000Y-77000000I0J75000D01*
G01*
G37*
%TD.AperFunction*%
%TO.P,U2,38*%
%TO.N,Net-(U2-Pad38)*%
%TA.AperFunction,SMDPad,CuDef*%
G36*
G01*
X78600000Y-77000000D02*
X78600000Y-75675000D01*
G75*
G02*
X78675000Y-75600000I75000J0D01*
G01*
X78825000Y-75600000D01*
G75*
G02*
X78900000Y-75675000I0J-75000D01*
G01*
X78900000Y-77000000D01*
G75*
G02*
X78825000Y-77075000I-75000J0D01*
G01*
X78675000Y-77075000D01*
G75*
G02*
X78600000Y-77000000I0J75000D01*
G01*
G37*
%TD.AperFunction*%
%TO.P,U2,37*%
%TO.N,/SWCLK*%
%TA.AperFunction,SMDPad,CuDef*%
G36*
G01*
X79100000Y-77000000D02*
X79100000Y-75675000D01*
G75*
G02*
X79175000Y-75600000I75000J0D01*
G01*
X79325000Y-75600000D01*
G75*
G02*
X79400000Y-75675000I0J-75000D01*
G01*
X79400000Y-77000000D01*
G75*
G02*
X79325000Y-77075000I-75000J0D01*
G01*
X79175000Y-77075000D01*
G75*
G02*
X79100000Y-77000000I0J75000D01*
G01*
G37*
%TD.AperFunction*%
%TO.P,U2,36*%
%TO.N,+3V3*%
%TA.AperFunction,SMDPad,CuDef*%
G36*
G01*
X79925000Y-77825000D02*
X79925000Y-77675000D01*
G75*
G02*
X80000000Y-77600000I75000J0D01*
G01*
X81325000Y-77600000D01*
G75*
G02*
X81400000Y-77675000I0J-75000D01*
G01*
X81400000Y-77825000D01*
G75*
G02*
X81325000Y-77900000I-75000J0D01*
G01*
X80000000Y-77900000D01*
G75*
G02*
X79925000Y-77825000I0J75000D01*
G01*
G37*
%TD.AperFunction*%
%TO.P,U2,35*%
%TO.N,GND*%
%TA.AperFunction,SMDPad,CuDef*%
G36*
G01*
X79925000Y-78325000D02*
X79925000Y-78175000D01*
G75*
G02*
X80000000Y-78100000I75000J0D01*
G01*
X81325000Y-78100000D01*
G75*
G02*
X81400000Y-78175000I0J-75000D01*
G01*
X81400000Y-78325000D01*
G75*
G02*
X81325000Y-78400000I-75000J0D01*
G01*
X80000000Y-78400000D01*
G75*
G02*
X79925000Y-78325000I0J75000D01*
G01*
G37*
%TD.AperFunction*%
%TO.P,U2,34*%
%TO.N,/SWDI0*%
%TA.AperFunction,SMDPad,CuDef*%
G36*
G01*
X79925000Y-78825000D02*
X79925000Y-78675000D01*
G75*
G02*
X80000000Y-78600000I75000J0D01*
G01*
X81325000Y-78600000D01*
G75*
G02*
X81400000Y-78675000I0J-75000D01*
G01*
X81400000Y-78825000D01*
G75*
G02*
X81325000Y-78900000I-75000J0D01*
G01*
X80000000Y-78900000D01*
G75*
G02*
X79925000Y-78825000I0J75000D01*
G01*
G37*
%TD.AperFunction*%
%TO.P,U2,33*%
%TO.N,/USB_D+*%
%TA.AperFunction,SMDPad,CuDef*%
G36*
G01*
X79925000Y-79325000D02*
X79925000Y-79175000D01*
G75*
G02*
X80000000Y-79100000I75000J0D01*
G01*
X81325000Y-79100000D01*
G75*
G02*
X81400000Y-79175000I0J-75000D01*
G01*
X81400000Y-79325000D01*
G75*
G02*
X81325000Y-79400000I-75000J0D01*
G01*
X80000000Y-79400000D01*
G75*
G02*
X79925000Y-79325000I0J75000D01*
G01*
G37*
%TD.AperFunction*%
%TO.P,U2,32*%
%TO.N,/USB_D-*%
%TA.AperFunction,SMDPad,CuDef*%
G36*
G01*
X79925000Y-79825000D02*
X79925000Y-79675000D01*
G75*
G02*
X80000000Y-79600000I75000J0D01*
G01*
X81325000Y-79600000D01*
G75*
G02*
X81400000Y-79675000I0J-75000D01*
G01*
X81400000Y-79825000D01*
G75*
G02*
X81325000Y-79900000I-75000J0D01*
G01*
X80000000Y-79900000D01*
G75*
G02*
X79925000Y-79825000I0J75000D01*
G01*
G37*
%TD.AperFunction*%
%TO.P,U2,31*%
%TO.N,Net-(U2-Pad31)*%
%TA.AperFunction,SMDPad,CuDef*%
G36*
G01*
X79925000Y-80325000D02*
X79925000Y-80175000D01*
G75*
G02*
X80000000Y-80100000I75000J0D01*
G01*
X81325000Y-80100000D01*
G75*
G02*
X81400000Y-80175000I0J-75000D01*
G01*
X81400000Y-80325000D01*
G75*
G02*
X81325000Y-80400000I-75000J0D01*
G01*
X80000000Y-80400000D01*
G75*
G02*
X79925000Y-80325000I0J75000D01*
G01*
G37*
%TD.AperFunction*%
%TO.P,U2,30*%
%TO.N,Net-(U2-Pad30)*%
%TA.AperFunction,SMDPad,CuDef*%
G36*
G01*
X79925000Y-80825000D02*
X79925000Y-80675000D01*
G75*
G02*
X80000000Y-80600000I75000J0D01*
G01*
X81325000Y-80600000D01*
G75*
G02*
X81400000Y-80675000I0J-75000D01*
G01*
X81400000Y-80825000D01*
G75*
G02*
X81325000Y-80900000I-75000J0D01*
G01*
X80000000Y-80900000D01*
G75*
G02*
X79925000Y-80825000I0J75000D01*
G01*
G37*
%TD.AperFunction*%
%TO.P,U2,29*%
%TO.N,Net-(U2-Pad29)*%
%TA.AperFunction,SMDPad,CuDef*%
G36*
G01*
X79925000Y-81325000D02*
X79925000Y-81175000D01*
G75*
G02*
X80000000Y-81100000I75000J0D01*
G01*
X81325000Y-81100000D01*
G75*
G02*
X81400000Y-81175000I0J-75000D01*
G01*
X81400000Y-81325000D01*
G75*
G02*
X81325000Y-81400000I-75000J0D01*
G01*
X80000000Y-81400000D01*
G75*
G02*
X79925000Y-81325000I0J75000D01*
G01*
G37*
%TD.AperFunction*%
%TO.P,U2,28*%
%TO.N,Net-(U2-Pad28)*%
%TA.AperFunction,SMDPad,CuDef*%
G36*
G01*
X79925000Y-81825000D02*
X79925000Y-81675000D01*
G75*
G02*
X80000000Y-81600000I75000J0D01*
G01*
X81325000Y-81600000D01*
G75*
G02*
X81400000Y-81675000I0J-75000D01*
G01*
X81400000Y-81825000D01*
G75*
G02*
X81325000Y-81900000I-75000J0D01*
G01*
X80000000Y-81900000D01*
G75*
G02*
X79925000Y-81825000I0J75000D01*
G01*
G37*
%TD.AperFunction*%
%TO.P,U2,27*%
%TO.N,Net-(U2-Pad27)*%
%TA.AperFunction,SMDPad,CuDef*%
G36*
G01*
X79925000Y-82325000D02*
X79925000Y-82175000D01*
G75*
G02*
X80000000Y-82100000I75000J0D01*
G01*
X81325000Y-82100000D01*
G75*
G02*
X81400000Y-82175000I0J-75000D01*
G01*
X81400000Y-82325000D01*
G75*
G02*
X81325000Y-82400000I-75000J0D01*
G01*
X80000000Y-82400000D01*
G75*
G02*
X79925000Y-82325000I0J75000D01*
G01*
G37*
%TD.AperFunction*%
%TO.P,U2,26*%
%TO.N,Net-(U2-Pad26)*%
%TA.AperFunction,SMDPad,CuDef*%
G36*
G01*
X79925000Y-82825000D02*
X79925000Y-82675000D01*
G75*
G02*
X80000000Y-82600000I75000J0D01*
G01*
X81325000Y-82600000D01*
G75*
G02*
X81400000Y-82675000I0J-75000D01*
G01*
X81400000Y-82825000D01*
G75*
G02*
X81325000Y-82900000I-75000J0D01*
G01*
X80000000Y-82900000D01*
G75*
G02*
X79925000Y-82825000I0J75000D01*
G01*
G37*
%TD.AperFunction*%
%TO.P,U2,25*%
%TO.N,Net-(U2-Pad25)*%
%TA.AperFunction,SMDPad,CuDef*%
G36*
G01*
X79925000Y-83325000D02*
X79925000Y-83175000D01*
G75*
G02*
X80000000Y-83100000I75000J0D01*
G01*
X81325000Y-83100000D01*
G75*
G02*
X81400000Y-83175000I0J-75000D01*
G01*
X81400000Y-83325000D01*
G75*
G02*
X81325000Y-83400000I-75000J0D01*
G01*
X80000000Y-83400000D01*
G75*
G02*
X79925000Y-83325000I0J75000D01*
G01*
G37*
%TD.AperFunction*%
%TO.P,U2,24*%
%TO.N,+3V3*%
%TA.AperFunction,SMDPad,CuDef*%
G36*
G01*
X79100000Y-85325000D02*
X79100000Y-84000000D01*
G75*
G02*
X79175000Y-83925000I75000J0D01*
G01*
X79325000Y-83925000D01*
G75*
G02*
X79400000Y-84000000I0J-75000D01*
G01*
X79400000Y-85325000D01*
G75*
G02*
X79325000Y-85400000I-75000J0D01*
G01*
X79175000Y-85400000D01*
G75*
G02*
X79100000Y-85325000I0J75000D01*
G01*
G37*
%TD.AperFunction*%
%TO.P,U2,23*%
%TO.N,GND*%
%TA.AperFunction,SMDPad,CuDef*%
G36*
G01*
X78600000Y-85325000D02*
X78600000Y-84000000D01*
G75*
G02*
X78675000Y-83925000I75000J0D01*
G01*
X78825000Y-83925000D01*
G75*
G02*
X78900000Y-84000000I0J-75000D01*
G01*
X78900000Y-85325000D01*
G75*
G02*
X78825000Y-85400000I-75000J0D01*
G01*
X78675000Y-85400000D01*
G75*
G02*
X78600000Y-85325000I0J75000D01*
G01*
G37*
%TD.AperFunction*%
%TO.P,U2,22*%
%TO.N,/I2C2_SDA*%
%TA.AperFunction,SMDPad,CuDef*%
G36*
G01*
X78100000Y-85325000D02*
X78100000Y-84000000D01*
G75*
G02*
X78175000Y-83925000I75000J0D01*
G01*
X78325000Y-83925000D01*
G75*
G02*
X78400000Y-84000000I0J-75000D01*
G01*
X78400000Y-85325000D01*
G75*
G02*
X78325000Y-85400000I-75000J0D01*
G01*
X78175000Y-85400000D01*
G75*
G02*
X78100000Y-85325000I0J75000D01*
G01*
G37*
%TD.AperFunction*%
%TO.P,U2,21*%
%TO.N,/I2C2_SCL*%
%TA.AperFunction,SMDPad,CuDef*%
G36*
G01*
X77600000Y-85325000D02*
X77600000Y-84000000D01*
G75*
G02*
X77675000Y-83925000I75000J0D01*
G01*
X77825000Y-83925000D01*
G75*
G02*
X77900000Y-84000000I0J-75000D01*
G01*
X77900000Y-85325000D01*
G75*
G02*
X77825000Y-85400000I-75000J0D01*
G01*
X77675000Y-85400000D01*
G75*
G02*
X77600000Y-85325000I0J75000D01*
G01*
G37*
%TD.AperFunction*%
%TO.P,U2,20*%
%TO.N,Net-(U2-Pad20)*%
%TA.AperFunction,SMDPad,CuDef*%
G36*
G01*
X77100000Y-85325000D02*
X77100000Y-84000000D01*
G75*
G02*
X77175000Y-83925000I75000J0D01*
G01*
X77325000Y-83925000D01*
G75*
G02*
X77400000Y-84000000I0J-75000D01*
G01*
X77400000Y-85325000D01*
G75*
G02*
X77325000Y-85400000I-75000J0D01*
G01*
X77175000Y-85400000D01*
G75*
G02*
X77100000Y-85325000I0J75000D01*
G01*
G37*
%TD.AperFunction*%
%TO.P,U2,19*%
%TO.N,Net-(U2-Pad19)*%
%TA.AperFunction,SMDPad,CuDef*%
G36*
G01*
X76600000Y-85325000D02*
X76600000Y-84000000D01*
G75*
G02*
X76675000Y-83925000I75000J0D01*
G01*
X76825000Y-83925000D01*
G75*
G02*
X76900000Y-84000000I0J-75000D01*
G01*
X76900000Y-85325000D01*
G75*
G02*
X76825000Y-85400000I-75000J0D01*
G01*
X76675000Y-85400000D01*
G75*
G02*
X76600000Y-85325000I0J75000D01*
G01*
G37*
%TD.AperFunction*%
%TO.P,U2,18*%
%TO.N,Net-(U2-Pad18)*%
%TA.AperFunction,SMDPad,CuDef*%
G36*
G01*
X76100000Y-85325000D02*
X76100000Y-84000000D01*
G75*
G02*
X76175000Y-83925000I75000J0D01*
G01*
X76325000Y-83925000D01*
G75*
G02*
X76400000Y-84000000I0J-75000D01*
G01*
X76400000Y-85325000D01*
G75*
G02*
X76325000Y-85400000I-75000J0D01*
G01*
X76175000Y-85400000D01*
G75*
G02*
X76100000Y-85325000I0J75000D01*
G01*
G37*
%TD.AperFunction*%
%TO.P,U2,17*%
%TO.N,Net-(U2-Pad17)*%
%TA.AperFunction,SMDPad,CuDef*%
G36*
G01*
X75600000Y-85325000D02*
X75600000Y-84000000D01*
G75*
G02*
X75675000Y-83925000I75000J0D01*
G01*
X75825000Y-83925000D01*
G75*
G02*
X75900000Y-84000000I0J-75000D01*
G01*
X75900000Y-85325000D01*
G75*
G02*
X75825000Y-85400000I-75000J0D01*
G01*
X75675000Y-85400000D01*
G75*
G02*
X75600000Y-85325000I0J75000D01*
G01*
G37*
%TD.AperFunction*%
%TO.P,U2,16*%
%TO.N,Net-(U2-Pad16)*%
%TA.AperFunction,SMDPad,CuDef*%
G36*
G01*
X75100000Y-85325000D02*
X75100000Y-84000000D01*
G75*
G02*
X75175000Y-83925000I75000J0D01*
G01*
X75325000Y-83925000D01*
G75*
G02*
X75400000Y-84000000I0J-75000D01*
G01*
X75400000Y-85325000D01*
G75*
G02*
X75325000Y-85400000I-75000J0D01*
G01*
X75175000Y-85400000D01*
G75*
G02*
X75100000Y-85325000I0J75000D01*
G01*
G37*
%TD.AperFunction*%
%TO.P,U2,15*%
%TO.N,Net-(U2-Pad15)*%
%TA.AperFunction,SMDPad,CuDef*%
G36*
G01*
X74600000Y-85325000D02*
X74600000Y-84000000D01*
G75*
G02*
X74675000Y-83925000I75000J0D01*
G01*
X74825000Y-83925000D01*
G75*
G02*
X74900000Y-84000000I0J-75000D01*
G01*
X74900000Y-85325000D01*
G75*
G02*
X74825000Y-85400000I-75000J0D01*
G01*
X74675000Y-85400000D01*
G75*
G02*
X74600000Y-85325000I0J75000D01*
G01*
G37*
%TD.AperFunction*%
%TO.P,U2,14*%
%TO.N,Net-(U2-Pad14)*%
%TA.AperFunction,SMDPad,CuDef*%
G36*
G01*
X74100000Y-85325000D02*
X74100000Y-84000000D01*
G75*
G02*
X74175000Y-83925000I75000J0D01*
G01*
X74325000Y-83925000D01*
G75*
G02*
X74400000Y-84000000I0J-75000D01*
G01*
X74400000Y-85325000D01*
G75*
G02*
X74325000Y-85400000I-75000J0D01*
G01*
X74175000Y-85400000D01*
G75*
G02*
X74100000Y-85325000I0J75000D01*
G01*
G37*
%TD.AperFunction*%
%TO.P,U2,13*%
%TO.N,Net-(U2-Pad13)*%
%TA.AperFunction,SMDPad,CuDef*%
G36*
G01*
X73600000Y-85325000D02*
X73600000Y-84000000D01*
G75*
G02*
X73675000Y-83925000I75000J0D01*
G01*
X73825000Y-83925000D01*
G75*
G02*
X73900000Y-84000000I0J-75000D01*
G01*
X73900000Y-85325000D01*
G75*
G02*
X73825000Y-85400000I-75000J0D01*
G01*
X73675000Y-85400000D01*
G75*
G02*
X73600000Y-85325000I0J75000D01*
G01*
G37*
%TD.AperFunction*%
%TO.P,U2,12*%
%TO.N,Net-(U2-Pad12)*%
%TA.AperFunction,SMDPad,CuDef*%
G36*
G01*
X71600000Y-83325000D02*
X71600000Y-83175000D01*
G75*
G02*
X71675000Y-83100000I75000J0D01*
G01*
X73000000Y-83100000D01*
G75*
G02*
X73075000Y-83175000I0J-75000D01*
G01*
X73075000Y-83325000D01*
G75*
G02*
X73000000Y-83400000I-75000J0D01*
G01*
X71675000Y-83400000D01*
G75*
G02*
X71600000Y-83325000I0J75000D01*
G01*
G37*
%TD.AperFunction*%
%TO.P,U2,11*%
%TO.N,Net-(U2-Pad11)*%
%TA.AperFunction,SMDPad,CuDef*%
G36*
G01*
X71600000Y-82825000D02*
X71600000Y-82675000D01*
G75*
G02*
X71675000Y-82600000I75000J0D01*
G01*
X73000000Y-82600000D01*
G75*
G02*
X73075000Y-82675000I0J-75000D01*
G01*
X73075000Y-82825000D01*
G75*
G02*
X73000000Y-82900000I-75000J0D01*
G01*
X71675000Y-82900000D01*
G75*
G02*
X71600000Y-82825000I0J75000D01*
G01*
G37*
%TD.AperFunction*%
%TO.P,U2,10*%
%TO.N,Net-(U2-Pad10)*%
%TA.AperFunction,SMDPad,CuDef*%
G36*
G01*
X71600000Y-82325000D02*
X71600000Y-82175000D01*
G75*
G02*
X71675000Y-82100000I75000J0D01*
G01*
X73000000Y-82100000D01*
G75*
G02*
X73075000Y-82175000I0J-75000D01*
G01*
X73075000Y-82325000D01*
G75*
G02*
X73000000Y-82400000I-75000J0D01*
G01*
X71675000Y-82400000D01*
G75*
G02*
X71600000Y-82325000I0J75000D01*
G01*
G37*
%TD.AperFunction*%
%TO.P,U2,9*%
%TO.N,+3.3VA*%
%TA.AperFunction,SMDPad,CuDef*%
G36*
G01*
X71600000Y-81825000D02*
X71600000Y-81675000D01*
G75*
G02*
X71675000Y-81600000I75000J0D01*
G01*
X73000000Y-81600000D01*
G75*
G02*
X73075000Y-81675000I0J-75000D01*
G01*
X73075000Y-81825000D01*
G75*
G02*
X73000000Y-81900000I-75000J0D01*
G01*
X71675000Y-81900000D01*
G75*
G02*
X71600000Y-81825000I0J75000D01*
G01*
G37*
%TD.AperFunction*%
%TO.P,U2,8*%
%TO.N,GND*%
%TA.AperFunction,SMDPad,CuDef*%
G36*
G01*
X71600000Y-81325000D02*
X71600000Y-81175000D01*
G75*
G02*
X71675000Y-81100000I75000J0D01*
G01*
X73000000Y-81100000D01*
G75*
G02*
X73075000Y-81175000I0J-75000D01*
G01*
X73075000Y-81325000D01*
G75*
G02*
X73000000Y-81400000I-75000J0D01*
G01*
X71675000Y-81400000D01*
G75*
G02*
X71600000Y-81325000I0J75000D01*
G01*
G37*
%TD.AperFunction*%
%TO.P,U2,7*%
%TO.N,/NRST*%
%TA.AperFunction,SMDPad,CuDef*%
G36*
G01*
X71600000Y-80825000D02*
X71600000Y-80675000D01*
G75*
G02*
X71675000Y-80600000I75000J0D01*
G01*
X73000000Y-80600000D01*
G75*
G02*
X73075000Y-80675000I0J-75000D01*
G01*
X73075000Y-80825000D01*
G75*
G02*
X73000000Y-80900000I-75000J0D01*
G01*
X71675000Y-80900000D01*
G75*
G02*
X71600000Y-80825000I0J75000D01*
G01*
G37*
%TD.AperFunction*%
%TO.P,U2,6*%
%TO.N,/HSE_OUT*%
%TA.AperFunction,SMDPad,CuDef*%
G36*
G01*
X71600000Y-80325000D02*
X71600000Y-80175000D01*
G75*
G02*
X71675000Y-80100000I75000J0D01*
G01*
X73000000Y-80100000D01*
G75*
G02*
X73075000Y-80175000I0J-75000D01*
G01*
X73075000Y-80325000D01*
G75*
G02*
X73000000Y-80400000I-75000J0D01*
G01*
X71675000Y-80400000D01*
G75*
G02*
X71600000Y-80325000I0J75000D01*
G01*
G37*
%TD.AperFunction*%
%TO.P,U2,5*%
%TO.N,/HSE_IN*%
%TA.AperFunction,SMDPad,CuDef*%
G36*
G01*
X71600000Y-79825000D02*
X71600000Y-79675000D01*
G75*
G02*
X71675000Y-79600000I75000J0D01*
G01*
X73000000Y-79600000D01*
G75*
G02*
X73075000Y-79675000I0J-75000D01*
G01*
X73075000Y-79825000D01*
G75*
G02*
X73000000Y-79900000I-75000J0D01*
G01*
X71675000Y-79900000D01*
G75*
G02*
X71600000Y-79825000I0J75000D01*
G01*
G37*
%TD.AperFunction*%
%TO.P,U2,4*%
%TO.N,Net-(U2-Pad4)*%
%TA.AperFunction,SMDPad,CuDef*%
G36*
G01*
X71600000Y-79325000D02*
X71600000Y-79175000D01*
G75*
G02*
X71675000Y-79100000I75000J0D01*
G01*
X73000000Y-79100000D01*
G75*
G02*
X73075000Y-79175000I0J-75000D01*
G01*
X73075000Y-79325000D01*
G75*
G02*
X73000000Y-79400000I-75000J0D01*
G01*
X71675000Y-79400000D01*
G75*
G02*
X71600000Y-79325000I0J75000D01*
G01*
G37*
%TD.AperFunction*%
%TO.P,U2,3*%
%TO.N,Net-(U2-Pad3)*%
%TA.AperFunction,SMDPad,CuDef*%
G36*
G01*
X71600000Y-78825000D02*
X71600000Y-78675000D01*
G75*
G02*
X71675000Y-78600000I75000J0D01*
G01*
X73000000Y-78600000D01*
G75*
G02*
X73075000Y-78675000I0J-75000D01*
G01*
X73075000Y-78825000D01*
G75*
G02*
X73000000Y-78900000I-75000J0D01*
G01*
X71675000Y-78900000D01*
G75*
G02*
X71600000Y-78825000I0J75000D01*
G01*
G37*
%TD.AperFunction*%
%TO.P,U2,2*%
%TO.N,Net-(U2-Pad2)*%
%TA.AperFunction,SMDPad,CuDef*%
G36*
G01*
X71600000Y-78325000D02*
X71600000Y-78175000D01*
G75*
G02*
X71675000Y-78100000I75000J0D01*
G01*
X73000000Y-78100000D01*
G75*
G02*
X73075000Y-78175000I0J-75000D01*
G01*
X73075000Y-78325000D01*
G75*
G02*
X73000000Y-78400000I-75000J0D01*
G01*
X71675000Y-78400000D01*
G75*
G02*
X71600000Y-78325000I0J75000D01*
G01*
G37*
%TD.AperFunction*%
%TO.P,U2,1*%
%TO.N,+3V3*%
%TA.AperFunction,SMDPad,CuDef*%
G36*
G01*
X71600000Y-77825000D02*
X71600000Y-77675000D01*
G75*
G02*
X71675000Y-77600000I75000J0D01*
G01*
X73000000Y-77600000D01*
G75*
G02*
X73075000Y-77675000I0J-75000D01*
G01*
X73075000Y-77825000D01*
G75*
G02*
X73000000Y-77900000I-75000J0D01*
G01*
X71675000Y-77900000D01*
G75*
G02*
X71600000Y-77825000I0J75000D01*
G01*
G37*
%TD.AperFunction*%
%TD*%
D16*
%TO.P,U1,1*%
%TO.N,GND*%
X88800000Y-85850000D03*
%TO.P,U1,3*%
%TO.N,VBUS*%
X84200000Y-85850000D03*
%TO.P,U1,2*%
%TO.N,+3V3*%
X86500000Y-85850000D03*
D17*
X86500000Y-92150000D03*
%TD*%
%TO.P,R5,2*%
%TO.N,/I2C2_SDA*%
%TA.AperFunction,SMDPad,CuDef*%
G36*
G01*
X71190000Y-91172500D02*
X71190000Y-90827500D01*
G75*
G02*
X71337500Y-90680000I147500J0D01*
G01*
X71632500Y-90680000D01*
G75*
G02*
X71780000Y-90827500I0J-147500D01*
G01*
X71780000Y-91172500D01*
G75*
G02*
X71632500Y-91320000I-147500J0D01*
G01*
X71337500Y-91320000D01*
G75*
G02*
X71190000Y-91172500I0J147500D01*
G01*
G37*
%TD.AperFunction*%
%TO.P,R5,1*%
%TO.N,+3V3*%
%TA.AperFunction,SMDPad,CuDef*%
G36*
G01*
X70220000Y-91172500D02*
X70220000Y-90827500D01*
G75*
G02*
X70367500Y-90680000I147500J0D01*
G01*
X70662500Y-90680000D01*
G75*
G02*
X70810000Y-90827500I0J-147500D01*
G01*
X70810000Y-91172500D01*
G75*
G02*
X70662500Y-91320000I-147500J0D01*
G01*
X70367500Y-91320000D01*
G75*
G02*
X70220000Y-91172500I0J147500D01*
G01*
G37*
%TD.AperFunction*%
%TD*%
%TO.P,R4,2*%
%TO.N,/I2C2_SCL*%
%TA.AperFunction,SMDPad,CuDef*%
G36*
G01*
X68310000Y-90827500D02*
X68310000Y-91172500D01*
G75*
G02*
X68162500Y-91320000I-147500J0D01*
G01*
X67867500Y-91320000D01*
G75*
G02*
X67720000Y-91172500I0J147500D01*
G01*
X67720000Y-90827500D01*
G75*
G02*
X67867500Y-90680000I147500J0D01*
G01*
X68162500Y-90680000D01*
G75*
G02*
X68310000Y-90827500I0J-147500D01*
G01*
G37*
%TD.AperFunction*%
%TO.P,R4,1*%
%TO.N,+3V3*%
%TA.AperFunction,SMDPad,CuDef*%
G36*
G01*
X69280000Y-90827500D02*
X69280000Y-91172500D01*
G75*
G02*
X69132500Y-91320000I-147500J0D01*
G01*
X68837500Y-91320000D01*
G75*
G02*
X68690000Y-91172500I0J147500D01*
G01*
X68690000Y-90827500D01*
G75*
G02*
X68837500Y-90680000I147500J0D01*
G01*
X69132500Y-90680000D01*
G75*
G02*
X69280000Y-90827500I0J-147500D01*
G01*
G37*
%TD.AperFunction*%
%TD*%
%TO.P,R3,2*%
%TO.N,/USB_D+*%
%TA.AperFunction,SMDPad,CuDef*%
G36*
G01*
X86577500Y-78940000D02*
X86922500Y-78940000D01*
G75*
G02*
X87070000Y-79087500I0J-147500D01*
G01*
X87070000Y-79382500D01*
G75*
G02*
X86922500Y-79530000I-147500J0D01*
G01*
X86577500Y-79530000D01*
G75*
G02*
X86430000Y-79382500I0J147500D01*
G01*
X86430000Y-79087500D01*
G75*
G02*
X86577500Y-78940000I147500J0D01*
G01*
G37*
%TD.AperFunction*%
%TO.P,R3,1*%
%TO.N,+3V3*%
%TA.AperFunction,SMDPad,CuDef*%
G36*
G01*
X86577500Y-77970000D02*
X86922500Y-77970000D01*
G75*
G02*
X87070000Y-78117500I0J-147500D01*
G01*
X87070000Y-78412500D01*
G75*
G02*
X86922500Y-78560000I-147500J0D01*
G01*
X86577500Y-78560000D01*
G75*
G02*
X86430000Y-78412500I0J147500D01*
G01*
X86430000Y-78117500D01*
G75*
G02*
X86577500Y-77970000I147500J0D01*
G01*
G37*
%TD.AperFunction*%
%TD*%
%TO.P,R2,2*%
%TO.N,Net-(R2-Pad2)*%
%TA.AperFunction,SMDPad,CuDef*%
G36*
G01*
X61077500Y-75190000D02*
X61422500Y-75190000D01*
G75*
G02*
X61570000Y-75337500I0J-147500D01*
G01*
X61570000Y-75632500D01*
G75*
G02*
X61422500Y-75780000I-147500J0D01*
G01*
X61077500Y-75780000D01*
G75*
G02*
X60930000Y-75632500I0J147500D01*
G01*
X60930000Y-75337500D01*
G75*
G02*
X61077500Y-75190000I147500J0D01*
G01*
G37*
%TD.AperFunction*%
%TO.P,R2,1*%
%TO.N,Net-(R2-Pad1)*%
%TA.AperFunction,SMDPad,CuDef*%
G36*
G01*
X61077500Y-74220000D02*
X61422500Y-74220000D01*
G75*
G02*
X61570000Y-74367500I0J-147500D01*
G01*
X61570000Y-74662500D01*
G75*
G02*
X61422500Y-74810000I-147500J0D01*
G01*
X61077500Y-74810000D01*
G75*
G02*
X60930000Y-74662500I0J147500D01*
G01*
X60930000Y-74367500D01*
G75*
G02*
X61077500Y-74220000I147500J0D01*
G01*
G37*
%TD.AperFunction*%
%TD*%
%TO.P,R1,2*%
%TO.N,GND*%
%TA.AperFunction,SMDPad,CuDef*%
G36*
G01*
X95690000Y-85672500D02*
X95690000Y-85327500D01*
G75*
G02*
X95837500Y-85180000I147500J0D01*
G01*
X96132500Y-85180000D01*
G75*
G02*
X96280000Y-85327500I0J-147500D01*
G01*
X96280000Y-85672500D01*
G75*
G02*
X96132500Y-85820000I-147500J0D01*
G01*
X95837500Y-85820000D01*
G75*
G02*
X95690000Y-85672500I0J147500D01*
G01*
G37*
%TD.AperFunction*%
%TO.P,R1,1*%
%TO.N,/PWR_LED_K*%
%TA.AperFunction,SMDPad,CuDef*%
G36*
G01*
X94720000Y-85672500D02*
X94720000Y-85327500D01*
G75*
G02*
X94867500Y-85180000I147500J0D01*
G01*
X95162500Y-85180000D01*
G75*
G02*
X95310000Y-85327500I0J-147500D01*
G01*
X95310000Y-85672500D01*
G75*
G02*
X95162500Y-85820000I-147500J0D01*
G01*
X94867500Y-85820000D01*
G75*
G02*
X94720000Y-85672500I0J147500D01*
G01*
G37*
%TD.AperFunction*%
%TD*%
D18*
%TO.P,J4,4*%
%TO.N,GND*%
X80120000Y-95000000D03*
%TO.P,J4,3*%
%TO.N,/I2C2_SDA*%
X77580000Y-95000000D03*
%TO.P,J4,2*%
%TO.N,/I2C2_SCL*%
X75040000Y-95000000D03*
D19*
%TO.P,J4,1*%
%TO.N,+3V3*%
X72500000Y-95000000D03*
%TD*%
D18*
%TO.P,J3,4*%
%TO.N,GND*%
X79380000Y-65750000D03*
%TO.P,J3,3*%
%TO.N,/SWCLK*%
X81920000Y-65750000D03*
%TO.P,J3,2*%
%TO.N,/SWDI0*%
X84460000Y-65750000D03*
D19*
%TO.P,J3,1*%
%TO.N,+3V3*%
X87000000Y-65750000D03*
%TD*%
D18*
%TO.P,J2,4*%
%TO.N,+3V3*%
X72370000Y-65750000D03*
%TO.P,J2,3*%
%TO.N,/USART1_TX*%
X69830000Y-65750000D03*
%TO.P,J2,2*%
%TO.N,/USART1_RX*%
X67290000Y-65750000D03*
D19*
%TO.P,J2,1*%
%TO.N,GND*%
X64750000Y-65750000D03*
%TD*%
%TO.P,FB1,2*%
%TO.N,+3.3VA*%
%TA.AperFunction,SMDPad,CuDef*%
G36*
G01*
X72256250Y-86150000D02*
X71743750Y-86150000D01*
G75*
G02*
X71525000Y-85931250I0J218750D01*
G01*
X71525000Y-85493750D01*
G75*
G02*
X71743750Y-85275000I218750J0D01*
G01*
X72256250Y-85275000D01*
G75*
G02*
X72475000Y-85493750I0J-218750D01*
G01*
X72475000Y-85931250D01*
G75*
G02*
X72256250Y-86150000I-218750J0D01*
G01*
G37*
%TD.AperFunction*%
%TO.P,FB1,1*%
%TO.N,+3V3*%
%TA.AperFunction,SMDPad,CuDef*%
G36*
G01*
X72256250Y-87725000D02*
X71743750Y-87725000D01*
G75*
G02*
X71525000Y-87506250I0J218750D01*
G01*
X71525000Y-87068750D01*
G75*
G02*
X71743750Y-86850000I218750J0D01*
G01*
X72256250Y-86850000D01*
G75*
G02*
X72475000Y-87068750I0J-218750D01*
G01*
X72475000Y-87506250D01*
G75*
G02*
X72256250Y-87725000I-218750J0D01*
G01*
G37*
%TD.AperFunction*%
%TD*%
%TO.P,D1,2*%
%TO.N,+3V3*%
%TA.AperFunction,SMDPad,CuDef*%
G36*
G01*
X94743750Y-88350000D02*
X95256250Y-88350000D01*
G75*
G02*
X95475000Y-88568750I0J-218750D01*
G01*
X95475000Y-89006250D01*
G75*
G02*
X95256250Y-89225000I-218750J0D01*
G01*
X94743750Y-89225000D01*
G75*
G02*
X94525000Y-89006250I0J218750D01*
G01*
X94525000Y-88568750D01*
G75*
G02*
X94743750Y-88350000I218750J0D01*
G01*
G37*
%TD.AperFunction*%
%TO.P,D1,1*%
%TO.N,/PWR_LED_K*%
%TA.AperFunction,SMDPad,CuDef*%
G36*
G01*
X94743750Y-86775000D02*
X95256250Y-86775000D01*
G75*
G02*
X95475000Y-86993750I0J-218750D01*
G01*
X95475000Y-87431250D01*
G75*
G02*
X95256250Y-87650000I-218750J0D01*
G01*
X94743750Y-87650000D01*
G75*
G02*
X94525000Y-87431250I0J218750D01*
G01*
X94525000Y-86993750D01*
G75*
G02*
X94743750Y-86775000I218750J0D01*
G01*
G37*
%TD.AperFunction*%
%TD*%
%TO.P,C13,2*%
%TO.N,GND*%
%TA.AperFunction,SMDPad,CuDef*%
G36*
G01*
X67672500Y-81810000D02*
X67327500Y-81810000D01*
G75*
G02*
X67180000Y-81662500I0J147500D01*
G01*
X67180000Y-81367500D01*
G75*
G02*
X67327500Y-81220000I147500J0D01*
G01*
X67672500Y-81220000D01*
G75*
G02*
X67820000Y-81367500I0J-147500D01*
G01*
X67820000Y-81662500D01*
G75*
G02*
X67672500Y-81810000I-147500J0D01*
G01*
G37*
%TD.AperFunction*%
%TO.P,C13,1*%
%TO.N,/HSE_OUT*%
%TA.AperFunction,SMDPad,CuDef*%
G36*
G01*
X67672500Y-82780000D02*
X67327500Y-82780000D01*
G75*
G02*
X67180000Y-82632500I0J147500D01*
G01*
X67180000Y-82337500D01*
G75*
G02*
X67327500Y-82190000I147500J0D01*
G01*
X67672500Y-82190000D01*
G75*
G02*
X67820000Y-82337500I0J-147500D01*
G01*
X67820000Y-82632500D01*
G75*
G02*
X67672500Y-82780000I-147500J0D01*
G01*
G37*
%TD.AperFunction*%
%TD*%
%TO.P,C12,2*%
%TO.N,GND*%
%TA.AperFunction,SMDPad,CuDef*%
G36*
G01*
X67922500Y-77310000D02*
X67577500Y-77310000D01*
G75*
G02*
X67430000Y-77162500I0J147500D01*
G01*
X67430000Y-76867500D01*
G75*
G02*
X67577500Y-76720000I147500J0D01*
G01*
X67922500Y-76720000D01*
G75*
G02*
X68070000Y-76867500I0J-147500D01*
G01*
X68070000Y-77162500D01*
G75*
G02*
X67922500Y-77310000I-147500J0D01*
G01*
G37*
%TD.AperFunction*%
%TO.P,C12,1*%
%TO.N,/HSE_IN*%
%TA.AperFunction,SMDPad,CuDef*%
G36*
G01*
X67922500Y-78280000D02*
X67577500Y-78280000D01*
G75*
G02*
X67430000Y-78132500I0J147500D01*
G01*
X67430000Y-77837500D01*
G75*
G02*
X67577500Y-77690000I147500J0D01*
G01*
X67922500Y-77690000D01*
G75*
G02*
X68070000Y-77837500I0J-147500D01*
G01*
X68070000Y-78132500D01*
G75*
G02*
X67922500Y-78280000I-147500J0D01*
G01*
G37*
%TD.AperFunction*%
%TD*%
%TO.P,C11,2*%
%TO.N,GND*%
%TA.AperFunction,SMDPad,CuDef*%
G36*
G01*
X75190000Y-86672500D02*
X75190000Y-86327500D01*
G75*
G02*
X75337500Y-86180000I147500J0D01*
G01*
X75632500Y-86180000D01*
G75*
G02*
X75780000Y-86327500I0J-147500D01*
G01*
X75780000Y-86672500D01*
G75*
G02*
X75632500Y-86820000I-147500J0D01*
G01*
X75337500Y-86820000D01*
G75*
G02*
X75190000Y-86672500I0J147500D01*
G01*
G37*
%TD.AperFunction*%
%TO.P,C11,1*%
%TO.N,/NRST*%
%TA.AperFunction,SMDPad,CuDef*%
G36*
G01*
X74220000Y-86672500D02*
X74220000Y-86327500D01*
G75*
G02*
X74367500Y-86180000I147500J0D01*
G01*
X74662500Y-86180000D01*
G75*
G02*
X74810000Y-86327500I0J-147500D01*
G01*
X74810000Y-86672500D01*
G75*
G02*
X74662500Y-86820000I-147500J0D01*
G01*
X74367500Y-86820000D01*
G75*
G02*
X74220000Y-86672500I0J147500D01*
G01*
G37*
%TD.AperFunction*%
%TD*%
%TO.P,C10,2*%
%TO.N,GND*%
%TA.AperFunction,SMDPad,CuDef*%
G36*
G01*
X69810000Y-86827500D02*
X69810000Y-87172500D01*
G75*
G02*
X69662500Y-87320000I-147500J0D01*
G01*
X69367500Y-87320000D01*
G75*
G02*
X69220000Y-87172500I0J147500D01*
G01*
X69220000Y-86827500D01*
G75*
G02*
X69367500Y-86680000I147500J0D01*
G01*
X69662500Y-86680000D01*
G75*
G02*
X69810000Y-86827500I0J-147500D01*
G01*
G37*
%TD.AperFunction*%
%TO.P,C10,1*%
%TO.N,+3V3*%
%TA.AperFunction,SMDPad,CuDef*%
G36*
G01*
X70780000Y-86827500D02*
X70780000Y-87172500D01*
G75*
G02*
X70632500Y-87320000I-147500J0D01*
G01*
X70337500Y-87320000D01*
G75*
G02*
X70190000Y-87172500I0J147500D01*
G01*
X70190000Y-86827500D01*
G75*
G02*
X70337500Y-86680000I147500J0D01*
G01*
X70632500Y-86680000D01*
G75*
G02*
X70780000Y-86827500I0J-147500D01*
G01*
G37*
%TD.AperFunction*%
%TD*%
%TO.P,C9,2*%
%TO.N,GND*%
%TA.AperFunction,SMDPad,CuDef*%
G36*
G01*
X69810000Y-85327500D02*
X69810000Y-85672500D01*
G75*
G02*
X69662500Y-85820000I-147500J0D01*
G01*
X69367500Y-85820000D01*
G75*
G02*
X69220000Y-85672500I0J147500D01*
G01*
X69220000Y-85327500D01*
G75*
G02*
X69367500Y-85180000I147500J0D01*
G01*
X69662500Y-85180000D01*
G75*
G02*
X69810000Y-85327500I0J-147500D01*
G01*
G37*
%TD.AperFunction*%
%TO.P,C9,1*%
%TO.N,+3.3VA*%
%TA.AperFunction,SMDPad,CuDef*%
G36*
G01*
X70780000Y-85327500D02*
X70780000Y-85672500D01*
G75*
G02*
X70632500Y-85820000I-147500J0D01*
G01*
X70337500Y-85820000D01*
G75*
G02*
X70190000Y-85672500I0J147500D01*
G01*
X70190000Y-85327500D01*
G75*
G02*
X70337500Y-85180000I147500J0D01*
G01*
X70632500Y-85180000D01*
G75*
G02*
X70780000Y-85327500I0J-147500D01*
G01*
G37*
%TD.AperFunction*%
%TD*%
%TO.P,C8,2*%
%TO.N,GND*%
%TA.AperFunction,SMDPad,CuDef*%
G36*
G01*
X70672500Y-81310000D02*
X70327500Y-81310000D01*
G75*
G02*
X70180000Y-81162500I0J147500D01*
G01*
X70180000Y-80867500D01*
G75*
G02*
X70327500Y-80720000I147500J0D01*
G01*
X70672500Y-80720000D01*
G75*
G02*
X70820000Y-80867500I0J-147500D01*
G01*
X70820000Y-81162500D01*
G75*
G02*
X70672500Y-81310000I-147500J0D01*
G01*
G37*
%TD.AperFunction*%
%TO.P,C8,1*%
%TO.N,+3.3VA*%
%TA.AperFunction,SMDPad,CuDef*%
G36*
G01*
X70672500Y-82280000D02*
X70327500Y-82280000D01*
G75*
G02*
X70180000Y-82132500I0J147500D01*
G01*
X70180000Y-81837500D01*
G75*
G02*
X70327500Y-81690000I147500J0D01*
G01*
X70672500Y-81690000D01*
G75*
G02*
X70820000Y-81837500I0J-147500D01*
G01*
X70820000Y-82132500D01*
G75*
G02*
X70672500Y-82280000I-147500J0D01*
G01*
G37*
%TD.AperFunction*%
%TD*%
%TO.P,C7,2*%
%TO.N,GND*%
%TA.AperFunction,SMDPad,CuDef*%
G36*
G01*
X74190000Y-74672500D02*
X74190000Y-74327500D01*
G75*
G02*
X74337500Y-74180000I147500J0D01*
G01*
X74632500Y-74180000D01*
G75*
G02*
X74780000Y-74327500I0J-147500D01*
G01*
X74780000Y-74672500D01*
G75*
G02*
X74632500Y-74820000I-147500J0D01*
G01*
X74337500Y-74820000D01*
G75*
G02*
X74190000Y-74672500I0J147500D01*
G01*
G37*
%TD.AperFunction*%
%TO.P,C7,1*%
%TO.N,+3V3*%
%TA.AperFunction,SMDPad,CuDef*%
G36*
G01*
X73220000Y-74672500D02*
X73220000Y-74327500D01*
G75*
G02*
X73367500Y-74180000I147500J0D01*
G01*
X73662500Y-74180000D01*
G75*
G02*
X73810000Y-74327500I0J-147500D01*
G01*
X73810000Y-74672500D01*
G75*
G02*
X73662500Y-74820000I-147500J0D01*
G01*
X73367500Y-74820000D01*
G75*
G02*
X73220000Y-74672500I0J147500D01*
G01*
G37*
%TD.AperFunction*%
%TD*%
%TO.P,C6,2*%
%TO.N,GND*%
%TA.AperFunction,SMDPad,CuDef*%
G36*
G01*
X82327500Y-78190000D02*
X82672500Y-78190000D01*
G75*
G02*
X82820000Y-78337500I0J-147500D01*
G01*
X82820000Y-78632500D01*
G75*
G02*
X82672500Y-78780000I-147500J0D01*
G01*
X82327500Y-78780000D01*
G75*
G02*
X82180000Y-78632500I0J147500D01*
G01*
X82180000Y-78337500D01*
G75*
G02*
X82327500Y-78190000I147500J0D01*
G01*
G37*
%TD.AperFunction*%
%TO.P,C6,1*%
%TO.N,+3V3*%
%TA.AperFunction,SMDPad,CuDef*%
G36*
G01*
X82327500Y-77220000D02*
X82672500Y-77220000D01*
G75*
G02*
X82820000Y-77367500I0J-147500D01*
G01*
X82820000Y-77662500D01*
G75*
G02*
X82672500Y-77810000I-147500J0D01*
G01*
X82327500Y-77810000D01*
G75*
G02*
X82180000Y-77662500I0J147500D01*
G01*
X82180000Y-77367500D01*
G75*
G02*
X82327500Y-77220000I147500J0D01*
G01*
G37*
%TD.AperFunction*%
%TD*%
%TO.P,C5,2*%
%TO.N,GND*%
%TA.AperFunction,SMDPad,CuDef*%
G36*
G01*
X79560000Y-86327500D02*
X79560000Y-86672500D01*
G75*
G02*
X79412500Y-86820000I-147500J0D01*
G01*
X79117500Y-86820000D01*
G75*
G02*
X78970000Y-86672500I0J147500D01*
G01*
X78970000Y-86327500D01*
G75*
G02*
X79117500Y-86180000I147500J0D01*
G01*
X79412500Y-86180000D01*
G75*
G02*
X79560000Y-86327500I0J-147500D01*
G01*
G37*
%TD.AperFunction*%
%TO.P,C5,1*%
%TO.N,+3V3*%
%TA.AperFunction,SMDPad,CuDef*%
G36*
G01*
X80530000Y-86327500D02*
X80530000Y-86672500D01*
G75*
G02*
X80382500Y-86820000I-147500J0D01*
G01*
X80087500Y-86820000D01*
G75*
G02*
X79940000Y-86672500I0J147500D01*
G01*
X79940000Y-86327500D01*
G75*
G02*
X80087500Y-86180000I147500J0D01*
G01*
X80382500Y-86180000D01*
G75*
G02*
X80530000Y-86327500I0J-147500D01*
G01*
G37*
%TD.AperFunction*%
%TD*%
%TO.P,C4,2*%
%TO.N,GND*%
%TA.AperFunction,SMDPad,CuDef*%
G36*
G01*
X70672500Y-77060000D02*
X70327500Y-77060000D01*
G75*
G02*
X70180000Y-76912500I0J147500D01*
G01*
X70180000Y-76617500D01*
G75*
G02*
X70327500Y-76470000I147500J0D01*
G01*
X70672500Y-76470000D01*
G75*
G02*
X70820000Y-76617500I0J-147500D01*
G01*
X70820000Y-76912500D01*
G75*
G02*
X70672500Y-77060000I-147500J0D01*
G01*
G37*
%TD.AperFunction*%
%TO.P,C4,1*%
%TO.N,+3V3*%
%TA.AperFunction,SMDPad,CuDef*%
G36*
G01*
X70672500Y-78030000D02*
X70327500Y-78030000D01*
G75*
G02*
X70180000Y-77882500I0J147500D01*
G01*
X70180000Y-77587500D01*
G75*
G02*
X70327500Y-77440000I147500J0D01*
G01*
X70672500Y-77440000D01*
G75*
G02*
X70820000Y-77587500I0J-147500D01*
G01*
X70820000Y-77882500D01*
G75*
G02*
X70672500Y-78030000I-147500J0D01*
G01*
G37*
%TD.AperFunction*%
%TD*%
%TO.P,C3,2*%
%TO.N,GND*%
%TA.AperFunction,SMDPad,CuDef*%
G36*
G01*
X74850000Y-73006250D02*
X74850000Y-72493750D01*
G75*
G02*
X75068750Y-72275000I218750J0D01*
G01*
X75506250Y-72275000D01*
G75*
G02*
X75725000Y-72493750I0J-218750D01*
G01*
X75725000Y-73006250D01*
G75*
G02*
X75506250Y-73225000I-218750J0D01*
G01*
X75068750Y-73225000D01*
G75*
G02*
X74850000Y-73006250I0J218750D01*
G01*
G37*
%TD.AperFunction*%
%TO.P,C3,1*%
%TO.N,+3V3*%
%TA.AperFunction,SMDPad,CuDef*%
G36*
G01*
X73275000Y-73006250D02*
X73275000Y-72493750D01*
G75*
G02*
X73493750Y-72275000I218750J0D01*
G01*
X73931250Y-72275000D01*
G75*
G02*
X74150000Y-72493750I0J-218750D01*
G01*
X74150000Y-73006250D01*
G75*
G02*
X73931250Y-73225000I-218750J0D01*
G01*
X73493750Y-73225000D01*
G75*
G02*
X73275000Y-73006250I0J218750D01*
G01*
G37*
%TD.AperFunction*%
%TD*%
%TO.P,C2,2*%
%TO.N,GND*%
%TA.AperFunction,SMDPad,CuDef*%
G36*
G01*
X91956250Y-88550000D02*
X91043750Y-88550000D01*
G75*
G02*
X90800000Y-88306250I0J243750D01*
G01*
X90800000Y-87818750D01*
G75*
G02*
X91043750Y-87575000I243750J0D01*
G01*
X91956250Y-87575000D01*
G75*
G02*
X92200000Y-87818750I0J-243750D01*
G01*
X92200000Y-88306250D01*
G75*
G02*
X91956250Y-88550000I-243750J0D01*
G01*
G37*
%TD.AperFunction*%
%TO.P,C2,1*%
%TO.N,+3V3*%
%TA.AperFunction,SMDPad,CuDef*%
G36*
G01*
X91956250Y-90425000D02*
X91043750Y-90425000D01*
G75*
G02*
X90800000Y-90181250I0J243750D01*
G01*
X90800000Y-89693750D01*
G75*
G02*
X91043750Y-89450000I243750J0D01*
G01*
X91956250Y-89450000D01*
G75*
G02*
X92200000Y-89693750I0J-243750D01*
G01*
X92200000Y-90181250D01*
G75*
G02*
X91956250Y-90425000I-243750J0D01*
G01*
G37*
%TD.AperFunction*%
%TD*%
%TO.P,C1,2*%
%TO.N,GND*%
%TA.AperFunction,SMDPad,CuDef*%
G36*
G01*
X86450000Y-83956250D02*
X86450000Y-83043750D01*
G75*
G02*
X86693750Y-82800000I243750J0D01*
G01*
X87181250Y-82800000D01*
G75*
G02*
X87425000Y-83043750I0J-243750D01*
G01*
X87425000Y-83956250D01*
G75*
G02*
X87181250Y-84200000I-243750J0D01*
G01*
X86693750Y-84200000D01*
G75*
G02*
X86450000Y-83956250I0J243750D01*
G01*
G37*
%TD.AperFunction*%
%TO.P,C1,1*%
%TO.N,VBUS*%
%TA.AperFunction,SMDPad,CuDef*%
G36*
G01*
X84575000Y-83956250D02*
X84575000Y-83043750D01*
G75*
G02*
X84818750Y-82800000I243750J0D01*
G01*
X85306250Y-82800000D01*
G75*
G02*
X85550000Y-83043750I0J-243750D01*
G01*
X85550000Y-83956250D01*
G75*
G02*
X85306250Y-84200000I-243750J0D01*
G01*
X84818750Y-84200000D01*
G75*
G02*
X84575000Y-83956250I0J243750D01*
G01*
G37*
%TD.AperFunction*%
%TD*%
D20*
%TO.N,GND*%
X70500000Y-76000000D03*
X78750000Y-83250000D03*
X73750000Y-81250000D03*
X76250000Y-86500000D03*
X69515000Y-87985000D03*
X59250000Y-71750000D03*
X93550000Y-78200000D03*
X83250000Y-78625000D03*
X96750000Y-85500000D03*
X65950000Y-75800000D03*
X68750000Y-85500000D03*
X68235000Y-81515000D03*
X67750000Y-76250000D03*
X92750000Y-88000000D03*
X89250000Y-87500000D03*
X88250000Y-87500000D03*
X88500000Y-83000000D03*
X88500000Y-84000000D03*
X63550000Y-83450000D03*
X75000000Y-71750000D03*
%TO.N,+3V3*%
X75500000Y-91750000D03*
X73250000Y-91750000D03*
X69717475Y-92032525D03*
X69717475Y-92032525D03*
X67760050Y-92055000D03*
X70000000Y-75000000D03*
X71000000Y-74000000D03*
%TD*%
D21*
%TO.N,GND*%
X74250000Y-76337500D02*
X74250000Y-75250000D01*
X74485000Y-75015000D02*
X74485000Y-74500000D01*
X74250000Y-75250000D02*
X74485000Y-75015000D01*
D22*
X75287500Y-73000000D02*
X75287500Y-73212500D01*
X74485000Y-74015000D02*
X74485000Y-74500000D01*
X75287500Y-73212500D02*
X74485000Y-74015000D01*
D21*
X72337500Y-81250000D02*
X71250000Y-81250000D01*
X71250000Y-81250000D02*
X71000000Y-81000000D01*
X70985000Y-81015000D02*
X70500000Y-81015000D01*
X71000000Y-81000000D02*
X70985000Y-81015000D01*
X82015000Y-78485000D02*
X82500000Y-78485000D01*
X82000000Y-78500000D02*
X82015000Y-78485000D01*
X80662500Y-78250000D02*
X81750000Y-78250000D01*
X81750000Y-78250000D02*
X82000000Y-78500000D01*
X78750000Y-84662500D02*
X78750000Y-85750000D01*
X79265000Y-86265000D02*
X79265000Y-86500000D01*
X78750000Y-85750000D02*
X79265000Y-86265000D01*
D22*
X70500000Y-76765000D02*
X70500000Y-76000000D01*
D21*
X78750000Y-84662500D02*
X78750000Y-83250000D01*
X72337500Y-81250000D02*
X73500000Y-81250000D01*
X73500000Y-81250000D02*
X73750000Y-81250000D01*
X75485000Y-86500000D02*
X76250000Y-86500000D01*
X69515000Y-87000000D02*
X69515000Y-87985000D01*
X58930000Y-72750000D02*
X59250000Y-72430000D01*
X59250000Y-72430000D02*
X59250000Y-71750000D01*
X94600000Y-78200000D02*
X93550000Y-78200000D01*
X82500000Y-78485000D02*
X82985000Y-78485000D01*
X82985000Y-78485000D02*
X83250000Y-78750000D01*
X83250000Y-78750000D02*
X83250000Y-78625000D01*
X95985000Y-85500000D02*
X96750000Y-85500000D01*
X65950000Y-77300000D02*
X65950000Y-75800000D01*
X69515000Y-85500000D02*
X68750000Y-85500000D01*
X67500000Y-81515000D02*
X68235000Y-81515000D01*
X67750000Y-76500000D02*
X67750000Y-76250000D01*
X67750000Y-77015000D02*
X67750000Y-76500000D01*
D22*
X63550000Y-81700000D02*
X63550000Y-83450000D01*
X75287500Y-72750000D02*
X75287500Y-72037500D01*
X75287500Y-72037500D02*
X75000000Y-71750000D01*
%TO.N,VBUS*%
X85062500Y-84987500D02*
X84200000Y-85850000D01*
X85062500Y-83500000D02*
X85062500Y-84987500D01*
D21*
%TO.N,+3.3VA*%
X72337500Y-81750000D02*
X71250000Y-81750000D01*
X71250000Y-81750000D02*
X71000000Y-82000000D01*
X70985000Y-81985000D02*
X70500000Y-81985000D01*
X71000000Y-82000000D02*
X70985000Y-81985000D01*
D22*
X71787500Y-85500000D02*
X72000000Y-85712500D01*
X70485000Y-85500000D02*
X71787500Y-85500000D01*
X70500000Y-85485000D02*
X70485000Y-85500000D01*
X70500000Y-81985000D02*
X70500000Y-85485000D01*
%TO.N,+3V3*%
X93850000Y-89937500D02*
X95000000Y-88787500D01*
X91500000Y-89937500D02*
X93850000Y-89937500D01*
D21*
X73750000Y-76337500D02*
X73750000Y-75500000D01*
X73515000Y-75265000D02*
X73515000Y-74500000D01*
X73750000Y-75500000D02*
X73515000Y-75265000D01*
D22*
X73712500Y-74302500D02*
X73515000Y-74500000D01*
X73712500Y-73000000D02*
X73712500Y-74302500D01*
D21*
X80662500Y-77750000D02*
X81500000Y-77750000D01*
X81500000Y-77750000D02*
X81750000Y-77500000D01*
X81765000Y-77515000D02*
X82500000Y-77515000D01*
X81750000Y-77500000D02*
X81765000Y-77515000D01*
X79250000Y-84662500D02*
X79250000Y-85500000D01*
X79250000Y-85500000D02*
X80000000Y-85500000D01*
X80235000Y-85735000D02*
X80235000Y-86500000D01*
X80000000Y-85500000D02*
X80235000Y-85735000D01*
X72322500Y-77735000D02*
X72337500Y-77750000D01*
X70500000Y-77735000D02*
X72322500Y-77735000D01*
D22*
X93850000Y-93150000D02*
X92000000Y-95000000D01*
X92000000Y-95000000D02*
X83500000Y-95000000D01*
X80235000Y-91735000D02*
X80235000Y-86500000D01*
X83500000Y-95000000D02*
X80235000Y-91735000D01*
X80235000Y-91735000D02*
X75515000Y-91735000D01*
X75515000Y-91735000D02*
X75500000Y-91750000D01*
X70515000Y-91320000D02*
X70515000Y-91000000D01*
X71294999Y-92099999D02*
X70515000Y-91320000D01*
X73250000Y-91750000D02*
X72900001Y-92099999D01*
X71650001Y-92099999D02*
X69650001Y-92099999D01*
X71650001Y-92099999D02*
X71294999Y-92099999D01*
X72900001Y-92099999D02*
X71650001Y-92099999D01*
X69650001Y-92099999D02*
X69717475Y-92032525D01*
X59130001Y-77450001D02*
X58930000Y-77250000D01*
X59130001Y-83424951D02*
X59130001Y-77450001D01*
X93850000Y-91400000D02*
X93850000Y-93150000D01*
X93850000Y-89937500D02*
X93850000Y-91400000D01*
X87000000Y-68250000D02*
X87000000Y-65750000D01*
X96750000Y-73500000D02*
X92250000Y-73500000D01*
X96750000Y-84000000D02*
X96750000Y-73500000D01*
X96100000Y-91400000D02*
X97750000Y-89750000D01*
X93850000Y-91400000D02*
X96100000Y-91400000D01*
X97750000Y-84750000D02*
X97500000Y-84750000D01*
X92250000Y-73500000D02*
X87000000Y-68250000D01*
X97750000Y-89750000D02*
X97750000Y-84750000D01*
X97500000Y-84750000D02*
X96750000Y-84000000D01*
X92015000Y-73500000D02*
X87250000Y-78265000D01*
X92250000Y-73500000D02*
X92015000Y-73500000D01*
X87250000Y-78265000D02*
X86015000Y-78265000D01*
X85265000Y-77515000D02*
X82500000Y-77515000D01*
X86015000Y-78265000D02*
X85265000Y-77515000D01*
X58930000Y-77250000D02*
X62000000Y-77250000D01*
X62020010Y-77229990D02*
X62020010Y-76479990D01*
X62000000Y-77250000D02*
X62020010Y-77229990D01*
X63500001Y-74999999D02*
X68749999Y-74999999D01*
X62020010Y-76479990D02*
X63500001Y-74999999D01*
X70180000Y-77735000D02*
X70500000Y-77735000D01*
X69250000Y-76805000D02*
X70180000Y-77735000D01*
X69250000Y-75500000D02*
X69250000Y-76805000D01*
X68749999Y-74999999D02*
X69250000Y-75500000D01*
X69250000Y-75500000D02*
X69500000Y-75500000D01*
X69500000Y-75500000D02*
X70000000Y-75000000D01*
X71000000Y-74000000D02*
X71000000Y-72750000D01*
X71000000Y-72750000D02*
X73712500Y-72750000D01*
X73670001Y-64449999D02*
X72370000Y-65750000D01*
X85699999Y-64449999D02*
X73670001Y-64449999D01*
X87000000Y-65750000D02*
X85699999Y-64449999D01*
X71712500Y-87000000D02*
X72000000Y-87287500D01*
X70485000Y-87000000D02*
X71712500Y-87000000D01*
X70485000Y-88199002D02*
X70485000Y-87000000D01*
X69269012Y-89414990D02*
X70485000Y-88199002D01*
X65352525Y-89647475D02*
X65585010Y-89414990D01*
X67760050Y-92055000D02*
X65352525Y-89647475D01*
X65585010Y-89414990D02*
X69269012Y-89414990D01*
X65352525Y-89647475D02*
X59130001Y-83424951D01*
X68985000Y-91300050D02*
X69717475Y-92032525D01*
X68985000Y-91000000D02*
X68985000Y-91300050D01*
X83449999Y-96300001D02*
X73800001Y-96300001D01*
X83500000Y-96250000D02*
X83449999Y-96300001D01*
X73800001Y-96300001D02*
X72500000Y-95000000D01*
X83500000Y-95000000D02*
X83500000Y-96250000D01*
X86350000Y-92150000D02*
X83500000Y-95000000D01*
X86500000Y-92150000D02*
X86350000Y-92150000D01*
D21*
%TO.N,/NRST*%
X73250000Y-86500000D02*
X74515000Y-86500000D01*
X74450001Y-82549999D02*
X73250000Y-83750000D01*
X73213998Y-80750000D02*
X73413999Y-80549999D01*
X73250000Y-83750000D02*
X73250000Y-86500000D01*
X72337500Y-80750000D02*
X73213998Y-80750000D01*
X74049999Y-80549999D02*
X74450001Y-80950001D01*
X74450001Y-80950001D02*
X74450001Y-82549999D01*
X73413999Y-80549999D02*
X74049999Y-80549999D01*
%TO.N,/HSE_IN*%
X68985000Y-77985000D02*
X67750000Y-77985000D01*
X72337500Y-79750000D02*
X70750000Y-79750000D01*
X70750000Y-79750000D02*
X68985000Y-77985000D01*
X67750000Y-77985000D02*
X67265000Y-77985000D01*
X67265000Y-78215002D02*
X66930001Y-78550001D01*
X67265000Y-77985000D02*
X67265000Y-78215002D01*
X64800001Y-78550001D02*
X63550000Y-77300000D01*
X66930001Y-78550001D02*
X64800001Y-78550001D01*
%TO.N,/HSE_OUT*%
X72337500Y-80250000D02*
X69750000Y-80250000D01*
X69750000Y-80250000D02*
X69750000Y-81000000D01*
X68265000Y-82485000D02*
X67750000Y-82485000D01*
X69750000Y-81000000D02*
X68265000Y-82485000D01*
X67750000Y-82485000D02*
X67015000Y-82485000D01*
X66230000Y-81700000D02*
X65950000Y-81700000D01*
X67015000Y-82485000D02*
X66230000Y-81700000D01*
%TO.N,/PWR_LED_K*%
X95015000Y-87197500D02*
X95000000Y-87212500D01*
X95015000Y-85500000D02*
X95015000Y-87197500D01*
D23*
%TO.N,/USB_D+*%
X93399998Y-79500000D02*
X94600000Y-79500000D01*
X82925999Y-79300001D02*
X93199999Y-79300001D01*
X93199999Y-79300001D02*
X93399998Y-79500000D01*
X80662500Y-79250000D02*
X82875998Y-79250000D01*
X82875998Y-79250000D02*
X82925999Y-79300001D01*
%TO.N,/USB_D-*%
X83139588Y-80150000D02*
X94600000Y-80150000D01*
X82739588Y-79750000D02*
X83139588Y-80150000D01*
X80662500Y-79750000D02*
X82739588Y-79750000D01*
D21*
%TO.N,/USART1_TX*%
X69830000Y-65750000D02*
X70250010Y-66170010D01*
X76750000Y-76337500D02*
X76750000Y-71500000D01*
X76750000Y-71500000D02*
X73500000Y-68250000D01*
X73500000Y-68250000D02*
X70000000Y-68250000D01*
X70000000Y-65920000D02*
X69830000Y-65750000D01*
X70000000Y-68250000D02*
X70000000Y-65920000D01*
%TO.N,/USART1_RX*%
X67290000Y-67290000D02*
X67290000Y-65750000D01*
X73500000Y-69000000D02*
X69000000Y-69000000D01*
X69000000Y-69000000D02*
X67290000Y-67290000D01*
X76250000Y-76337500D02*
X76250000Y-71750000D01*
X76250000Y-71750000D02*
X73500000Y-69000000D01*
%TO.N,/SWCLK*%
X79250000Y-74500000D02*
X79250000Y-71500000D01*
X79250000Y-74500000D02*
X79250000Y-74000000D01*
X79250000Y-76337500D02*
X79250000Y-74500000D01*
X81920000Y-68830000D02*
X81920000Y-65750000D01*
X79250000Y-71500000D02*
X81920000Y-68830000D01*
%TO.N,/SWDI0*%
X84460000Y-72540000D02*
X84460000Y-65750000D01*
X79500000Y-77500000D02*
X84460000Y-72540000D01*
X80662500Y-78750000D02*
X79500000Y-78750000D01*
X79500000Y-78750000D02*
X79500000Y-77500000D01*
%TO.N,/I2C2_SDA*%
X78250000Y-84662500D02*
X78250000Y-87250000D01*
X78250000Y-87250000D02*
X75750000Y-89750000D01*
X75750000Y-89750000D02*
X71500000Y-89750000D01*
X71500000Y-90985000D02*
X71485000Y-91000000D01*
X71500000Y-89750000D02*
X71500000Y-90985000D01*
X73580000Y-91000000D02*
X77580000Y-95000000D01*
X71485000Y-91000000D02*
X73580000Y-91000000D01*
%TO.N,/I2C2_SCL*%
X77750000Y-84662500D02*
X77750000Y-86750000D01*
X77750000Y-86750000D02*
X75250010Y-89249990D01*
X68015000Y-91320000D02*
X69695000Y-93000000D01*
X68015000Y-91000000D02*
X68015000Y-91320000D01*
X73040000Y-93000000D02*
X75040000Y-95000000D01*
X69695000Y-93000000D02*
X73040000Y-93000000D01*
X70749990Y-89249990D02*
X70749990Y-89250010D01*
X75250010Y-89249990D02*
X70749990Y-89249990D01*
X69985000Y-90015000D02*
X68015000Y-90015000D01*
X70749990Y-89250010D02*
X69985000Y-90015000D01*
X68015000Y-90015000D02*
X68015000Y-91000000D01*
D22*
%TO.N,Net-(R2-Pad2)*%
X59195000Y-75485000D02*
X58930000Y-75750000D01*
X61250000Y-75485000D02*
X59195000Y-75485000D01*
D21*
%TO.N,Net-(R2-Pad1)*%
X75750000Y-76337500D02*
X75750000Y-77750000D01*
X75750000Y-77750000D02*
X73823942Y-77750000D01*
X70911971Y-74838029D02*
X70838029Y-74838029D01*
X73823942Y-77750000D02*
X70911971Y-74838029D01*
X70838029Y-74838029D02*
X70250000Y-74250000D01*
X61515000Y-74250000D02*
X61250000Y-74515000D01*
X70250000Y-74250000D02*
X61515000Y-74250000D01*
%TD*%
D23*
%TO.N,GND*%
G36*
X89625000Y-83301776D02*
G01*
X89625000Y-84221324D01*
X89550000Y-84213937D01*
X89087250Y-84217000D01*
X88929000Y-84375250D01*
X88929000Y-85721000D01*
X88949000Y-85721000D01*
X88949000Y-85979000D01*
X88929000Y-85979000D01*
X88929000Y-87324750D01*
X89087250Y-87483000D01*
X89550000Y-87486063D01*
X89674090Y-87473841D01*
X89793411Y-87437646D01*
X89903378Y-87378867D01*
X89999764Y-87299764D01*
X90078867Y-87203378D01*
X90111932Y-87141519D01*
X90260874Y-87240814D01*
X90212354Y-87331589D01*
X90176159Y-87450910D01*
X90163937Y-87575000D01*
X90167000Y-87775250D01*
X90325250Y-87933500D01*
X91371000Y-87933500D01*
X91371000Y-87913500D01*
X91629000Y-87913500D01*
X91629000Y-87933500D01*
X92674750Y-87933500D01*
X92833000Y-87775250D01*
X92836063Y-87575000D01*
X92823841Y-87450910D01*
X92800814Y-87375000D01*
X92922746Y-87375000D01*
X93125000Y-87779508D01*
X93125000Y-88625000D01*
X92828676Y-88625000D01*
X92836063Y-88550000D01*
X92833000Y-88349750D01*
X92674750Y-88191500D01*
X91629000Y-88191500D01*
X91629000Y-88211500D01*
X91371000Y-88211500D01*
X91371000Y-88191500D01*
X90325250Y-88191500D01*
X90167000Y-88349750D01*
X90163937Y-88550000D01*
X90171324Y-88625000D01*
X87875000Y-88625000D01*
X87875000Y-87458398D01*
X87925910Y-87473841D01*
X88050000Y-87486063D01*
X88512750Y-87483000D01*
X88671000Y-87324750D01*
X88671000Y-85979000D01*
X88651000Y-85979000D01*
X88651000Y-85721000D01*
X88671000Y-85721000D01*
X88671000Y-84375250D01*
X88512750Y-84217000D01*
X88059684Y-84214001D01*
X88061063Y-84200000D01*
X88058000Y-83787250D01*
X87899750Y-83629000D01*
X87066500Y-83629000D01*
X87066500Y-83649000D01*
X86808500Y-83649000D01*
X86808500Y-83629000D01*
X86788500Y-83629000D01*
X86788500Y-83371000D01*
X86808500Y-83371000D01*
X86808500Y-83351000D01*
X87066500Y-83351000D01*
X87066500Y-83371000D01*
X87899750Y-83371000D01*
X88058000Y-83212750D01*
X88061063Y-82800000D01*
X88048841Y-82675910D01*
X88033398Y-82625000D01*
X88948224Y-82625000D01*
X89625000Y-83301776D01*
G37*
X89625000Y-83301776D02*
X89625000Y-84221324D01*
X89550000Y-84213937D01*
X89087250Y-84217000D01*
X88929000Y-84375250D01*
X88929000Y-85721000D01*
X88949000Y-85721000D01*
X88949000Y-85979000D01*
X88929000Y-85979000D01*
X88929000Y-87324750D01*
X89087250Y-87483000D01*
X89550000Y-87486063D01*
X89674090Y-87473841D01*
X89793411Y-87437646D01*
X89903378Y-87378867D01*
X89999764Y-87299764D01*
X90078867Y-87203378D01*
X90111932Y-87141519D01*
X90260874Y-87240814D01*
X90212354Y-87331589D01*
X90176159Y-87450910D01*
X90163937Y-87575000D01*
X90167000Y-87775250D01*
X90325250Y-87933500D01*
X91371000Y-87933500D01*
X91371000Y-87913500D01*
X91629000Y-87913500D01*
X91629000Y-87933500D01*
X92674750Y-87933500D01*
X92833000Y-87775250D01*
X92836063Y-87575000D01*
X92823841Y-87450910D01*
X92800814Y-87375000D01*
X92922746Y-87375000D01*
X93125000Y-87779508D01*
X93125000Y-88625000D01*
X92828676Y-88625000D01*
X92836063Y-88550000D01*
X92833000Y-88349750D01*
X92674750Y-88191500D01*
X91629000Y-88191500D01*
X91629000Y-88211500D01*
X91371000Y-88211500D01*
X91371000Y-88191500D01*
X90325250Y-88191500D01*
X90167000Y-88349750D01*
X90163937Y-88550000D01*
X90171324Y-88625000D01*
X87875000Y-88625000D01*
X87875000Y-87458398D01*
X87925910Y-87473841D01*
X88050000Y-87486063D01*
X88512750Y-87483000D01*
X88671000Y-87324750D01*
X88671000Y-85979000D01*
X88651000Y-85979000D01*
X88651000Y-85721000D01*
X88671000Y-85721000D01*
X88671000Y-84375250D01*
X88512750Y-84217000D01*
X88059684Y-84214001D01*
X88061063Y-84200000D01*
X88058000Y-83787250D01*
X87899750Y-83629000D01*
X87066500Y-83629000D01*
X87066500Y-83649000D01*
X86808500Y-83649000D01*
X86808500Y-83629000D01*
X86788500Y-83629000D01*
X86788500Y-83371000D01*
X86808500Y-83371000D01*
X86808500Y-83351000D01*
X87066500Y-83351000D01*
X87066500Y-83371000D01*
X87899750Y-83371000D01*
X88058000Y-83212750D01*
X88061063Y-82800000D01*
X88048841Y-82675910D01*
X88033398Y-82625000D01*
X88948224Y-82625000D01*
X89625000Y-83301776D01*
%TO.N,VBUS*%
G36*
X84329000Y-85721000D02*
G01*
X84349000Y-85721000D01*
X84349000Y-85979000D01*
X84329000Y-85979000D01*
X84329000Y-85999000D01*
X84071000Y-85999000D01*
X84071000Y-85979000D01*
X84051000Y-85979000D01*
X84051000Y-85721000D01*
X84071000Y-85721000D01*
X84071000Y-85701000D01*
X84329000Y-85701000D01*
X84329000Y-85721000D01*
G37*
X84329000Y-85721000D02*
X84349000Y-85721000D01*
X84349000Y-85979000D01*
X84329000Y-85979000D01*
X84329000Y-85999000D01*
X84071000Y-85999000D01*
X84071000Y-85979000D01*
X84051000Y-85979000D01*
X84051000Y-85721000D01*
X84071000Y-85721000D01*
X84071000Y-85701000D01*
X84329000Y-85701000D01*
X84329000Y-85721000D01*
%TO.N,+3V3*%
G36*
X86625000Y-85725000D02*
G01*
X86645000Y-85725000D01*
X86645000Y-85975000D01*
X86625000Y-85975000D01*
X86625000Y-87318750D01*
X86781250Y-87475000D01*
X87125000Y-87477218D01*
X87125000Y-89250000D01*
X87127402Y-89274386D01*
X87134515Y-89297835D01*
X87146066Y-89319446D01*
X87161612Y-89338388D01*
X87180554Y-89353934D01*
X87202165Y-89365485D01*
X87225614Y-89372598D01*
X87250000Y-89375000D01*
X90179363Y-89375000D01*
X90171976Y-89450000D01*
X90175000Y-89656250D01*
X90331250Y-89812500D01*
X91375000Y-89812500D01*
X91375000Y-89792500D01*
X91625000Y-89792500D01*
X91625000Y-89812500D01*
X91645000Y-89812500D01*
X91645000Y-90062500D01*
X91625000Y-90062500D01*
X91625000Y-90082500D01*
X91375000Y-90082500D01*
X91375000Y-90062500D01*
X90331250Y-90062500D01*
X90175000Y-90218750D01*
X90171976Y-90425000D01*
X90184043Y-90547521D01*
X90207546Y-90625000D01*
X88743641Y-90625000D01*
X88640334Y-90569781D01*
X88522521Y-90534043D01*
X88400000Y-90521976D01*
X86781250Y-90525000D01*
X86625000Y-90681250D01*
X86625000Y-92025000D01*
X86645000Y-92025000D01*
X86645000Y-92275000D01*
X86625000Y-92275000D01*
X86625000Y-92295000D01*
X86375000Y-92295000D01*
X86375000Y-92275000D01*
X86355000Y-92275000D01*
X86355000Y-92025000D01*
X86375000Y-92025000D01*
X86375000Y-90681250D01*
X86218750Y-90525000D01*
X85875000Y-90524358D01*
X85875000Y-87477218D01*
X86218750Y-87475000D01*
X86375000Y-87318750D01*
X86375000Y-85975000D01*
X86355000Y-85975000D01*
X86355000Y-85725000D01*
X86375000Y-85725000D01*
X86375000Y-85705000D01*
X86625000Y-85705000D01*
X86625000Y-85725000D01*
G37*
X86625000Y-85725000D02*
X86645000Y-85725000D01*
X86645000Y-85975000D01*
X86625000Y-85975000D01*
X86625000Y-87318750D01*
X86781250Y-87475000D01*
X87125000Y-87477218D01*
X87125000Y-89250000D01*
X87127402Y-89274386D01*
X87134515Y-89297835D01*
X87146066Y-89319446D01*
X87161612Y-89338388D01*
X87180554Y-89353934D01*
X87202165Y-89365485D01*
X87225614Y-89372598D01*
X87250000Y-89375000D01*
X90179363Y-89375000D01*
X90171976Y-89450000D01*
X90175000Y-89656250D01*
X90331250Y-89812500D01*
X91375000Y-89812500D01*
X91375000Y-89792500D01*
X91625000Y-89792500D01*
X91625000Y-89812500D01*
X91645000Y-89812500D01*
X91645000Y-90062500D01*
X91625000Y-90062500D01*
X91625000Y-90082500D01*
X91375000Y-90082500D01*
X91375000Y-90062500D01*
X90331250Y-90062500D01*
X90175000Y-90218750D01*
X90171976Y-90425000D01*
X90184043Y-90547521D01*
X90207546Y-90625000D01*
X88743641Y-90625000D01*
X88640334Y-90569781D01*
X88522521Y-90534043D01*
X88400000Y-90521976D01*
X86781250Y-90525000D01*
X86625000Y-90681250D01*
X86625000Y-92025000D01*
X86645000Y-92025000D01*
X86645000Y-92275000D01*
X86625000Y-92275000D01*
X86625000Y-92295000D01*
X86375000Y-92295000D01*
X86375000Y-92275000D01*
X86355000Y-92275000D01*
X86355000Y-92025000D01*
X86375000Y-92025000D01*
X86375000Y-90681250D01*
X86218750Y-90525000D01*
X85875000Y-90524358D01*
X85875000Y-87477218D01*
X86218750Y-87475000D01*
X86375000Y-87318750D01*
X86375000Y-85975000D01*
X86355000Y-85975000D01*
X86355000Y-85725000D01*
X86375000Y-85725000D01*
X86375000Y-85705000D01*
X86625000Y-85705000D01*
X86625000Y-85725000D01*
%TD*%
M02*
