%TF.GenerationSoftware,KiCad,Pcbnew,(5.1.6)-1*%
%TF.CreationDate,2022-03-08T04:09:40+09:00*%
%TF.ProjectId,STM32-project,53544d33-322d-4707-926f-6a6563742e6b,rev?*%
%TF.SameCoordinates,Original*%
%TF.FileFunction,Paste,Top*%
%TF.FilePolarity,Positive*%
%FSLAX46Y46*%
G04 Gerber Fmt 4.6, Leading zero omitted, Abs format (unit mm)*
G04 Created by KiCad (PCBNEW (5.1.6)-1) date 2022-03-08 04:09:40*
%MOMM*%
%LPD*%
G01*
G04 APERTURE LIST*
%ADD10R,1.300000X0.450000*%
%ADD11R,0.800000X1.000000*%
%ADD12R,1.500000X0.700000*%
%ADD13R,1.400000X1.800000*%
%ADD14R,1.500000X2.000000*%
%ADD15R,3.800000X2.000000*%
G04 APERTURE END LIST*
D10*
%TO.C,J1*%
X94600000Y-78200000D03*
X94600000Y-78850000D03*
X94600000Y-79500000D03*
X94600000Y-80150000D03*
X94600000Y-80800000D03*
%TD*%
D11*
%TO.C,SW1*%
X58280000Y-71350000D03*
X58280000Y-78650000D03*
X56070000Y-78650000D03*
X56070000Y-71350000D03*
D12*
X58930000Y-77250000D03*
X58930000Y-75750000D03*
X58930000Y-72750000D03*
%TD*%
D13*
%TO.C,Y1*%
X65950000Y-77300000D03*
X65950000Y-81700000D03*
X63550000Y-81700000D03*
X63550000Y-77300000D03*
%TD*%
%TO.C,U2*%
G36*
G01*
X73600000Y-77000000D02*
X73600000Y-75675000D01*
G75*
G02*
X73675000Y-75600000I75000J0D01*
G01*
X73825000Y-75600000D01*
G75*
G02*
X73900000Y-75675000I0J-75000D01*
G01*
X73900000Y-77000000D01*
G75*
G02*
X73825000Y-77075000I-75000J0D01*
G01*
X73675000Y-77075000D01*
G75*
G02*
X73600000Y-77000000I0J75000D01*
G01*
G37*
G36*
G01*
X74100000Y-77000000D02*
X74100000Y-75675000D01*
G75*
G02*
X74175000Y-75600000I75000J0D01*
G01*
X74325000Y-75600000D01*
G75*
G02*
X74400000Y-75675000I0J-75000D01*
G01*
X74400000Y-77000000D01*
G75*
G02*
X74325000Y-77075000I-75000J0D01*
G01*
X74175000Y-77075000D01*
G75*
G02*
X74100000Y-77000000I0J75000D01*
G01*
G37*
G36*
G01*
X74600000Y-77000000D02*
X74600000Y-75675000D01*
G75*
G02*
X74675000Y-75600000I75000J0D01*
G01*
X74825000Y-75600000D01*
G75*
G02*
X74900000Y-75675000I0J-75000D01*
G01*
X74900000Y-77000000D01*
G75*
G02*
X74825000Y-77075000I-75000J0D01*
G01*
X74675000Y-77075000D01*
G75*
G02*
X74600000Y-77000000I0J75000D01*
G01*
G37*
G36*
G01*
X75100000Y-77000000D02*
X75100000Y-75675000D01*
G75*
G02*
X75175000Y-75600000I75000J0D01*
G01*
X75325000Y-75600000D01*
G75*
G02*
X75400000Y-75675000I0J-75000D01*
G01*
X75400000Y-77000000D01*
G75*
G02*
X75325000Y-77075000I-75000J0D01*
G01*
X75175000Y-77075000D01*
G75*
G02*
X75100000Y-77000000I0J75000D01*
G01*
G37*
G36*
G01*
X75600000Y-77000000D02*
X75600000Y-75675000D01*
G75*
G02*
X75675000Y-75600000I75000J0D01*
G01*
X75825000Y-75600000D01*
G75*
G02*
X75900000Y-75675000I0J-75000D01*
G01*
X75900000Y-77000000D01*
G75*
G02*
X75825000Y-77075000I-75000J0D01*
G01*
X75675000Y-77075000D01*
G75*
G02*
X75600000Y-77000000I0J75000D01*
G01*
G37*
G36*
G01*
X76100000Y-77000000D02*
X76100000Y-75675000D01*
G75*
G02*
X76175000Y-75600000I75000J0D01*
G01*
X76325000Y-75600000D01*
G75*
G02*
X76400000Y-75675000I0J-75000D01*
G01*
X76400000Y-77000000D01*
G75*
G02*
X76325000Y-77075000I-75000J0D01*
G01*
X76175000Y-77075000D01*
G75*
G02*
X76100000Y-77000000I0J75000D01*
G01*
G37*
G36*
G01*
X76600000Y-77000000D02*
X76600000Y-75675000D01*
G75*
G02*
X76675000Y-75600000I75000J0D01*
G01*
X76825000Y-75600000D01*
G75*
G02*
X76900000Y-75675000I0J-75000D01*
G01*
X76900000Y-77000000D01*
G75*
G02*
X76825000Y-77075000I-75000J0D01*
G01*
X76675000Y-77075000D01*
G75*
G02*
X76600000Y-77000000I0J75000D01*
G01*
G37*
G36*
G01*
X77100000Y-77000000D02*
X77100000Y-75675000D01*
G75*
G02*
X77175000Y-75600000I75000J0D01*
G01*
X77325000Y-75600000D01*
G75*
G02*
X77400000Y-75675000I0J-75000D01*
G01*
X77400000Y-77000000D01*
G75*
G02*
X77325000Y-77075000I-75000J0D01*
G01*
X77175000Y-77075000D01*
G75*
G02*
X77100000Y-77000000I0J75000D01*
G01*
G37*
G36*
G01*
X77600000Y-77000000D02*
X77600000Y-75675000D01*
G75*
G02*
X77675000Y-75600000I75000J0D01*
G01*
X77825000Y-75600000D01*
G75*
G02*
X77900000Y-75675000I0J-75000D01*
G01*
X77900000Y-77000000D01*
G75*
G02*
X77825000Y-77075000I-75000J0D01*
G01*
X77675000Y-77075000D01*
G75*
G02*
X77600000Y-77000000I0J75000D01*
G01*
G37*
G36*
G01*
X78100000Y-77000000D02*
X78100000Y-75675000D01*
G75*
G02*
X78175000Y-75600000I75000J0D01*
G01*
X78325000Y-75600000D01*
G75*
G02*
X78400000Y-75675000I0J-75000D01*
G01*
X78400000Y-77000000D01*
G75*
G02*
X78325000Y-77075000I-75000J0D01*
G01*
X78175000Y-77075000D01*
G75*
G02*
X78100000Y-77000000I0J75000D01*
G01*
G37*
G36*
G01*
X78600000Y-77000000D02*
X78600000Y-75675000D01*
G75*
G02*
X78675000Y-75600000I75000J0D01*
G01*
X78825000Y-75600000D01*
G75*
G02*
X78900000Y-75675000I0J-75000D01*
G01*
X78900000Y-77000000D01*
G75*
G02*
X78825000Y-77075000I-75000J0D01*
G01*
X78675000Y-77075000D01*
G75*
G02*
X78600000Y-77000000I0J75000D01*
G01*
G37*
G36*
G01*
X79100000Y-77000000D02*
X79100000Y-75675000D01*
G75*
G02*
X79175000Y-75600000I75000J0D01*
G01*
X79325000Y-75600000D01*
G75*
G02*
X79400000Y-75675000I0J-75000D01*
G01*
X79400000Y-77000000D01*
G75*
G02*
X79325000Y-77075000I-75000J0D01*
G01*
X79175000Y-77075000D01*
G75*
G02*
X79100000Y-77000000I0J75000D01*
G01*
G37*
G36*
G01*
X79925000Y-77825000D02*
X79925000Y-77675000D01*
G75*
G02*
X80000000Y-77600000I75000J0D01*
G01*
X81325000Y-77600000D01*
G75*
G02*
X81400000Y-77675000I0J-75000D01*
G01*
X81400000Y-77825000D01*
G75*
G02*
X81325000Y-77900000I-75000J0D01*
G01*
X80000000Y-77900000D01*
G75*
G02*
X79925000Y-77825000I0J75000D01*
G01*
G37*
G36*
G01*
X79925000Y-78325000D02*
X79925000Y-78175000D01*
G75*
G02*
X80000000Y-78100000I75000J0D01*
G01*
X81325000Y-78100000D01*
G75*
G02*
X81400000Y-78175000I0J-75000D01*
G01*
X81400000Y-78325000D01*
G75*
G02*
X81325000Y-78400000I-75000J0D01*
G01*
X80000000Y-78400000D01*
G75*
G02*
X79925000Y-78325000I0J75000D01*
G01*
G37*
G36*
G01*
X79925000Y-78825000D02*
X79925000Y-78675000D01*
G75*
G02*
X80000000Y-78600000I75000J0D01*
G01*
X81325000Y-78600000D01*
G75*
G02*
X81400000Y-78675000I0J-75000D01*
G01*
X81400000Y-78825000D01*
G75*
G02*
X81325000Y-78900000I-75000J0D01*
G01*
X80000000Y-78900000D01*
G75*
G02*
X79925000Y-78825000I0J75000D01*
G01*
G37*
G36*
G01*
X79925000Y-79325000D02*
X79925000Y-79175000D01*
G75*
G02*
X80000000Y-79100000I75000J0D01*
G01*
X81325000Y-79100000D01*
G75*
G02*
X81400000Y-79175000I0J-75000D01*
G01*
X81400000Y-79325000D01*
G75*
G02*
X81325000Y-79400000I-75000J0D01*
G01*
X80000000Y-79400000D01*
G75*
G02*
X79925000Y-79325000I0J75000D01*
G01*
G37*
G36*
G01*
X79925000Y-79825000D02*
X79925000Y-79675000D01*
G75*
G02*
X80000000Y-79600000I75000J0D01*
G01*
X81325000Y-79600000D01*
G75*
G02*
X81400000Y-79675000I0J-75000D01*
G01*
X81400000Y-79825000D01*
G75*
G02*
X81325000Y-79900000I-75000J0D01*
G01*
X80000000Y-79900000D01*
G75*
G02*
X79925000Y-79825000I0J75000D01*
G01*
G37*
G36*
G01*
X79925000Y-80325000D02*
X79925000Y-80175000D01*
G75*
G02*
X80000000Y-80100000I75000J0D01*
G01*
X81325000Y-80100000D01*
G75*
G02*
X81400000Y-80175000I0J-75000D01*
G01*
X81400000Y-80325000D01*
G75*
G02*
X81325000Y-80400000I-75000J0D01*
G01*
X80000000Y-80400000D01*
G75*
G02*
X79925000Y-80325000I0J75000D01*
G01*
G37*
G36*
G01*
X79925000Y-80825000D02*
X79925000Y-80675000D01*
G75*
G02*
X80000000Y-80600000I75000J0D01*
G01*
X81325000Y-80600000D01*
G75*
G02*
X81400000Y-80675000I0J-75000D01*
G01*
X81400000Y-80825000D01*
G75*
G02*
X81325000Y-80900000I-75000J0D01*
G01*
X80000000Y-80900000D01*
G75*
G02*
X79925000Y-80825000I0J75000D01*
G01*
G37*
G36*
G01*
X79925000Y-81325000D02*
X79925000Y-81175000D01*
G75*
G02*
X80000000Y-81100000I75000J0D01*
G01*
X81325000Y-81100000D01*
G75*
G02*
X81400000Y-81175000I0J-75000D01*
G01*
X81400000Y-81325000D01*
G75*
G02*
X81325000Y-81400000I-75000J0D01*
G01*
X80000000Y-81400000D01*
G75*
G02*
X79925000Y-81325000I0J75000D01*
G01*
G37*
G36*
G01*
X79925000Y-81825000D02*
X79925000Y-81675000D01*
G75*
G02*
X80000000Y-81600000I75000J0D01*
G01*
X81325000Y-81600000D01*
G75*
G02*
X81400000Y-81675000I0J-75000D01*
G01*
X81400000Y-81825000D01*
G75*
G02*
X81325000Y-81900000I-75000J0D01*
G01*
X80000000Y-81900000D01*
G75*
G02*
X79925000Y-81825000I0J75000D01*
G01*
G37*
G36*
G01*
X79925000Y-82325000D02*
X79925000Y-82175000D01*
G75*
G02*
X80000000Y-82100000I75000J0D01*
G01*
X81325000Y-82100000D01*
G75*
G02*
X81400000Y-82175000I0J-75000D01*
G01*
X81400000Y-82325000D01*
G75*
G02*
X81325000Y-82400000I-75000J0D01*
G01*
X80000000Y-82400000D01*
G75*
G02*
X79925000Y-82325000I0J75000D01*
G01*
G37*
G36*
G01*
X79925000Y-82825000D02*
X79925000Y-82675000D01*
G75*
G02*
X80000000Y-82600000I75000J0D01*
G01*
X81325000Y-82600000D01*
G75*
G02*
X81400000Y-82675000I0J-75000D01*
G01*
X81400000Y-82825000D01*
G75*
G02*
X81325000Y-82900000I-75000J0D01*
G01*
X80000000Y-82900000D01*
G75*
G02*
X79925000Y-82825000I0J75000D01*
G01*
G37*
G36*
G01*
X79925000Y-83325000D02*
X79925000Y-83175000D01*
G75*
G02*
X80000000Y-83100000I75000J0D01*
G01*
X81325000Y-83100000D01*
G75*
G02*
X81400000Y-83175000I0J-75000D01*
G01*
X81400000Y-83325000D01*
G75*
G02*
X81325000Y-83400000I-75000J0D01*
G01*
X80000000Y-83400000D01*
G75*
G02*
X79925000Y-83325000I0J75000D01*
G01*
G37*
G36*
G01*
X79100000Y-85325000D02*
X79100000Y-84000000D01*
G75*
G02*
X79175000Y-83925000I75000J0D01*
G01*
X79325000Y-83925000D01*
G75*
G02*
X79400000Y-84000000I0J-75000D01*
G01*
X79400000Y-85325000D01*
G75*
G02*
X79325000Y-85400000I-75000J0D01*
G01*
X79175000Y-85400000D01*
G75*
G02*
X79100000Y-85325000I0J75000D01*
G01*
G37*
G36*
G01*
X78600000Y-85325000D02*
X78600000Y-84000000D01*
G75*
G02*
X78675000Y-83925000I75000J0D01*
G01*
X78825000Y-83925000D01*
G75*
G02*
X78900000Y-84000000I0J-75000D01*
G01*
X78900000Y-85325000D01*
G75*
G02*
X78825000Y-85400000I-75000J0D01*
G01*
X78675000Y-85400000D01*
G75*
G02*
X78600000Y-85325000I0J75000D01*
G01*
G37*
G36*
G01*
X78100000Y-85325000D02*
X78100000Y-84000000D01*
G75*
G02*
X78175000Y-83925000I75000J0D01*
G01*
X78325000Y-83925000D01*
G75*
G02*
X78400000Y-84000000I0J-75000D01*
G01*
X78400000Y-85325000D01*
G75*
G02*
X78325000Y-85400000I-75000J0D01*
G01*
X78175000Y-85400000D01*
G75*
G02*
X78100000Y-85325000I0J75000D01*
G01*
G37*
G36*
G01*
X77600000Y-85325000D02*
X77600000Y-84000000D01*
G75*
G02*
X77675000Y-83925000I75000J0D01*
G01*
X77825000Y-83925000D01*
G75*
G02*
X77900000Y-84000000I0J-75000D01*
G01*
X77900000Y-85325000D01*
G75*
G02*
X77825000Y-85400000I-75000J0D01*
G01*
X77675000Y-85400000D01*
G75*
G02*
X77600000Y-85325000I0J75000D01*
G01*
G37*
G36*
G01*
X77100000Y-85325000D02*
X77100000Y-84000000D01*
G75*
G02*
X77175000Y-83925000I75000J0D01*
G01*
X77325000Y-83925000D01*
G75*
G02*
X77400000Y-84000000I0J-75000D01*
G01*
X77400000Y-85325000D01*
G75*
G02*
X77325000Y-85400000I-75000J0D01*
G01*
X77175000Y-85400000D01*
G75*
G02*
X77100000Y-85325000I0J75000D01*
G01*
G37*
G36*
G01*
X76600000Y-85325000D02*
X76600000Y-84000000D01*
G75*
G02*
X76675000Y-83925000I75000J0D01*
G01*
X76825000Y-83925000D01*
G75*
G02*
X76900000Y-84000000I0J-75000D01*
G01*
X76900000Y-85325000D01*
G75*
G02*
X76825000Y-85400000I-75000J0D01*
G01*
X76675000Y-85400000D01*
G75*
G02*
X76600000Y-85325000I0J75000D01*
G01*
G37*
G36*
G01*
X76100000Y-85325000D02*
X76100000Y-84000000D01*
G75*
G02*
X76175000Y-83925000I75000J0D01*
G01*
X76325000Y-83925000D01*
G75*
G02*
X76400000Y-84000000I0J-75000D01*
G01*
X76400000Y-85325000D01*
G75*
G02*
X76325000Y-85400000I-75000J0D01*
G01*
X76175000Y-85400000D01*
G75*
G02*
X76100000Y-85325000I0J75000D01*
G01*
G37*
G36*
G01*
X75600000Y-85325000D02*
X75600000Y-84000000D01*
G75*
G02*
X75675000Y-83925000I75000J0D01*
G01*
X75825000Y-83925000D01*
G75*
G02*
X75900000Y-84000000I0J-75000D01*
G01*
X75900000Y-85325000D01*
G75*
G02*
X75825000Y-85400000I-75000J0D01*
G01*
X75675000Y-85400000D01*
G75*
G02*
X75600000Y-85325000I0J75000D01*
G01*
G37*
G36*
G01*
X75100000Y-85325000D02*
X75100000Y-84000000D01*
G75*
G02*
X75175000Y-83925000I75000J0D01*
G01*
X75325000Y-83925000D01*
G75*
G02*
X75400000Y-84000000I0J-75000D01*
G01*
X75400000Y-85325000D01*
G75*
G02*
X75325000Y-85400000I-75000J0D01*
G01*
X75175000Y-85400000D01*
G75*
G02*
X75100000Y-85325000I0J75000D01*
G01*
G37*
G36*
G01*
X74600000Y-85325000D02*
X74600000Y-84000000D01*
G75*
G02*
X74675000Y-83925000I75000J0D01*
G01*
X74825000Y-83925000D01*
G75*
G02*
X74900000Y-84000000I0J-75000D01*
G01*
X74900000Y-85325000D01*
G75*
G02*
X74825000Y-85400000I-75000J0D01*
G01*
X74675000Y-85400000D01*
G75*
G02*
X74600000Y-85325000I0J75000D01*
G01*
G37*
G36*
G01*
X74100000Y-85325000D02*
X74100000Y-84000000D01*
G75*
G02*
X74175000Y-83925000I75000J0D01*
G01*
X74325000Y-83925000D01*
G75*
G02*
X74400000Y-84000000I0J-75000D01*
G01*
X74400000Y-85325000D01*
G75*
G02*
X74325000Y-85400000I-75000J0D01*
G01*
X74175000Y-85400000D01*
G75*
G02*
X74100000Y-85325000I0J75000D01*
G01*
G37*
G36*
G01*
X73600000Y-85325000D02*
X73600000Y-84000000D01*
G75*
G02*
X73675000Y-83925000I75000J0D01*
G01*
X73825000Y-83925000D01*
G75*
G02*
X73900000Y-84000000I0J-75000D01*
G01*
X73900000Y-85325000D01*
G75*
G02*
X73825000Y-85400000I-75000J0D01*
G01*
X73675000Y-85400000D01*
G75*
G02*
X73600000Y-85325000I0J75000D01*
G01*
G37*
G36*
G01*
X71600000Y-83325000D02*
X71600000Y-83175000D01*
G75*
G02*
X71675000Y-83100000I75000J0D01*
G01*
X73000000Y-83100000D01*
G75*
G02*
X73075000Y-83175000I0J-75000D01*
G01*
X73075000Y-83325000D01*
G75*
G02*
X73000000Y-83400000I-75000J0D01*
G01*
X71675000Y-83400000D01*
G75*
G02*
X71600000Y-83325000I0J75000D01*
G01*
G37*
G36*
G01*
X71600000Y-82825000D02*
X71600000Y-82675000D01*
G75*
G02*
X71675000Y-82600000I75000J0D01*
G01*
X73000000Y-82600000D01*
G75*
G02*
X73075000Y-82675000I0J-75000D01*
G01*
X73075000Y-82825000D01*
G75*
G02*
X73000000Y-82900000I-75000J0D01*
G01*
X71675000Y-82900000D01*
G75*
G02*
X71600000Y-82825000I0J75000D01*
G01*
G37*
G36*
G01*
X71600000Y-82325000D02*
X71600000Y-82175000D01*
G75*
G02*
X71675000Y-82100000I75000J0D01*
G01*
X73000000Y-82100000D01*
G75*
G02*
X73075000Y-82175000I0J-75000D01*
G01*
X73075000Y-82325000D01*
G75*
G02*
X73000000Y-82400000I-75000J0D01*
G01*
X71675000Y-82400000D01*
G75*
G02*
X71600000Y-82325000I0J75000D01*
G01*
G37*
G36*
G01*
X71600000Y-81825000D02*
X71600000Y-81675000D01*
G75*
G02*
X71675000Y-81600000I75000J0D01*
G01*
X73000000Y-81600000D01*
G75*
G02*
X73075000Y-81675000I0J-75000D01*
G01*
X73075000Y-81825000D01*
G75*
G02*
X73000000Y-81900000I-75000J0D01*
G01*
X71675000Y-81900000D01*
G75*
G02*
X71600000Y-81825000I0J75000D01*
G01*
G37*
G36*
G01*
X71600000Y-81325000D02*
X71600000Y-81175000D01*
G75*
G02*
X71675000Y-81100000I75000J0D01*
G01*
X73000000Y-81100000D01*
G75*
G02*
X73075000Y-81175000I0J-75000D01*
G01*
X73075000Y-81325000D01*
G75*
G02*
X73000000Y-81400000I-75000J0D01*
G01*
X71675000Y-81400000D01*
G75*
G02*
X71600000Y-81325000I0J75000D01*
G01*
G37*
G36*
G01*
X71600000Y-80825000D02*
X71600000Y-80675000D01*
G75*
G02*
X71675000Y-80600000I75000J0D01*
G01*
X73000000Y-80600000D01*
G75*
G02*
X73075000Y-80675000I0J-75000D01*
G01*
X73075000Y-80825000D01*
G75*
G02*
X73000000Y-80900000I-75000J0D01*
G01*
X71675000Y-80900000D01*
G75*
G02*
X71600000Y-80825000I0J75000D01*
G01*
G37*
G36*
G01*
X71600000Y-80325000D02*
X71600000Y-80175000D01*
G75*
G02*
X71675000Y-80100000I75000J0D01*
G01*
X73000000Y-80100000D01*
G75*
G02*
X73075000Y-80175000I0J-75000D01*
G01*
X73075000Y-80325000D01*
G75*
G02*
X73000000Y-80400000I-75000J0D01*
G01*
X71675000Y-80400000D01*
G75*
G02*
X71600000Y-80325000I0J75000D01*
G01*
G37*
G36*
G01*
X71600000Y-79825000D02*
X71600000Y-79675000D01*
G75*
G02*
X71675000Y-79600000I75000J0D01*
G01*
X73000000Y-79600000D01*
G75*
G02*
X73075000Y-79675000I0J-75000D01*
G01*
X73075000Y-79825000D01*
G75*
G02*
X73000000Y-79900000I-75000J0D01*
G01*
X71675000Y-79900000D01*
G75*
G02*
X71600000Y-79825000I0J75000D01*
G01*
G37*
G36*
G01*
X71600000Y-79325000D02*
X71600000Y-79175000D01*
G75*
G02*
X71675000Y-79100000I75000J0D01*
G01*
X73000000Y-79100000D01*
G75*
G02*
X73075000Y-79175000I0J-75000D01*
G01*
X73075000Y-79325000D01*
G75*
G02*
X73000000Y-79400000I-75000J0D01*
G01*
X71675000Y-79400000D01*
G75*
G02*
X71600000Y-79325000I0J75000D01*
G01*
G37*
G36*
G01*
X71600000Y-78825000D02*
X71600000Y-78675000D01*
G75*
G02*
X71675000Y-78600000I75000J0D01*
G01*
X73000000Y-78600000D01*
G75*
G02*
X73075000Y-78675000I0J-75000D01*
G01*
X73075000Y-78825000D01*
G75*
G02*
X73000000Y-78900000I-75000J0D01*
G01*
X71675000Y-78900000D01*
G75*
G02*
X71600000Y-78825000I0J75000D01*
G01*
G37*
G36*
G01*
X71600000Y-78325000D02*
X71600000Y-78175000D01*
G75*
G02*
X71675000Y-78100000I75000J0D01*
G01*
X73000000Y-78100000D01*
G75*
G02*
X73075000Y-78175000I0J-75000D01*
G01*
X73075000Y-78325000D01*
G75*
G02*
X73000000Y-78400000I-75000J0D01*
G01*
X71675000Y-78400000D01*
G75*
G02*
X71600000Y-78325000I0J75000D01*
G01*
G37*
G36*
G01*
X71600000Y-77825000D02*
X71600000Y-77675000D01*
G75*
G02*
X71675000Y-77600000I75000J0D01*
G01*
X73000000Y-77600000D01*
G75*
G02*
X73075000Y-77675000I0J-75000D01*
G01*
X73075000Y-77825000D01*
G75*
G02*
X73000000Y-77900000I-75000J0D01*
G01*
X71675000Y-77900000D01*
G75*
G02*
X71600000Y-77825000I0J75000D01*
G01*
G37*
%TD*%
D14*
%TO.C,U1*%
X88800000Y-85850000D03*
X84200000Y-85850000D03*
X86500000Y-85850000D03*
D15*
X86500000Y-92150000D03*
%TD*%
%TO.C,R5*%
G36*
G01*
X71190000Y-91172500D02*
X71190000Y-90827500D01*
G75*
G02*
X71337500Y-90680000I147500J0D01*
G01*
X71632500Y-90680000D01*
G75*
G02*
X71780000Y-90827500I0J-147500D01*
G01*
X71780000Y-91172500D01*
G75*
G02*
X71632500Y-91320000I-147500J0D01*
G01*
X71337500Y-91320000D01*
G75*
G02*
X71190000Y-91172500I0J147500D01*
G01*
G37*
G36*
G01*
X70220000Y-91172500D02*
X70220000Y-90827500D01*
G75*
G02*
X70367500Y-90680000I147500J0D01*
G01*
X70662500Y-90680000D01*
G75*
G02*
X70810000Y-90827500I0J-147500D01*
G01*
X70810000Y-91172500D01*
G75*
G02*
X70662500Y-91320000I-147500J0D01*
G01*
X70367500Y-91320000D01*
G75*
G02*
X70220000Y-91172500I0J147500D01*
G01*
G37*
%TD*%
%TO.C,R4*%
G36*
G01*
X68310000Y-90827500D02*
X68310000Y-91172500D01*
G75*
G02*
X68162500Y-91320000I-147500J0D01*
G01*
X67867500Y-91320000D01*
G75*
G02*
X67720000Y-91172500I0J147500D01*
G01*
X67720000Y-90827500D01*
G75*
G02*
X67867500Y-90680000I147500J0D01*
G01*
X68162500Y-90680000D01*
G75*
G02*
X68310000Y-90827500I0J-147500D01*
G01*
G37*
G36*
G01*
X69280000Y-90827500D02*
X69280000Y-91172500D01*
G75*
G02*
X69132500Y-91320000I-147500J0D01*
G01*
X68837500Y-91320000D01*
G75*
G02*
X68690000Y-91172500I0J147500D01*
G01*
X68690000Y-90827500D01*
G75*
G02*
X68837500Y-90680000I147500J0D01*
G01*
X69132500Y-90680000D01*
G75*
G02*
X69280000Y-90827500I0J-147500D01*
G01*
G37*
%TD*%
%TO.C,R3*%
G36*
G01*
X86577500Y-78940000D02*
X86922500Y-78940000D01*
G75*
G02*
X87070000Y-79087500I0J-147500D01*
G01*
X87070000Y-79382500D01*
G75*
G02*
X86922500Y-79530000I-147500J0D01*
G01*
X86577500Y-79530000D01*
G75*
G02*
X86430000Y-79382500I0J147500D01*
G01*
X86430000Y-79087500D01*
G75*
G02*
X86577500Y-78940000I147500J0D01*
G01*
G37*
G36*
G01*
X86577500Y-77970000D02*
X86922500Y-77970000D01*
G75*
G02*
X87070000Y-78117500I0J-147500D01*
G01*
X87070000Y-78412500D01*
G75*
G02*
X86922500Y-78560000I-147500J0D01*
G01*
X86577500Y-78560000D01*
G75*
G02*
X86430000Y-78412500I0J147500D01*
G01*
X86430000Y-78117500D01*
G75*
G02*
X86577500Y-77970000I147500J0D01*
G01*
G37*
%TD*%
%TO.C,R2*%
G36*
G01*
X61077500Y-75190000D02*
X61422500Y-75190000D01*
G75*
G02*
X61570000Y-75337500I0J-147500D01*
G01*
X61570000Y-75632500D01*
G75*
G02*
X61422500Y-75780000I-147500J0D01*
G01*
X61077500Y-75780000D01*
G75*
G02*
X60930000Y-75632500I0J147500D01*
G01*
X60930000Y-75337500D01*
G75*
G02*
X61077500Y-75190000I147500J0D01*
G01*
G37*
G36*
G01*
X61077500Y-74220000D02*
X61422500Y-74220000D01*
G75*
G02*
X61570000Y-74367500I0J-147500D01*
G01*
X61570000Y-74662500D01*
G75*
G02*
X61422500Y-74810000I-147500J0D01*
G01*
X61077500Y-74810000D01*
G75*
G02*
X60930000Y-74662500I0J147500D01*
G01*
X60930000Y-74367500D01*
G75*
G02*
X61077500Y-74220000I147500J0D01*
G01*
G37*
%TD*%
%TO.C,R1*%
G36*
G01*
X95690000Y-85672500D02*
X95690000Y-85327500D01*
G75*
G02*
X95837500Y-85180000I147500J0D01*
G01*
X96132500Y-85180000D01*
G75*
G02*
X96280000Y-85327500I0J-147500D01*
G01*
X96280000Y-85672500D01*
G75*
G02*
X96132500Y-85820000I-147500J0D01*
G01*
X95837500Y-85820000D01*
G75*
G02*
X95690000Y-85672500I0J147500D01*
G01*
G37*
G36*
G01*
X94720000Y-85672500D02*
X94720000Y-85327500D01*
G75*
G02*
X94867500Y-85180000I147500J0D01*
G01*
X95162500Y-85180000D01*
G75*
G02*
X95310000Y-85327500I0J-147500D01*
G01*
X95310000Y-85672500D01*
G75*
G02*
X95162500Y-85820000I-147500J0D01*
G01*
X94867500Y-85820000D01*
G75*
G02*
X94720000Y-85672500I0J147500D01*
G01*
G37*
%TD*%
%TO.C,FB1*%
G36*
G01*
X72256250Y-86150000D02*
X71743750Y-86150000D01*
G75*
G02*
X71525000Y-85931250I0J218750D01*
G01*
X71525000Y-85493750D01*
G75*
G02*
X71743750Y-85275000I218750J0D01*
G01*
X72256250Y-85275000D01*
G75*
G02*
X72475000Y-85493750I0J-218750D01*
G01*
X72475000Y-85931250D01*
G75*
G02*
X72256250Y-86150000I-218750J0D01*
G01*
G37*
G36*
G01*
X72256250Y-87725000D02*
X71743750Y-87725000D01*
G75*
G02*
X71525000Y-87506250I0J218750D01*
G01*
X71525000Y-87068750D01*
G75*
G02*
X71743750Y-86850000I218750J0D01*
G01*
X72256250Y-86850000D01*
G75*
G02*
X72475000Y-87068750I0J-218750D01*
G01*
X72475000Y-87506250D01*
G75*
G02*
X72256250Y-87725000I-218750J0D01*
G01*
G37*
%TD*%
%TO.C,D1*%
G36*
G01*
X94743750Y-88350000D02*
X95256250Y-88350000D01*
G75*
G02*
X95475000Y-88568750I0J-218750D01*
G01*
X95475000Y-89006250D01*
G75*
G02*
X95256250Y-89225000I-218750J0D01*
G01*
X94743750Y-89225000D01*
G75*
G02*
X94525000Y-89006250I0J218750D01*
G01*
X94525000Y-88568750D01*
G75*
G02*
X94743750Y-88350000I218750J0D01*
G01*
G37*
G36*
G01*
X94743750Y-86775000D02*
X95256250Y-86775000D01*
G75*
G02*
X95475000Y-86993750I0J-218750D01*
G01*
X95475000Y-87431250D01*
G75*
G02*
X95256250Y-87650000I-218750J0D01*
G01*
X94743750Y-87650000D01*
G75*
G02*
X94525000Y-87431250I0J218750D01*
G01*
X94525000Y-86993750D01*
G75*
G02*
X94743750Y-86775000I218750J0D01*
G01*
G37*
%TD*%
%TO.C,C13*%
G36*
G01*
X67672500Y-81810000D02*
X67327500Y-81810000D01*
G75*
G02*
X67180000Y-81662500I0J147500D01*
G01*
X67180000Y-81367500D01*
G75*
G02*
X67327500Y-81220000I147500J0D01*
G01*
X67672500Y-81220000D01*
G75*
G02*
X67820000Y-81367500I0J-147500D01*
G01*
X67820000Y-81662500D01*
G75*
G02*
X67672500Y-81810000I-147500J0D01*
G01*
G37*
G36*
G01*
X67672500Y-82780000D02*
X67327500Y-82780000D01*
G75*
G02*
X67180000Y-82632500I0J147500D01*
G01*
X67180000Y-82337500D01*
G75*
G02*
X67327500Y-82190000I147500J0D01*
G01*
X67672500Y-82190000D01*
G75*
G02*
X67820000Y-82337500I0J-147500D01*
G01*
X67820000Y-82632500D01*
G75*
G02*
X67672500Y-82780000I-147500J0D01*
G01*
G37*
%TD*%
%TO.C,C12*%
G36*
G01*
X67922500Y-77310000D02*
X67577500Y-77310000D01*
G75*
G02*
X67430000Y-77162500I0J147500D01*
G01*
X67430000Y-76867500D01*
G75*
G02*
X67577500Y-76720000I147500J0D01*
G01*
X67922500Y-76720000D01*
G75*
G02*
X68070000Y-76867500I0J-147500D01*
G01*
X68070000Y-77162500D01*
G75*
G02*
X67922500Y-77310000I-147500J0D01*
G01*
G37*
G36*
G01*
X67922500Y-78280000D02*
X67577500Y-78280000D01*
G75*
G02*
X67430000Y-78132500I0J147500D01*
G01*
X67430000Y-77837500D01*
G75*
G02*
X67577500Y-77690000I147500J0D01*
G01*
X67922500Y-77690000D01*
G75*
G02*
X68070000Y-77837500I0J-147500D01*
G01*
X68070000Y-78132500D01*
G75*
G02*
X67922500Y-78280000I-147500J0D01*
G01*
G37*
%TD*%
%TO.C,C11*%
G36*
G01*
X75190000Y-86672500D02*
X75190000Y-86327500D01*
G75*
G02*
X75337500Y-86180000I147500J0D01*
G01*
X75632500Y-86180000D01*
G75*
G02*
X75780000Y-86327500I0J-147500D01*
G01*
X75780000Y-86672500D01*
G75*
G02*
X75632500Y-86820000I-147500J0D01*
G01*
X75337500Y-86820000D01*
G75*
G02*
X75190000Y-86672500I0J147500D01*
G01*
G37*
G36*
G01*
X74220000Y-86672500D02*
X74220000Y-86327500D01*
G75*
G02*
X74367500Y-86180000I147500J0D01*
G01*
X74662500Y-86180000D01*
G75*
G02*
X74810000Y-86327500I0J-147500D01*
G01*
X74810000Y-86672500D01*
G75*
G02*
X74662500Y-86820000I-147500J0D01*
G01*
X74367500Y-86820000D01*
G75*
G02*
X74220000Y-86672500I0J147500D01*
G01*
G37*
%TD*%
%TO.C,C10*%
G36*
G01*
X69810000Y-86827500D02*
X69810000Y-87172500D01*
G75*
G02*
X69662500Y-87320000I-147500J0D01*
G01*
X69367500Y-87320000D01*
G75*
G02*
X69220000Y-87172500I0J147500D01*
G01*
X69220000Y-86827500D01*
G75*
G02*
X69367500Y-86680000I147500J0D01*
G01*
X69662500Y-86680000D01*
G75*
G02*
X69810000Y-86827500I0J-147500D01*
G01*
G37*
G36*
G01*
X70780000Y-86827500D02*
X70780000Y-87172500D01*
G75*
G02*
X70632500Y-87320000I-147500J0D01*
G01*
X70337500Y-87320000D01*
G75*
G02*
X70190000Y-87172500I0J147500D01*
G01*
X70190000Y-86827500D01*
G75*
G02*
X70337500Y-86680000I147500J0D01*
G01*
X70632500Y-86680000D01*
G75*
G02*
X70780000Y-86827500I0J-147500D01*
G01*
G37*
%TD*%
%TO.C,C9*%
G36*
G01*
X69810000Y-85327500D02*
X69810000Y-85672500D01*
G75*
G02*
X69662500Y-85820000I-147500J0D01*
G01*
X69367500Y-85820000D01*
G75*
G02*
X69220000Y-85672500I0J147500D01*
G01*
X69220000Y-85327500D01*
G75*
G02*
X69367500Y-85180000I147500J0D01*
G01*
X69662500Y-85180000D01*
G75*
G02*
X69810000Y-85327500I0J-147500D01*
G01*
G37*
G36*
G01*
X70780000Y-85327500D02*
X70780000Y-85672500D01*
G75*
G02*
X70632500Y-85820000I-147500J0D01*
G01*
X70337500Y-85820000D01*
G75*
G02*
X70190000Y-85672500I0J147500D01*
G01*
X70190000Y-85327500D01*
G75*
G02*
X70337500Y-85180000I147500J0D01*
G01*
X70632500Y-85180000D01*
G75*
G02*
X70780000Y-85327500I0J-147500D01*
G01*
G37*
%TD*%
%TO.C,C8*%
G36*
G01*
X70672500Y-81310000D02*
X70327500Y-81310000D01*
G75*
G02*
X70180000Y-81162500I0J147500D01*
G01*
X70180000Y-80867500D01*
G75*
G02*
X70327500Y-80720000I147500J0D01*
G01*
X70672500Y-80720000D01*
G75*
G02*
X70820000Y-80867500I0J-147500D01*
G01*
X70820000Y-81162500D01*
G75*
G02*
X70672500Y-81310000I-147500J0D01*
G01*
G37*
G36*
G01*
X70672500Y-82280000D02*
X70327500Y-82280000D01*
G75*
G02*
X70180000Y-82132500I0J147500D01*
G01*
X70180000Y-81837500D01*
G75*
G02*
X70327500Y-81690000I147500J0D01*
G01*
X70672500Y-81690000D01*
G75*
G02*
X70820000Y-81837500I0J-147500D01*
G01*
X70820000Y-82132500D01*
G75*
G02*
X70672500Y-82280000I-147500J0D01*
G01*
G37*
%TD*%
%TO.C,C7*%
G36*
G01*
X74190000Y-74672500D02*
X74190000Y-74327500D01*
G75*
G02*
X74337500Y-74180000I147500J0D01*
G01*
X74632500Y-74180000D01*
G75*
G02*
X74780000Y-74327500I0J-147500D01*
G01*
X74780000Y-74672500D01*
G75*
G02*
X74632500Y-74820000I-147500J0D01*
G01*
X74337500Y-74820000D01*
G75*
G02*
X74190000Y-74672500I0J147500D01*
G01*
G37*
G36*
G01*
X73220000Y-74672500D02*
X73220000Y-74327500D01*
G75*
G02*
X73367500Y-74180000I147500J0D01*
G01*
X73662500Y-74180000D01*
G75*
G02*
X73810000Y-74327500I0J-147500D01*
G01*
X73810000Y-74672500D01*
G75*
G02*
X73662500Y-74820000I-147500J0D01*
G01*
X73367500Y-74820000D01*
G75*
G02*
X73220000Y-74672500I0J147500D01*
G01*
G37*
%TD*%
%TO.C,C6*%
G36*
G01*
X82327500Y-78190000D02*
X82672500Y-78190000D01*
G75*
G02*
X82820000Y-78337500I0J-147500D01*
G01*
X82820000Y-78632500D01*
G75*
G02*
X82672500Y-78780000I-147500J0D01*
G01*
X82327500Y-78780000D01*
G75*
G02*
X82180000Y-78632500I0J147500D01*
G01*
X82180000Y-78337500D01*
G75*
G02*
X82327500Y-78190000I147500J0D01*
G01*
G37*
G36*
G01*
X82327500Y-77220000D02*
X82672500Y-77220000D01*
G75*
G02*
X82820000Y-77367500I0J-147500D01*
G01*
X82820000Y-77662500D01*
G75*
G02*
X82672500Y-77810000I-147500J0D01*
G01*
X82327500Y-77810000D01*
G75*
G02*
X82180000Y-77662500I0J147500D01*
G01*
X82180000Y-77367500D01*
G75*
G02*
X82327500Y-77220000I147500J0D01*
G01*
G37*
%TD*%
%TO.C,C5*%
G36*
G01*
X79560000Y-86327500D02*
X79560000Y-86672500D01*
G75*
G02*
X79412500Y-86820000I-147500J0D01*
G01*
X79117500Y-86820000D01*
G75*
G02*
X78970000Y-86672500I0J147500D01*
G01*
X78970000Y-86327500D01*
G75*
G02*
X79117500Y-86180000I147500J0D01*
G01*
X79412500Y-86180000D01*
G75*
G02*
X79560000Y-86327500I0J-147500D01*
G01*
G37*
G36*
G01*
X80530000Y-86327500D02*
X80530000Y-86672500D01*
G75*
G02*
X80382500Y-86820000I-147500J0D01*
G01*
X80087500Y-86820000D01*
G75*
G02*
X79940000Y-86672500I0J147500D01*
G01*
X79940000Y-86327500D01*
G75*
G02*
X80087500Y-86180000I147500J0D01*
G01*
X80382500Y-86180000D01*
G75*
G02*
X80530000Y-86327500I0J-147500D01*
G01*
G37*
%TD*%
%TO.C,C4*%
G36*
G01*
X70672500Y-77060000D02*
X70327500Y-77060000D01*
G75*
G02*
X70180000Y-76912500I0J147500D01*
G01*
X70180000Y-76617500D01*
G75*
G02*
X70327500Y-76470000I147500J0D01*
G01*
X70672500Y-76470000D01*
G75*
G02*
X70820000Y-76617500I0J-147500D01*
G01*
X70820000Y-76912500D01*
G75*
G02*
X70672500Y-77060000I-147500J0D01*
G01*
G37*
G36*
G01*
X70672500Y-78030000D02*
X70327500Y-78030000D01*
G75*
G02*
X70180000Y-77882500I0J147500D01*
G01*
X70180000Y-77587500D01*
G75*
G02*
X70327500Y-77440000I147500J0D01*
G01*
X70672500Y-77440000D01*
G75*
G02*
X70820000Y-77587500I0J-147500D01*
G01*
X70820000Y-77882500D01*
G75*
G02*
X70672500Y-78030000I-147500J0D01*
G01*
G37*
%TD*%
%TO.C,C3*%
G36*
G01*
X74850000Y-73006250D02*
X74850000Y-72493750D01*
G75*
G02*
X75068750Y-72275000I218750J0D01*
G01*
X75506250Y-72275000D01*
G75*
G02*
X75725000Y-72493750I0J-218750D01*
G01*
X75725000Y-73006250D01*
G75*
G02*
X75506250Y-73225000I-218750J0D01*
G01*
X75068750Y-73225000D01*
G75*
G02*
X74850000Y-73006250I0J218750D01*
G01*
G37*
G36*
G01*
X73275000Y-73006250D02*
X73275000Y-72493750D01*
G75*
G02*
X73493750Y-72275000I218750J0D01*
G01*
X73931250Y-72275000D01*
G75*
G02*
X74150000Y-72493750I0J-218750D01*
G01*
X74150000Y-73006250D01*
G75*
G02*
X73931250Y-73225000I-218750J0D01*
G01*
X73493750Y-73225000D01*
G75*
G02*
X73275000Y-73006250I0J218750D01*
G01*
G37*
%TD*%
%TO.C,C2*%
G36*
G01*
X91956250Y-88550000D02*
X91043750Y-88550000D01*
G75*
G02*
X90800000Y-88306250I0J243750D01*
G01*
X90800000Y-87818750D01*
G75*
G02*
X91043750Y-87575000I243750J0D01*
G01*
X91956250Y-87575000D01*
G75*
G02*
X92200000Y-87818750I0J-243750D01*
G01*
X92200000Y-88306250D01*
G75*
G02*
X91956250Y-88550000I-243750J0D01*
G01*
G37*
G36*
G01*
X91956250Y-90425000D02*
X91043750Y-90425000D01*
G75*
G02*
X90800000Y-90181250I0J243750D01*
G01*
X90800000Y-89693750D01*
G75*
G02*
X91043750Y-89450000I243750J0D01*
G01*
X91956250Y-89450000D01*
G75*
G02*
X92200000Y-89693750I0J-243750D01*
G01*
X92200000Y-90181250D01*
G75*
G02*
X91956250Y-90425000I-243750J0D01*
G01*
G37*
%TD*%
%TO.C,C1*%
G36*
G01*
X86450000Y-83956250D02*
X86450000Y-83043750D01*
G75*
G02*
X86693750Y-82800000I243750J0D01*
G01*
X87181250Y-82800000D01*
G75*
G02*
X87425000Y-83043750I0J-243750D01*
G01*
X87425000Y-83956250D01*
G75*
G02*
X87181250Y-84200000I-243750J0D01*
G01*
X86693750Y-84200000D01*
G75*
G02*
X86450000Y-83956250I0J243750D01*
G01*
G37*
G36*
G01*
X84575000Y-83956250D02*
X84575000Y-83043750D01*
G75*
G02*
X84818750Y-82800000I243750J0D01*
G01*
X85306250Y-82800000D01*
G75*
G02*
X85550000Y-83043750I0J-243750D01*
G01*
X85550000Y-83956250D01*
G75*
G02*
X85306250Y-84200000I-243750J0D01*
G01*
X84818750Y-84200000D01*
G75*
G02*
X84575000Y-83956250I0J243750D01*
G01*
G37*
%TD*%
M02*
